<?xml version="1.0" encoding="UTF-8" standalone="no"?>
<svg
   width="64mm"
   height="64mm"
   viewBox="0 0 64 64"
   version="1.1"
   id="svg6751"
   inkscape:version="1.2.2 (732a01da63, 2022-12-09)"
   sodipodi:docname="icon_spring_x128.svg"
   xml:space="preserve"
   xmlns:inkscape="http://www.inkscape.org/namespaces/inkscape"
   xmlns:sodipodi="http://sodipodi.sourceforge.net/DTD/sodipodi-0.dtd"
   xmlns="http://www.w3.org/2000/svg"
   xmlns:svg="http://www.w3.org/2000/svg"
   xmlns:rdf="http://www.w3.org/1999/02/22-rdf-syntax-ns#"
   xmlns:cc="http://creativecommons.org/ns#"
   xmlns:dc="http://purl.org/dc/elements/1.1/"><defs
     id="defs6745" /><sodipodi:namedview
     id="base"
     pagecolor="#303030"
     bordercolor="#666666"
     borderopacity="1.0"
     inkscape:pageopacity="0"
     inkscape:pageshadow="2"
     inkscape:zoom="1.8201181"
     inkscape:cx="53.84266"
     inkscape:cy="143.9467"
     inkscape:document-units="mm"
     inkscape:current-layer="layer1"
     inkscape:document-rotation="0"
     showgrid="false"
     inkscape:window-width="1920"
     inkscape:window-height="1009"
     inkscape:window-x="1912"
     inkscape:window-y="-8"
     inkscape:window-maximized="1"
     inkscape:showpageshadow="2"
     inkscape:pagecheckerboard="0"
     inkscape:deskcolor="#d1d1d1" /><metadata
     id="metadata6748"><rdf:RDF><cc:Work
         rdf:about=""><dc:format>image/svg+xml</dc:format><dc:type
           rdf:resource="http://purl.org/dc/dcmitype/StillImage" /></cc:Work></rdf:RDF></metadata><g
     inkscape:label="Layer 1"
     inkscape:groupmode="layer"
     id="layer1"><path
       style="fill:#ffffff;stroke-width:0.298129"
       d="M 31.78467,58.054991 C 12.368451,57.359542 4.8779735,55.611673 7.0576588,52.285053 8.0428236,50.781501 17.938578,48.823348 26.084225,48.520109 27.400233,48.471118 25.931136,48.231016 19.960662,47.519301 8.1254528,46.108473 4.8156802,44.647019 7.1597824,41.866987 8.274835,40.544569 12.800851,39.499035 21.052013,38.657806 25.235382,38.2313 25.065875,38.145018 18.219785,37.21616 7.1283786,35.711308 4.1713476,33.953031 7.9214587,31.09268 9.0389587,30.240322 13.579476,29.268877 19.794905,28.552354 24.118867,28.053882 24.0044,27.860141 19.02776,27.253926 2.0867304,25.190305 2.4139383,19.917652 19.584354,18.284923 c 3.105774,-0.295327 3.172234,-0.6065 0.216125,-1.011921 C 8.1403363,15.673852 4.7745926,13.923719 7.8707821,11.069752 12.147378,7.1277233 51.718843,5.2767668 54.297489,8.898141 c 1.929899,2.710293 0.847236,3.113868 -8.548665,3.186616 -17.539918,0.135803 -20.469978,0.574682 -9.492214,1.421792 15.509696,1.19682 17.969808,1.728966 18.542807,4.01099 0.627476,2.498975 -2.454278,3.370928 -16.530434,4.677129 -6.926779,0.642773 -7.07455,0.799786 -1.192518,1.267098 13.19796,1.048543 16.998474,1.922855 17.782438,4.090871 0.919976,2.544151 -3.029212,3.724313 -18.006035,5.380863 -2.086905,0.23083 -2.086905,0.23083 0.596259,0.466057 11.882488,1.041717 16.230048,2.031954 17.25191,3.929436 1.457268,2.705986 -1.350821,3.828559 -13.972487,5.585701 -2.683164,0.373538 -2.683164,0.373538 1.450232,0.902694 15.818388,2.025055 18.185768,5.975543 5.033834,8.400049 -3.800902,0.700679 -3.800902,0.700679 1.037567,0.927171 4.906494,0.229676 6.93764,1.020953 6.93764,2.702712 0,2.494481 -4.236973,2.894165 -23.403153,2.207671 z M 49.309237,56.31165 c 5.22627,-1.336656 5.344219,-2.401676 0.265985,-2.401676 -1.735005,0 -6.043872,-0.146366 -9.575256,-0.325262 -8.039299,-0.407253 -17.679925,0.292635 -14.322735,1.039804 2.685167,0.597603 16.524582,2.141922 19.997296,2.231465 0.752634,0.01941 2.388252,-0.225541 3.63471,-0.544331 z M 8.9777751,53.917082 c 1.0870039,-0.299707 10.9108999,-1.601581 25.9284579,-3.436078 20.341672,-2.484869 22.962929,-3.553651 12.679292,-5.16981 -5.464678,-0.858818 -18.030147,-1.93372 -20.644014,-1.765972 -2.28636,0.146731 -3.456408,0.663463 -2.13147,0.941332 0.392651,0.08235 3.859818,0.764931 7.704813,1.516855 6.709759,1.31215 7.425645,1.489827 7.14272,1.772751 -0.149825,0.149822 -6.427347,0.808959 -15.773332,1.656192 -13.403359,1.215041 -16.6952429,2.052212 -16.6952429,4.24583 0,0.603428 0.31438,0.645414 1.788776,0.2389 z M 10.766551,43.313483 c 1.229784,-0.231223 9.346355,-1.303865 18.036825,-2.383651 21.138286,-2.626415 25.406386,-3.373297 24.4317,-4.275344 -1.842118,-1.704826 -30.245222,-4.257084 -30.245222,-2.717789 0,0.20881 8.117862,1.864883 13.266756,2.706466 3.82513,0.625216 3.411822,0.989321 -1.639712,1.444508 -22.360645,2.01488 -25.5187457,2.512187 -26.9797691,4.248516 -0.8221313,0.977047 -0.5617308,1.957949 0.4194903,1.580177 0.260679,-0.100362 1.4801484,-0.371659 2.7099318,-0.602883 z M 10.574219,33.043519 c 1.663509,-0.326515 7.854256,-1.203677 13.757217,-1.94925 22.421813,-2.831988 24.798607,-3.145455 26.760757,-3.529384 5.625475,-1.100724 1.253453,-2.150313 -14.388389,-3.454214 -4.017293,-0.334881 -8.444514,-0.749223 -9.838268,-0.920761 -2.544692,-0.31319 -4.800956,-0.09664 -4.80022,0.460713 4.47e-4,0.336064 1.042784,0.56756 9.421224,2.092382 7.719046,1.404817 7.823257,1.525626 1.788776,2.073708 -18.707015,1.699064 -24.0546439,2.618934 -25.74489,4.42849 -1.3549364,1.450578 -0.8945302,1.571332 3.043793,0.798316 z M 9.8990058,22.937406 C 13.296142,22.07106 21.461767,20.919509 37.598192,19.031152 58.847566,16.544454 58.720942,16.017313 36.405674,14.066714 16.502162,12.32693 16.232139,13.163744 35.62465,16.487147 c 2.041643,0.349888 0.756727,0.687533 -4.436239,1.165734 -18.609475,1.713679 -23.9619791,2.901886 -23.9927827,5.326176 -0.00821,0.646437 0.0061,0.646217 2.7033775,-0.04165 z M 8.9762895,12.889155 C 13.252185,11.400502 29.991979,9.4630111 47.676228,8.4099605 54.599602,7.9976921 50.731722,7.6089043 39.773829,7.6156349 22.993811,7.6259412 10.385006,9.1923439 7.9711864,11.566503 6.3146582,13.195814 6.6872277,13.686092 8.9762895,12.889155 Z"
       id="path314" /></g></svg>
