<?xml version="1.0" encoding="UTF-8" standalone="no"?>
<svg
   width="64mm"
   height="64mm"
   viewBox="0 0 64 64"
   version="1.1"
   id="svg6751"
   inkscape:version="1.2.2 (732a01da63, 2022-12-09)"
   sodipodi:docname="icon_spring_x16.svg"
   xml:space="preserve"
   xmlns:inkscape="http://www.inkscape.org/namespaces/inkscape"
   xmlns:sodipodi="http://sodipodi.sourceforge.net/DTD/sodipodi-0.dtd"
   xmlns="http://www.w3.org/2000/svg"
   xmlns:svg="http://www.w3.org/2000/svg"
   xmlns:rdf="http://www.w3.org/1999/02/22-rdf-syntax-ns#"
   xmlns:cc="http://creativecommons.org/ns#"
   xmlns:dc="http://purl.org/dc/elements/1.1/"><defs
     id="defs6745" /><sodipodi:namedview
     id="base"
     pagecolor="#303030"
     bordercolor="#666666"
     borderopacity="1.0"
     inkscape:pageopacity="0"
     inkscape:pageshadow="2"
     inkscape:zoom="1.8201181"
     inkscape:cx="53.84266"
     inkscape:cy="143.9467"
     inkscape:document-units="mm"
     inkscape:current-layer="layer1"
     inkscape:document-rotation="0"
     showgrid="false"
     inkscape:window-width="1920"
     inkscape:window-height="1009"
     inkscape:window-x="1912"
     inkscape:window-y="-8"
     inkscape:window-maximized="1"
     inkscape:showpageshadow="2"
     inkscape:pagecheckerboard="0"
     inkscape:deskcolor="#d1d1d1" /><metadata
     id="metadata6748"><rdf:RDF><cc:Work
         rdf:about=""><dc:format>image/svg+xml</dc:format><dc:type
           rdf:resource="http://purl.org/dc/dcmitype/StillImage" /></cc:Work></rdf:RDF></metadata><g
     inkscape:label="Layer 1"
     inkscape:groupmode="layer"
     id="layer1"><path
       style="fill:#ffffff;stroke-width:0.368954"
       d="M 33.120342,63.798589 C 9.0915109,62.937926 -0.1784412,60.774825 2.5190608,56.657917 3.7382662,54.797173 15.984904,52.373832 26.065671,51.998554 27.694317,51.937924 25.876214,51.640783 18.487365,50.759989 3.8405252,49.013998 -0.2555332,47.205354 2.6454454,43.764884 4.0253954,42.128306 9.626634,40.834389 19.837982,39.793314 25.015173,39.265485 24.805397,39.158705 16.332916,38.009183 2.6065812,36.146831 -1.0529366,33.970849 3.5880693,30.430979 4.9710481,29.376131 10.590233,28.173905 18.28223,27.287161 23.633413,26.67027 23.491753,26.430503 17.332838,25.680272 -3.6327857,23.126407 -3.2278447,16.601157 18.021659,14.580549 21.865256,14.215062 21.947505,13.829966 18.289128,13.328231 3.8589445,11.349179 -0.3063818,9.1832756 3.5253537,5.6513062 8.8179187,0.77278985 57.790175,-1.517889 60.981417,2.9637966 63.369792,6.3179602 62.029926,6.8174104 50.401889,6.9074408 28.695102,7.0755058 25.068963,7.6186471 38.654658,8.6670007 c 19.194256,1.4811423 22.238804,2.1397073 22.947927,4.9638603 0.776543,3.092644 -3.037328,4.171742 -20.457485,5.788251 -8.572338,0.795473 -8.755215,0.989787 -1.475818,1.568116 16.333332,1.29764 21.036715,2.379658 22.006921,5.062718 1.13853,3.148552 -3.748846,4.60908 -22.283637,6.659168 -2.58268,0.285667 -2.58268,0.285667 0.737909,0.576775 14.70535,1.289193 20.085738,2.514675 21.350359,4.862933 1.803463,3.348833 -1.671729,4.73809 -17.29186,6.912667 -3.32059,0.462278 -3.32059,0.462278 1.794756,1.117143 19.576282,2.506137 22.506069,7.395122 6.229697,10.395605 -4.703863,0.867136 -4.703863,0.867136 1.284056,1.147435 6.072105,0.284239 8.58578,1.263495 8.58578,3.344781 0,3.087082 -5.243529,3.581717 -28.962921,2.732136 z m 21.687789,-2.157497 c 6.467849,-1.654199 6.613818,-2.97223 0.329174,-2.97223 -2.147181,0 -7.479684,-0.181138 -11.850001,-0.402533 -9.949154,-0.504002 -21.880055,0.362155 -17.725314,1.286825 3.323068,0.739572 20.450243,2.650767 24.747952,2.761583 0.931433,0.02402 2.955617,-0.279122 4.498189,-0.673645 z M 4.8953294,58.677658 C 6.2405673,58.306752 18.398276,56.695598 36.983479,54.425289 62.157618,51.350102 65.401594,50.027415 52.674926,48.027313 45.912032,46.96447 30.361448,45.634209 27.126618,45.841808 c -2.829519,0.18159 -4.277529,0.821079 -2.637832,1.16496 0.485931,0.101913 4.776775,0.946652 9.535206,1.877206 8.303762,1.623871 9.189718,1.843758 8.83958,2.193895 -0.185418,0.185414 -7.954259,1.001139 -19.520522,2.049645 -16.587527,1.503692 -20.661447,2.539746 -20.661447,5.25449 0,0.746782 0.3890656,0.798742 2.2137264,0.295654 z M 7.1090557,45.555016 C 8.6309932,45.268863 18.675776,43.941399 29.430797,42.605094 55.590798,39.354735 60.872849,38.43042 59.666612,37.314078 57.386871,35.204245 22.236186,32.04566 22.236186,33.950638 c 0,0.258415 10.046382,2.307913 16.418472,3.349427 4.733847,0.773745 4.222351,1.224349 -2.02925,1.787672 C 8.9526586,41.581282 5.044304,42.196732 3.2361927,44.345552 2.2187518,45.554711 2.5410144,46.768641 3.7553392,46.301123 4.0779463,46.176919 5.5871189,45.841171 7.1090557,45.555016 Z M 6.8710323,32.845269 C 8.9297327,32.441186 16.591184,31.355641 23.896481,30.432946 51.64493,26.928177 54.586367,26.540241 57.014655,26.065104 63.976545,24.702887 58.565884,23.403952 39.20809,21.79029 34.236429,21.375853 28.757455,20.863078 27.032594,20.650789 23.883373,20.263196 21.0911,20.53119 21.092011,21.220951 c 5.53e-4,0.415901 1.290512,0.702392 11.659376,2.589458 9.55282,1.738553 9.681788,1.888062 2.213726,2.566349 -23.151145,2.102702 -29.7691828,3.2411 -31.8609721,5.480543 -1.6768217,1.795185 -1.1070392,1.944626 3.7668914,0.987968 z M 6.0354122,20.338298 C 10.239589,19.266139 20.34508,17.84102 40.314953,15.504056 66.612433,12.426605 66.455727,11.774234 38.839134,9.3602412 14.207246,7.2071456 13.873075,8.2427572 37.872567,12.355684 c 2.526665,0.433009 0.936498,0.850867 -5.490134,1.442672 -23.0304333,2.120789 -29.6545045,3.591272 -29.692626,6.591488 -0.01016,0.800008 0.00755,0.799736 3.3456052,-0.05154 z M 4.8934909,7.9029355 C 10.185189,6.0606308 30.901771,3.6628601 52.787177,2.3596416 61.355301,1.8494327 56.568549,1.3682825 43.007445,1.3766121 22.241083,1.3893668 6.636869,3.3278918 3.6496105,6.2660678 1.5995494,8.2824459 2.0606283,8.8891968 4.8934909,7.9029355 Z"
       id="path314" /></g></svg>
