<?xml version="1.0" encoding="UTF-8" standalone="no"?>
<svg
   width="64mm"
   height="64mm"
   viewBox="0 0 64 64"
   version="1.1"
   id="svg6751"
   inkscape:version="1.2.2 (732a01da63, 2022-12-09)"
   sodipodi:docname="icon_linear_motor.svg"
   xml:space="preserve"
   xmlns:inkscape="http://www.inkscape.org/namespaces/inkscape"
   xmlns:sodipodi="http://sodipodi.sourceforge.net/DTD/sodipodi-0.dtd"
   xmlns="http://www.w3.org/2000/svg"
   xmlns:svg="http://www.w3.org/2000/svg"
   xmlns:rdf="http://www.w3.org/1999/02/22-rdf-syntax-ns#"
   xmlns:cc="http://creativecommons.org/ns#"
   xmlns:dc="http://purl.org/dc/elements/1.1/"><defs
     id="defs6745" /><sodipodi:namedview
     id="base"
     pagecolor="#303030"
     bordercolor="#666666"
     borderopacity="1.0"
     inkscape:pageopacity="0"
     inkscape:pageshadow="2"
     inkscape:zoom="1.8201181"
     inkscape:cx="95.598192"
     inkscape:cy="143.9467"
     inkscape:document-units="mm"
     inkscape:current-layer="layer1"
     inkscape:document-rotation="0"
     showgrid="false"
     inkscape:window-width="1920"
     inkscape:window-height="1009"
     inkscape:window-x="1912"
     inkscape:window-y="-8"
     inkscape:window-maximized="1"
     inkscape:showpageshadow="2"
     inkscape:pagecheckerboard="0"
     inkscape:deskcolor="#d1d1d1" /><metadata
     id="metadata6748"><rdf:RDF><cc:Work
         rdf:about=""><dc:format>image/svg+xml</dc:format><dc:type
           rdf:resource="http://purl.org/dc/dcmitype/StillImage" /></cc:Work></rdf:RDF></metadata><g
     inkscape:label="Layer 1"
     inkscape:groupmode="layer"
     id="layer1"><path
       id="path578"
       style="color:#000000;fill:#ffffff;stroke-width:0.0677961;stroke-linecap:round;stroke-linejoin:round;-inkscape-stroke:none"
       d="M 6.5028484,11.775891 6.0108887,14.62688 v 7.078121 l 3.4411335,0.49196 v 2.064473 H 6.4041464 v 1.867586 h 2.8509888 v 2.261361 h -2.949174 v 1.474329 l 3.047876,0.393257 0.098185,2.261361 H 6.5028484 v 7.078121 l 4.4235026,2.359546 2.163175,3.539319 h 11.993583 l 2.556434,-3.637504 7.909594,-2.119251 v 8.705929 l 7.035746,-1.885157 v -5.97948 l 2.407605,-2.407605 h 2.800346 V 33.010771 H 44.941846 L 42.484114,30.55304 v -6.095235 l -6.080249,-1.628842 v 2.415357 l -0.589111,0.15813 V 14.429993 l -2.563668,-2.563668 z"
       sodipodi:nodetypes="ccccccccccccccccccccccccccccccccccc" /><path
       id="path578-5"
       style="color:#000000;fill:#ffffff;stroke-width:0.111803;stroke-linecap:round;stroke-linejoin:round;-inkscape-stroke:none"
       d="m 58.989735,32.878446 c 0,0 -5.371307,0.101396 -8.007409,0.135496 -0.233772,0.03501 -0.473044,0.146098 -0.669336,0.585774 -0.158037,0.367986 -0.212139,1.036224 -0.218098,1.619162 -0.02127,0.919572 0.100221,1.900816 0.347617,2.410816 0.123772,0.265694 0.417132,0.348586 0.417132,0.348586 h 8.175993 c 0,0 0.0069,1.570236 0.01111,2.149118 1.103638,-1.616406 2.207276,-3.232812 3.310913,-4.849218 -1.126261,-1.491668 -2.252522,-2.983334 -3.378784,-4.475 0.0046,0.298288 0.01086,2.075266 0.01086,2.075266 z"
       sodipodi:nodetypes="ccccccccccc" /></g></svg>
