<?xml version="1.0" encoding="UTF-8" standalone="no"?>
<!-- Svg Vector Icons : http://www.onlinewebfonts.com/icon -->

<svg
   version="1.1"
   x="0px"
   y="0px"
   viewBox="0 0 1100 1100"
   enable-background="new 0 0 1000 1000"
   xml:space="preserve"
   id="svg4"
   sodipodi:docname="icon_groups_x96.svg"
   inkscape:version="1.1.2 (0a00cf5339, 2022-02-04)"
   width="1100"
   height="1100"
   xmlns:inkscape="http://www.inkscape.org/namespaces/inkscape"
   xmlns:sodipodi="http://sodipodi.sourceforge.net/DTD/sodipodi-0.dtd"
   xmlns="http://www.w3.org/2000/svg"
   xmlns:svg="http://www.w3.org/2000/svg"><defs
   id="defs4" /><sodipodi:namedview
   id="namedview4"
   pagecolor="#ffffff"
   bordercolor="#666666"
   borderopacity="1.0"
   inkscape:showpageshadow="2"
   inkscape:pageopacity="0.0"
   inkscape:pagecheckerboard="true"
   inkscape:deskcolor="#d1d1d1"
   inkscape:zoom="0.57787729"
   inkscape:cx="304.56293"
   inkscape:cy="702.5713"
   inkscape:window-width="1920"
   inkscape:window-height="1043"
   inkscape:window-x="0"
   inkscape:window-y="183"
   inkscape:window-maximized="1"
   inkscape:current-layer="layer3"
   showgrid="false"
   inkscape:pageshadow="0" />
<metadata
   id="metadata1"> Svg Vector Icons : http://www.onlinewebfonts.com/icon </metadata>

<path
   style="fill:none;stroke:#fefefe;stroke-width:23.8991;stroke-linecap:butt;stroke-linejoin:miter;stroke-dasharray:none;stroke-opacity:1"
   d="M 236.93913,11.431909 H 11.440965 V 227.66303"
   id="path26"
   sodipodi:nodetypes="ccc" /><path
   style="fill:none;stroke:#fefefe;stroke-width:23.8991;stroke-linecap:butt;stroke-linejoin:miter;stroke-dasharray:none;stroke-opacity:1"
   d="M 238.21066,1086.5987 H 12.71249 V 870.3676"
   id="path27"
   sodipodi:nodetypes="ccc" /><path
   style="fill:none;stroke:#fefefe;stroke-width:23.8991;stroke-linecap:butt;stroke-linejoin:miter;stroke-dasharray:none;stroke-opacity:1"
   d="M 862.11738,13.235462 H 1087.6156 V 229.46659"
   id="path28"
   sodipodi:nodetypes="ccc" /><path
   style="fill:none;stroke:#fefefe;stroke-width:23.8991;stroke-linecap:butt;stroke-linejoin:miter;stroke-dasharray:none;stroke-opacity:1"
   d="M 862.29542,1086.5987 H 1087.7936 V 870.3676"
   id="path29"
   sodipodi:nodetypes="ccc" /><g
   inkscape:groupmode="layer"
   id="layer3"
   inkscape:label="Layer 1"><path
     style="fill:none;stroke:#ffffff;stroke-width:25.3087;stroke-linecap:butt;stroke-linejoin:miter;stroke-dasharray:none;stroke-opacity:1"
     d="M 513.59046,256.43528 407.38183,274.57685"
     id="path54" /><path
     style="fill:none;stroke:#ffffff;stroke-width:25.3087;stroke-linecap:butt;stroke-linejoin:miter;stroke-dasharray:none;stroke-opacity:1"
     d="M 507.96668,213.66403 401.75806,231.8056"
     id="path55" /><g
     id="g3"
     transform="matrix(2.8121091,0.60264535,-0.60264535,2.8121091,-566.83982,-512.90022)"
     style="fill:#ffffff;fill-opacity:1"><path
       id="path8"
       style="fill:#ffffff;fill-opacity:1;stroke-width:12.6605;stroke-linecap:square;stroke-linejoin:round;paint-order:markers stroke fill"
       d="m -214.08574,314.75349 a 48.682457,48.682457 0 0 0 0.49018,-6.89398 l -0.0243,-1.52183 a 48.682457,48.682457 0 0 0 -49.79983,-47.14737 48.682457,48.682457 0 0 0 -47.53447,49.43048 48.682457,48.682457 0 0 0 49.0574,47.91954 48.682457,48.682457 0 0 0 47.81107,-41.78684 z m -16.57818,-12.17748 a 20.628683,20.628683 0 0 1 -23.37649,17.26243 l -0.63644,-0.10411 a 20.628683,20.628683 0 0 1 -16.70807,-23.77558 20.628683,20.628683 0 0 1 23.64344,-16.8927 20.628683,20.628683 0 0 1 17.07756,23.50996 z"
       transform="rotate(-100.12561)" /></g><g
     id="g4"
     transform="matrix(1.9859312,0.89814262,-0.89814262,1.9859312,57.033996,-500.7521)"
     style="fill:#ffffff;fill-opacity:1"><path
       id="path2"
       style="fill:#ffffff;fill-opacity:1;stroke-width:12.6605;stroke-linecap:square;stroke-linejoin:round;paint-order:markers stroke fill"
       d="m -214.08604,314.75391 a 48.682457,48.682457 0 0 0 0.49102,-6.89342 l -0.0249,-1.52419 a 48.682457,48.682457 0 0 0 -49.80046,-47.14673 48.682457,48.682457 0 0 0 -47.53442,49.43052 48.682457,48.682457 0 0 0 49.05739,47.91975 48.682457,48.682457 0 0 0 47.81138,-41.78593 z m -16.57709,-12.17799 a 20.628683,20.628683 0 0 1 -23.37783,17.2617 l -0.63705,-0.10297 a 20.628683,20.628683 0 0 1 -16.70803,-23.77593 20.628683,20.628683 0 0 1 23.64344,-16.89374 20.628683,20.628683 0 0 1 17.07947,23.51094 z"
       transform="rotate(-100.12561)" /></g><g
     id="g20"
     transform="matrix(2.027247,0.80053267,-0.80053267,2.027247,-377.80715,-140.34977)"
     style="fill:#ffffff;fill-opacity:1"><path
       id="path15"
       style="fill:#ffffff;fill-opacity:1;stroke-width:12.6605;stroke-linecap:square;stroke-linejoin:round;paint-order:markers stroke fill"
       d="m -214.08635,314.75398 a 48.682457,48.682457 0 0 0 0.49133,-6.89516 l -0.0252,-1.52245 a 48.682457,48.682457 0 0 0 -49.80046,-47.14673 48.682457,48.682457 0 0 0 -47.53442,49.43052 48.682457,48.682457 0 0 0 49.05739,47.91975 48.682457,48.682457 0 0 0 47.81138,-41.78593 z M -230.66344,302.576 a 20.628683,20.628683 0 0 1 -23.37608,17.262 l -0.63705,-0.10296 a 20.628683,20.628683 0 0 1 -16.70977,-23.77624 20.628683,20.628683 0 0 1 23.64518,-16.89344 20.628683,20.628683 0 0 1 17.07772,23.51064 z"
       transform="rotate(-100.12561)" /></g><g
     id="g22"
     transform="matrix(2.026238,0.54898185,-0.54898185,2.026238,156.89579,-116.39979)"
     style="fill:#ffffff;fill-opacity:1;stroke:#ffffff;stroke-opacity:1"><path
       id="path21"
       style="fill:#ffffff;fill-opacity:1;stroke:#ffffff;stroke-width:12.6605;stroke-linecap:square;stroke-linejoin:round;stroke-opacity:1;paint-order:markers stroke fill"
       d="m -214.0861,314.75372 a 48.682457,48.682457 0 0 0 0.49102,-6.89342 l -0.0252,-1.52244 a 48.682457,48.682457 0 0 0 -49.80047,-47.14673 48.682457,48.682457 0 0 0 -47.5341,49.42877 48.682457,48.682457 0 0 0 49.05739,47.91975 48.682457,48.682457 0 0 0 47.81137,-41.78593 z m -16.57709,-12.17798 a 20.628683,20.628683 0 0 1 -23.37783,17.26169 l -0.6353,-0.10265 a 20.628683,20.628683 0 0 1 -16.70977,-23.77624 20.628683,20.628683 0 0 1 23.64518,-16.89344 20.628683,20.628683 0 0 1 17.07772,23.51064 z"
       transform="rotate(-100.12561)" /></g><g
     id="g24"
     transform="matrix(1.5440104,1.4223408,-1.4223408,1.5440104,696.57288,-122.89516)"
     style="fill:#ffffff;fill-opacity:1"><path
       id="path23"
       style="fill:#ffffff;fill-opacity:1;stroke-width:12.6605;stroke-linecap:square;stroke-linejoin:round;paint-order:markers stroke fill"
       d="m -214.08554,314.75413 a 48.682457,48.682457 0 0 0 0.48958,-6.89547 l -0.0235,-1.52214 a 48.682457,48.682457 0 0 0 -49.80046,-47.14672 48.682457,48.682457 0 0 0 -47.53442,49.43051 48.682457,48.682457 0 0 0 49.05739,47.91975 48.682457,48.682457 0 0 0 47.81138,-41.78593 z m -16.57884,-12.1783 a 20.628683,20.628683 0 0 1 -23.37608,17.26201 l -0.63705,-0.10296 a 20.628683,20.628683 0 0 1 -16.70802,-23.77593 20.628683,20.628683 0 0 1 23.64343,-16.89375 20.628683,20.628683 0 0 1 17.07772,23.51063 z"
       transform="rotate(-100.12561)" /></g><g
     id="g26"
     transform="matrix(2.0163408,0.58428699,-0.58428699,2.0163408,312.88802,317.93734)"
     style="fill:#ffffff;fill-opacity:1"><path
       id="path25"
       style="fill:#ffffff;fill-opacity:1;stroke-width:12.6605;stroke-linecap:square;stroke-linejoin:round;paint-order:markers stroke fill"
       d="m -214.08625,314.75265 a 48.682457,48.682457 0 0 0 0.49102,-6.89342 l -0.0235,-1.52213 a 48.682457,48.682457 0 0 0 -49.80047,-47.14673 48.682457,48.682457 0 0 0 -47.53616,49.43021 48.682457,48.682457 0 0 0 49.05739,47.91974 48.682457,48.682457 0 0 0 47.81169,-41.78767 z m -16.5774,-12.17624 a 20.628683,20.628683 0 0 1 -23.37609,17.26201 l -0.63673,-0.10471 a 20.628683,20.628683 0 0 1 -16.70834,-23.77419 20.628683,20.628683 0 0 1 23.64344,-16.89374 20.628683,20.628683 0 0 1 17.07772,23.51063 z"
       transform="rotate(-100.12561)" /></g><g
     id="g38"
     transform="matrix(2.3974792,0.7712942,-0.7712942,2.3974792,-264.98067,90.683161)"
     style="fill:#ffffff;fill-opacity:1"><path
       id="path37"
       style="fill:#ffffff;fill-opacity:1;stroke-width:12.6605;stroke-linecap:square;stroke-linejoin:round;paint-order:markers stroke fill"
       d="m -214.08574,314.75342 a 48.682457,48.682457 0 0 0 0.48962,-6.89338 l -0.0237,-1.52317 a 48.682457,48.682457 0 0 0 -49.7998,-47.14638 48.682457,48.682457 0 0 0 -47.53515,49.43019 48.682457,48.682457 0 0 0 49.05672,47.92023 48.682457,48.682457 0 0 0 47.81228,-41.78749 z m -16.57807,-12.17636 a 20.628683,20.628683 0 0 1 -23.37678,17.26147 l -0.63574,-0.10453 a 20.628683,20.628683 0 0 1 -16.70858,-23.77485 20.628683,20.628683 0 0 1 23.6429,-16.89424 20.628683,20.628683 0 0 1 17.0782,23.51215 z"
       transform="rotate(-100.12561)" /></g><g
     id="g50"
     transform="matrix(2.3560244,0.71723899,-0.71723899,2.3560244,91.985334,0.37876663)"
     style="fill:#ffffff;fill-opacity:1"><path
       id="path49"
       style="fill:#ffffff;fill-opacity:1;stroke-width:12.6605;stroke-linecap:square;stroke-linejoin:round;paint-order:markers stroke fill"
       d="m -214.08694,314.75399 a 48.682457,48.682457 0 0 0 0.49145,-6.89442 l -0.0244,-1.52235 a 48.682457,48.682457 0 0 0 -49.79996,-47.14607 48.682457,48.682457 0 0 0 -47.53429,49.42978 48.682457,48.682457 0 0 0 49.05717,47.91901 48.682457,48.682457 0 0 0 47.80999,-41.78595 z m -16.57694,-12.17742 a 20.628683,20.628683 0 0 1 -23.37691,17.26135 l -0.637,-0.10302 a 20.628683,20.628683 0 0 1 -16.70822,-23.77544 20.628683,20.628683 0 0 1 23.64443,-16.89431 20.628683,20.628683 0 0 1 17.0777,23.51142 z"
       transform="rotate(-100.12561)" /></g><path
     style="fill:#000000;fill-opacity:1;stroke:#ffffff;stroke-width:68.4478;stroke-linecap:butt;stroke-linejoin:miter;stroke-dasharray:none;stroke-opacity:1"
     d="M 256.07682,362.69327 196.74967,483.26459"
     id="path51" /><path
     style="fill:none;stroke:#ffffff;stroke-width:65.9263;stroke-linecap:butt;stroke-linejoin:miter;stroke-dasharray:none;stroke-opacity:1"
     d="M 478.68121,821.70054 688.01072,745.73398"
     id="path53"
     sodipodi:nodetypes="cc" /><path
     style="fill:none;stroke:#ffffff;stroke-width:65.9263;stroke-linecap:butt;stroke-linejoin:miter;stroke-dasharray:none;stroke-opacity:1"
     d="M 760.98377,629.70511 746.15573,521.06504"
     id="path56"
     sodipodi:nodetypes="cc" /><path
     style="fill:none;stroke:#ffffff;stroke-width:65.9263;stroke-linecap:butt;stroke-linejoin:miter;stroke-dasharray:none;stroke-opacity:1"
     d="M 863.28763,869.03124 799.7629,779.66038"
     id="path57"
     sodipodi:nodetypes="cc" /></g></svg>
