<?xml version="1.0" encoding="UTF-8" standalone="no"?>
<svg
   viewBox="0 0 96 96"
   version="1.1"
   id="svg1"
   sodipodi:docname="icon_object_x96.svg"
   width="96"
   height="96"
   inkscape:version="1.3.2 (091e20ef0f, 2023-11-25, custom)"
   xmlns:inkscape="http://www.inkscape.org/namespaces/inkscape"
   xmlns:sodipodi="http://sodipodi.sourceforge.net/DTD/sodipodi-0.dtd"
   xmlns="http://www.w3.org/2000/svg"
   xmlns:svg="http://www.w3.org/2000/svg">
  <defs
     id="defs1" />
  <sodipodi:namedview
     id="namedview1"
     pagecolor="#808080"
     bordercolor="#666666"
     borderopacity="1.0"
     inkscape:showpageshadow="2"
     inkscape:pageopacity="0.0"
     inkscape:pagecheckerboard="0"
     inkscape:deskcolor="#d1d1d1"
     inkscape:zoom="6.75"
     inkscape:cx="46.518519"
     inkscape:cy="50.074074"
     inkscape:window-width="2524"
     inkscape:window-height="1050"
     inkscape:window-x="36"
     inkscape:window-y="0"
     inkscape:window-maximized="1"
     inkscape:current-layer="svg1" />
  <!--!Font Awesome Free 6.5.2 by @fontawesome - https://fontawesome.com License - https://fontawesome.com/license/free Copyright 2024 Fonticons, Inc.-->
  <path
     d="m 44.052734,2.0464842 c 2.551954,-0.9179688 5.342579,-0.9179688 7.912891,0 l 35.25,12.5945318 C 91.878906,16.311719 95,20.736328 95,25.711719 v 44.576562 c 0,4.957032 -3.121094,9.4 -7.802734,11.070704 l -35.25,12.594531 c -2.551953,0.917969 -5.342578,0.917969 -7.912891,0 l -35.25,-12.594531 C 4.1210938,79.688281 1,75.263672 1,70.288281 V 25.711719 c 0,-4.957031 3.1210938,-9.4 7.8027344,-11.070703 z M 48,13.117188 16.109766,24.5 48,35.882813 79.890234,24.5 Z M 53.875,80.789844 83.25,70.306641 V 35.791016 L 53.875,46.274219 Z"
     id="path1"
     style="stroke-width:0.183594;fill:#ffffff" />
</svg>
