<?xml version="1.0" encoding="UTF-8" standalone="no"?>
<svg
   width="64mm"
   height="64mm"
   viewBox="0 0 64 64"
   version="1.1"
   id="svg6751"
   inkscape:version="1.2.2 (732a01da63, 2022-12-09)"
   sodipodi:docname="icon_rotary_motor.svg"
   xml:space="preserve"
   xmlns:inkscape="http://www.inkscape.org/namespaces/inkscape"
   xmlns:sodipodi="http://sodipodi.sourceforge.net/DTD/sodipodi-0.dtd"
   xmlns="http://www.w3.org/2000/svg"
   xmlns:svg="http://www.w3.org/2000/svg"
   xmlns:rdf="http://www.w3.org/1999/02/22-rdf-syntax-ns#"
   xmlns:cc="http://creativecommons.org/ns#"
   xmlns:dc="http://purl.org/dc/elements/1.1/"><defs
     id="defs6745" /><sodipodi:namedview
     id="base"
     pagecolor="#303030"
     bordercolor="#666666"
     borderopacity="1.0"
     inkscape:pageopacity="0"
     inkscape:pageshadow="2"
     inkscape:zoom="2.6913087"
     inkscape:cx="144.16778"
     inkscape:cy="124.47476"
     inkscape:document-units="mm"
     inkscape:current-layer="layer1"
     inkscape:document-rotation="0"
     showgrid="false"
     inkscape:window-width="1920"
     inkscape:window-height="1009"
     inkscape:window-x="1912"
     inkscape:window-y="-8"
     inkscape:window-maximized="1"
     inkscape:showpageshadow="2"
     inkscape:pagecheckerboard="0"
     inkscape:deskcolor="#d1d1d1" /><metadata
     id="metadata6748"><rdf:RDF><cc:Work
         rdf:about=""><dc:format>image/svg+xml</dc:format><dc:type
           rdf:resource="http://purl.org/dc/dcmitype/StillImage" /></cc:Work></rdf:RDF></metadata><g
     inkscape:label="Layer 1"
     inkscape:groupmode="layer"
     id="layer1"><path
       id="path578"
       style="color:#000000;fill:#ffffff;stroke-width:0.0677961;stroke-linecap:round;stroke-linejoin:round;-inkscape-stroke:none"
       d="M 6.5028484,11.775891 6.0108887,14.62688 v 7.078121 l 3.4411335,0.49196 v 2.064473 H 6.4041464 v 1.867586 h 2.8509888 v 2.261361 h -2.949174 v 1.474329 l 3.047876,0.393257 0.098185,2.261361 H 6.5028484 v 7.078121 l 4.4235026,2.359546 2.163175,3.539319 h 11.993583 l 2.556434,-3.637504 7.909594,-2.119251 v 8.705929 l 7.035746,-1.885157 v -5.97948 l 2.407605,-2.407605 h 2.800346 V 33.010771 H 44.941846 L 42.484114,30.55304 v -6.095235 l -6.080249,-1.628842 v 2.415357 l -0.589111,0.15813 V 14.429993 l -2.563668,-2.563668 z m 46.5000036,7.879623 c -0.0282,6.2e-4 -0.05657,0.002 -0.08475,0.0047 -0.639397,0.05026 -1.274438,0.600424 -1.842782,1.604036 -0.0877,0.153693 -0.174194,0.31876 -0.258899,0.492476 -0.680427,1.40673 -1.253427,3.496886 -1.636075,5.970695 -0.415486,2.683048 -0.611093,5.809939 -0.555005,8.913151 0.04443,2.554694 0.258492,5.074652 0.6196,7.297746 0.358003,2.21388 0.857712,4.127861 1.452625,5.538163 0.608684,1.444722 1.306287,2.364052 2.025199,2.649451 0.718958,0.288202 1.452792,-0.06058 2.11925,-1.013891 0.587818,-0.83358 1.123962,-2.13829 1.558045,-3.787883 0.53044,-2.009925 0.912439,-4.527168 1.092956,-7.246586 0.05604,-0.828296 0.09067,-1.676004 0.112138,-2.526978 0.01545,-0.223378 0.08767,-0.297118 0.144694,-0.267684 l 0.239262,0.0052 c -0.293243,-2.386098 -0.586806,-4.772122 -0.880049,-7.158219 l -0.839226,7.123079 c 0.102853,0.0067 0.206406,-0.0114 0.309025,0.02481 0.06354,0.07973 0.08042,0.36194 0.06666,0.572058 -0.03435,1.587699 -0.20149,3.092166 -0.425814,4.434871 -0.416299,2.456102 -1.033694,4.455068 -1.758549,5.660637 -0.20139,0.336224 -0.414022,0.590016 -0.63407,0.722953 -0.774252,0.513164 -1.601053,0.06243 -2.307352,-1.280025 -0.644141,-1.211939 -1.18782,-3.136042 -1.53324,-5.448763 -0.340739,-2.258252 -0.496858,-4.870712 -0.433049,-7.406783 0.06439,-2.676142 0.365748,-5.256594 0.854729,-7.24917 0.358363,-1.468813 0.808475,-2.655689 1.315165,-3.374988 0.579655,-0.813706 1.217419,-1.020594 1.839164,-0.799951 0.422161,0.150759 0.842487,0.501746 1.234033,1.123445 0.149845,0.24617 0.290212,0.569559 0.415479,0.958082 0.117642,0.330059 0.270967,0.559909 0.419096,0.441316 0.10783,-0.08295 0.214964,-0.312406 0.256831,-0.696081 0.0796,-0.638884 0.03113,-1.466182 -0.119372,-1.934249 -0.08447,-0.26155 -0.178907,-0.468599 -0.270785,-0.694015 -0.741255,-1.737643 -1.620787,-2.67075 -2.494938,-2.651517 z" /></g></svg>
