<?xml version="1.0" encoding="UTF-8" standalone="no"?>
<!-- Svg Vector Icons : http://www.onlinewebfonts.com/icon -->

<svg
   version="1.1"
   x="0px"
   y="0px"
   viewBox="0 0 1000 1000"
   enable-background="new 0 0 1000 1000"
   xml:space="preserve"
   id="svg583"
   sodipodi:docname="import_file.svg"
   inkscape:version="1.2.2 (732a01da63, 2022-12-09)"
   xmlns:inkscape="http://www.inkscape.org/namespaces/inkscape"
   xmlns:sodipodi="http://sodipodi.sourceforge.net/DTD/sodipodi-0.dtd"
   xmlns="http://www.w3.org/2000/svg"
   xmlns:svg="http://www.w3.org/2000/svg"><defs
   id="defs587" /><sodipodi:namedview
   id="namedview585"
   pagecolor="#353535"
   bordercolor="#000000"
   borderopacity="0.25"
   inkscape:showpageshadow="2"
   inkscape:pageopacity="0"
   inkscape:pagecheckerboard="0"
   inkscape:deskcolor="#595959"
   showgrid="false"
   inkscape:zoom="0.58619152"
   inkscape:cx="47.765959"
   inkscape:cy="580.01521"
   inkscape:window-width="1920"
   inkscape:window-height="1009"
   inkscape:window-x="-8"
   inkscape:window-y="-8"
   inkscape:window-maximized="1"
   inkscape:current-layer="svg583" />
<metadata
   id="metadata575"> Svg Vector Icons : http://www.onlinewebfonts.com/icon </metadata>
<g
   id="g581"
   transform="matrix(0.45931308,0,0,0.45931308,-18.478934,-45.362665)"><path
     fill="#ffffff"
     d="m 133.06475,202.44925 c -3.4,-14.7 10.9,-31 26.7,-35.7 32.3,-9.5 65.7,-14.3 99,-14.3 179.9,0 366.4,170.5 397.2,354.2 h 6.2 c 2,0 4.1,0.2 6.1,0.5 l 2.6,0.4 c 13,1.9 43.5,6.4 62.2,36.2 7.5,12 11.3,25.1 11.3,38.8 0,16.7 -5.7,30.2 -10.5,38.7 -0.9,1.6 -2,3.2 -3.2,4.7 l -141.6,179.3 c -14.9,19.6 -39.2,31.6 -64.6,31.6 -25.4,0 -49.7,-12 -65,-32.1 l -141.3,-178.9 c -10.1,-13 -15.5,-28.5 -15.5,-44 0,-13.6 4,-26.8 11.8,-39.2 15.1,-24 39.4,-36.1 72.4,-36 h 1.3 c -13.3,-119 -118.8,-251.1 -218.7,-280.4 -15.9,-4.7 -36.4,-14.7 -36.4,-23.8 z m 526.3,378.5 h -36.6 c -19.7,0 -36,-15.4 -37.1,-35.1 -8,-141.4 -148.4,-290.2 -286.9,-315.4 95.3,75.1 172.6,198.1 164.3,315.8 -1.3,19.5 -17.5,34.7 -37.1,34.7 h -39.4 c -5.3,0 -7.6,0.4 -8.6,0.7 l 140.2,177.4 c 1.7,2.3 3.9,3.3 6.2,3.3 2.3,0 4.5,-1 5.8,-2.8 l 139.4,-176.5 c -2,-1 -6.9,-1.7 -9.6,-2.1 z"
     id="path577" /></g>
<g
   id="g10"
   transform="translate(196.42672,132.92053)"
   style="fill:#ffffff"><g
     transform="matrix(0.1,0,0,-0.1,0,511)"
     id="g8"
     style="fill:#ffffff"><path
       id="path4"
       style="fill:#ffffff"
       d="m 3330.1078,5006.4905 -1575.4492,-10.2149 v -348.5742 l 1561.25,10.3906 2735.6836,-4.1015 38.8086,-49.2969 c 36.8999,-47.2 39.0039,-114.7945 39.0039,-2444.4922 V -1037.1033 H 4571.0062 V -2595.5017 H 2163.2914 c -1552.39845,0 -1609.78286,2.1039 -1654.88282,39.0039 l -49.19922,39.0039 -6.11328,3514.99998 c -0.75375,892.84082 -0.31014,397.32392 0.82031,938.04442 H 103.05702 c -1.7382,-536.2568 -2.85156,-32.6826 -2.85156,-913.4546 0,-3890.1961 -12.313908,-3590.797 145.58593,-3769.2969 45.09996,-49.1999 129.20162,-114.7937 186.60157,-143.5937 l 106.60156,-53.3008 H 2356.0062 4974.9906 l 121.0156,61.5039 1340.8985,1338.8867 43.0859,98.3985 -1.9922,3416.6992 c 0,2186.0978 -6.2008,2627.0024 -30.8008,2682.4023 -38.9999,94.2999 -186.5899,250.1962 -287.0898,303.4961 l -82.0117,45.1172 z M 4919.6,-1385.7947 6129.4047,-1400.0916 4946.2992,-2574.9939 Z"
       sodipodi:nodetypes="ccccccscccscccccsccccccccccccccccc" /></g></g><g
   aria-label=".PDB"
   transform="scale(1.0083194,0.99174928)"
   id="text351"
   style="font-size:190.416px;font-family:HYGothic-Extra;-inkscape-font-specification:HYGothic-Extra;text-align:center;text-anchor:middle;fill:#ffffff;stroke-width:39.67"><path
     d="M 348.8585,317.46777 H 299.45697 V 367.2007 H 348.8585 Z"
     id="path614"
     sodipodi:nodetypes="ccccc" /><path
     d="m 396.89641,314.76192 h 32.9137 q 24.73177,0 36.81872,-18.40936 8.18194,-12.64481 8.36789,-28.07892 0,-21.75651 -11.71505,-34.21537 -11.901,-12.64482 -32.35584,-12.64482 H 367.14391 V 367.2007 h 29.7525 z m 0,-24.91772 v -43.32707 h 22.68628 q 13.38862,0 19.52508,4.83478 6.3224,4.83478 6.3224,15.62006 0,8.7398 -2.78929,13.76053 -5.20669,9.1117 -19.33913,9.1117 z"
     id="path616" /><path
     d="m 502.51778,367.2007 h 61.73644 q 31.24013,0 46.67424,-26.40534 11.901,-20.26889 11.901,-49.83544 0,-27.14915 -10.97124,-45.18661 -14.87625,-24.35986 -46.67423,-24.35986 h -62.66621 z m 29.19464,-120.68357 h 28.07893 q 13.57457,0 21.0127,7.06621 11.52909,10.97124 11.52909,39.60802 0,20.6408 -7.06622,33.47156 -8.18193,15.62007 -24.73176,15.62007 h -28.82274 z"
     id="path618" /><path
     d="M 653.32575,367.2007 H 715.806 q 19.71103,0 29.93845,-3.5331 7.62408,-2.60335 14.50434,-9.48361 5.76455,-5.5786 8.92575,-13.38863 3.53311,-8.18194 3.53311,-16.73578 0,-12.45886 -4.64883,-20.6408 -5.57859,-10.04147 -17.47959,-14.31839 v -0.18595 q 7.25217,-3.90502 10.78528,-8.36789 6.50836,-8.18194 6.50836,-21.94247 0,-14.31839 -8.7398,-24.17391 -11.34314,-13.01672 -34.40132,-13.01672 h -71.406 z m 28.63678,-64.15382 h 39.97992 q 8.7398,0 14.31839,3.90501 6.69431,4.83478 6.69431,13.57458 0,11.15719 -5.9505,16.54983 -5.57859,5.20669 -16.73578,5.20669 h -38.30634 z m 0,-56.52975 h 36.0749 q 10.78528,0 15.80602,3.34715 5.76455,3.71906 5.76455,12.64482 0,7.99598 -6.13646,12.2729 -5.39264,3.90502 -14.50434,3.90502 h -37.00467 z"
     id="path620" /></g><g
   aria-label=".SDF"
   transform="scale(1.0083194,0.99174928)"
   id="text351-9"
   style="font-size:190.416px;font-family:HYGothic-Extra;-inkscape-font-specification:HYGothic-Extra;text-align:center;text-anchor:middle;fill:#ffffff;stroke-width:39.67"><path
     d="m 354.54831,498.42126 h -49.40153 v 49.73294 h 49.40153 z"
     id="path605"
     sodipodi:nodetypes="ccccc" /><path
     d="m 367.99894,503.33949 q 0,18.22341 10.97123,30.68227 15.43411,17.66555 49.83544,17.66555 18.22341,0 32.5418,-7.43813 23.43009,-12.08695 23.43009,-39.79397 0,-18.2234 -11.52909,-27.89297 -8.36789,-7.06622 -25.66154,-11.15718 l -34.77323,-8.92576 -0.37191,-0.18595 q -6.69431,-1.85953 -9.66956,-4.09097 -5.02073,-3.71906 -5.02073,-10.78528 0,-8.92575 8.18193,-13.57458 6.69432,-3.71906 16.54983,-3.71906 16.73578,0 24.17391,8.36789 4.09097,4.83478 5.20669,13.20267 h 28.07892 q -0.37191,-17.47959 -11.5291,-30.1244 -14.87625,-16.92174 -43.69898,-16.92174 -30.49631,0 -44.62875,16.36388 -10.04147,11.71504 -9.85552,28.45083 0,11.34314 3.71907,19.33912 3.34715,7.06622 10.22742,11.901 5.57859,3.90502 14.31839,6.88027 5.39264,1.67358 16.92173,4.46287 l 15.24816,3.90502 q 13.20267,2.78929 18.40936,5.76454 7.25217,4.27693 7.25217,12.08696 0,10.22742 -9.66956,14.87625 -7.43813,3.53311 -19.89699,3.53311 -17.47959,0 -25.10367,-8.55385 -5.02073,-5.57859 -5.20668,-14.31839 z"
     id="path607" /><path
     d="M 516.20357,548.1542 H 577.94 q 31.24013,0 46.67424,-26.40535 11.901,-20.26889 11.901,-49.83544 0,-27.14915 -10.97124,-45.18661 -14.87625,-24.35985 -46.67423,-24.35985 h -62.6662 z m 29.19464,-120.68358 h 28.07892 q 13.57458,0 21.0127,7.06622 11.5291,10.97123 11.5291,39.60801 0,20.6408 -7.06622,33.47156 -8.18194,15.62007 -24.73177,15.62007 h -28.82273 z"
     id="path609" /><path
     d="m 695.83429,486.97562 h 62.2943 v -25.66153 h -62.2943 v -33.09966 h 71.22005 V 402.36695 H 666.08179 V 548.1542 h 29.7525 z"
     id="path611" /></g><text
   xml:space="preserve"
   style="font-size:192px;font-family:HYGothic-Extra;-inkscape-font-specification:HYGothic-Extra;text-align:center;text-anchor:middle;fill:#ffffff;stroke-width:40"
   x="530.0177"
   y="575.23004"
   id="text351-3"><tspan
     id="tspan349-0"
     x="530.0177"
     y="575.23004"
     sodipodi:role="line" /></text><g
   aria-label=".MOL"
   transform="scale(1.0083194,0.99174928)"
   id="text459"
   style="font-size:190.416px;font-family:HYGothic-Extra;-inkscape-font-specification:HYGothic-Extra;text-align:center;text-anchor:middle;fill:#ffffff;stroke-width:39.67"><path
     d="m 349.32174,682.90777 h -49.40153 v 49.73294 h 49.40153 z"
     id="path596"
     sodipodi:nodetypes="ccccc" /><path
     d="m 501.86531,586.85346 h -42.76922 l -24.91772,110.2702 h -0.18595 L 408.14493,586.85346 H 364.6319 v 145.78725 h 27.70702 V 619.39525 h 0.55786 l 26.03343,113.24546 h 28.63678 l 26.5913,-113.24546 v 0 113.24546 h 27.70702 z"
     id="path598" /><path
     d="m 528.45659,659.74708 q 0,44.07089 26.77725,63.59597 17.66555,12.83077 40.90969,12.83077 23.05819,0 40.72374,-12.83077 26.9632,-19.52508 26.9632,-63.59597 0,-44.4428 -26.9632,-63.96787 -17.4796,-12.64482 -40.72374,-12.64482 -23.43009,0 -40.90969,12.64482 -26.77725,19.52507 -26.77725,63.96787 z m 29.56655,0 q 0,-27.33511 13.01672,-40.53778 10.04147,-10.04147 25.10367,-10.04147 14.87625,0 24.91772,10.04147 13.20267,13.20267 13.20267,40.53778 0,27.14916 -13.20267,40.16588 -10.04147,10.04147 -24.91772,10.04147 -15.0622,0 -25.10367,-10.04147 -13.01672,-13.01672 -13.01672,-40.16588 z"
     id="path600" /><path
     d="m 722.59165,586.85346 h -29.7525 v 145.78725 h 100.04278 v -26.40535 h -70.29028 z"
     id="path602" /></g></svg>
