<?xml version="1.0" encoding="UTF-8" standalone="no"?>
<!-- Svg Vector Icons : http://www.onlinewebfonts.com/icon -->

<svg
   version="1.1"
   x="0px"
   y="0px"
   viewBox="0 0 1000 1000"
   enable-background="new 0 0 1000 1000"
   xml:space="preserve"
   id="svg2"
   sodipodi:docname="export_x28.svg"
   inkscape:version="1.3.2 (091e20ef0f, 2023-11-25, custom)"
   xmlns:inkscape="http://www.inkscape.org/namespaces/inkscape"
   xmlns:sodipodi="http://sodipodi.sourceforge.net/DTD/sodipodi-0.dtd"
   xmlns="http://www.w3.org/2000/svg"
   xmlns:svg="http://www.w3.org/2000/svg"><defs
   id="defs2" /><sodipodi:namedview
   id="namedview2"
   pagecolor="#808080"
   bordercolor="#000000"
   borderopacity="0.25"
   inkscape:showpageshadow="2"
   inkscape:pageopacity="0.0"
   inkscape:pagecheckerboard="0"
   inkscape:deskcolor="#d1d1d1"
   inkscape:zoom="0.4265"
   inkscape:cx="-1.1723329"
   inkscape:cy="664.71278"
   inkscape:window-width="2516"
   inkscape:window-height="1057"
   inkscape:window-x="0"
   inkscape:window-y="0"
   inkscape:window-maximized="1"
   inkscape:current-layer="g2" />
<metadata
   id="metadata1"> Svg Vector Icons : http://www.onlinewebfonts.com/icon </metadata>
<g
   id="g2"><path
     fill="#ffffff"
     d="m 671.46137,676.5497 c 14.7,3.4 31,-10.9 35.7,-26.7 9.5,-32.3 14.3,-65.7 14.3,-99 0,-179.9 -170.5,-366.4 -354.2,-397.2 v -6.2 c 0,-2 -0.2,-4.1 -0.5,-6.1 l -0.4,-2.6 c -1.9,-13 -6.4,-43.499997 -36.2,-62.199997 -12,-7.5 -25.1,-11.3 -38.8,-11.3 -16.7,0 -30.2,5.7 -38.7,10.5 -1.6,0.9 -3.2,2 -4.7,3.2 L 68.661368,220.5497 c -19.599999,14.9 -31.599999,39.2 -31.599999,64.6 0,25.4 12,49.7 32.099999,65 l 178.900002,141.3 c 13,10.1 28.5,15.5 44,15.5 13.6,0 26.8,-4 39.2,-11.8 24,-15.1 36.1,-39.4 36,-72.4 v -1.3 c 119,13.3 251.1,118.8 280.4,218.7 4.7,15.9 14.7,36.4 23.8,36.4 z m -378.5,-526.3 v 36.6 c 0,19.7 15.4,36 35.1,37.1 141.4,8 290.2,148.4 315.4,286.9 -75.1,-95.3 -198.1,-172.6 -315.8,-164.3 -19.5,1.3 -34.7,17.5 -34.7,37.1 v 39.4 c 0,5.3 -0.4,7.6 -0.7,8.6 l -177.4,-140.2 c -2.3,-1.7 -3.3,-3.9 -3.3,-6.2 0,-2.3 1,-4.5 2.8,-5.8 l 176.5,-139.4 c 1,2 1.7,6.9 2.1,9.6 z"
     id="path1" /><path
     fill="white"
     d="M990,260.9v594.3c0,75.7-61.6,137.2-137.2,137.2H211.9c-75.7,0-137.2-61.6-137.2-137.2V570.4h78.4v284.8c0,32.4,26.4,58.8,58.8,58.8h640.8c32.4,0,58.8-26.4,58.8-58.8V260.9c0-32.4-26.4-58.8-58.8-58.8H625.3v-78.4h227.4C928.4,123.7,990,185.2,990,260.9z"
     id="path2" /></g>
</svg>
