<?xml version="1.0" encoding="UTF-8" standalone="no"?>
<svg
   id="Layer_1"
   data-name="Layer 1"
   viewBox="0 0 128 128"
   version="1.1"
   sodipodi:docname="risk-icon.svg"
   width="128"
   height="128"
   inkscape:version="1.4.1 (93de688d07, 2025-03-30)"
   xmlns:inkscape="http://www.inkscape.org/namespaces/inkscape"
   xmlns:sodipodi="http://sodipodi.sourceforge.net/DTD/sodipodi-0.dtd"
   xmlns="http://www.w3.org/2000/svg"
   xmlns:svg="http://www.w3.org/2000/svg"
   xmlns:rdf="http://www.w3.org/1999/02/22-rdf-syntax-ns#"
   xmlns:cc="http://creativecommons.org/ns#"
   xmlns:dc="http://purl.org/dc/elements/1.1/">
  <sodipodi:namedview
     id="namedview3"
     pagecolor="#ffffff"
     bordercolor="#000000"
     borderopacity="0.25"
     inkscape:showpageshadow="2"
     inkscape:pageopacity="0.0"
     inkscape:pagecheckerboard="0"
     inkscape:deskcolor="#d1d1d1"
     inkscape:zoom="2.6665885"
     inkscape:cx="-3.375099"
     inkscape:cy="84.56498"
     inkscape:window-width="2560"
     inkscape:window-height="1048"
     inkscape:window-x="0"
     inkscape:window-y="0"
     inkscape:window-maximized="1"
     inkscape:current-layer="Layer_1" />
  <defs
     id="defs1">
    <style
       id="style1">.cls-1{fill:#fec901;fill-rule:evenodd;}.cls-2{fill:#010101;}</style>
  </defs>
  <title
     id="title1">risk</title>
  <g
     id="g3"
     transform="translate(2.6300632,8.3747914)">
    <path
       d="m 2.5,85 43,-74.41 v 0 a 22.59,22.59 0 0 1 8,-8.35 15.72,15.72 0 0 1 16,0 22.52,22.52 0 0 1 7.93,8.38 l 0.23,0.44 42.08,73.07 a 20.91,20.91 0 0 1 3,10.84 16.44,16.44 0 0 1 -1.74,7.43 15.45,15.45 0 0 1 -5.74,6 21,21 0 0 1 -11.35,2.78 v 0 H 17.7 c -0.21,0 -0.43,0 -0.64,0 A 19,19 0 0 1 9.23,109.44 15.83,15.83 0 0 1 2.58,103.72 16.26,16.26 0 0 1 0,95.18 21.66,21.66 0 0 1 2.2,85.56 c 0.1,-0.2 0.2,-0.4 0.31,-0.59 z"
       id="path1" />
    <path
       class="cls-1"
       d="m 9.09,88.78 43,-74.38 c 5.22,-8.94 13.49,-9.2 18.81,0 l 42.32,73.49 c 4.12,6.79 2.41,15.9 -9.31,15.72 H 17.7 C 9.78,103.79 5,97.44 9.09,88.78 Z"
       id="path2" />
    <path
       class="cls-2"
       d="m 57.55,83.15 a 5.47,5.47 0 0 1 5.85,-1.22 5.65,5.65 0 0 1 2,1.3 5.49,5.49 0 0 1 1.6,3.54 5.12,5.12 0 0 1 -0.08,1.4 5.22,5.22 0 0 1 -0.42,1.34 5.51,5.51 0 0 1 -5.2,3.25 5.63,5.63 0 0 1 -2.26,-0.53 5.51,5.51 0 0 1 -2.81,-2.92 6,6 0 0 1 -0.33,-1.31 5.28,5.28 0 0 1 0,-1.31 v 0 a 6,6 0 0 1 0.56,-2 4.6,4.6 0 0 1 1.14,-1.56 z m 8.12,-10.21 c -0.19,4.78 -8.28,4.78 -8.46,0 -0.82,-8.19 -2.92,-27.63 -2.85,-35.32 0.07,-2.37 2,-3.78 4.55,-4.31 a 11.65,11.65 0 0 1 2.48,-0.25 12.54,12.54 0 0 1 2.5,0.25 c 2.59,0.56 4.63,2 4.63,4.43 V 38 l -2.84,35 z"
       id="path3" />
  </g>
  <metadata
     id="metadata3">
    <rdf:RDF>
      <cc:Work
         rdf:about="">
        <dc:title>risk</dc:title>
      </cc:Work>
    </rdf:RDF>
  </metadata>
</svg>
