<?xml version="1.0" encoding="UTF-8" standalone="no"?>
<svg
   viewBox="0 0 96 96"
   version="1.1"
   id="svg1"
   sodipodi:docname="icon_video.svg"
   width="96"
   height="96"
   inkscape:version="1.4 (e7c3feb100, 2024-10-09)"
   xmlns:inkscape="http://www.inkscape.org/namespaces/inkscape"
   xmlns:sodipodi="http://sodipodi.sourceforge.net/DTD/sodipodi-0.dtd"
   xmlns="http://www.w3.org/2000/svg"
   xmlns:svg="http://www.w3.org/2000/svg">
  <defs
     id="defs1" />
  <sodipodi:namedview
     id="namedview1"
     pagecolor="#848484"
     bordercolor="#000000"
     borderopacity="0.25"
     inkscape:showpageshadow="2"
     inkscape:pageopacity="0.0"
     inkscape:pagecheckerboard="0"
     inkscape:deskcolor="#d1d1d1"
     inkscape:zoom="1.6386719"
     inkscape:cx="-34.479142"
     inkscape:cy="76.586412"
     inkscape:window-width="2560"
     inkscape:window-height="1048"
     inkscape:window-x="0"
     inkscape:window-y="0"
     inkscape:window-maximized="1"
     inkscape:current-layer="svg1" />
  <!--!Font Awesome Free 6.7.2 by @fontawesome - https://fontawesome.com License - https://fontawesome.com/license/free Copyright 2025 Fonticons, Inc.-->
  <path
     d="M 0,18 C 0,11.38125 5.38125,6 12,6 h 72 c 6.61875,0 12,5.38125 12,12 v 60 c 0,6.61875 -5.38125,12 -12,12 H 12 C 5.38125,90 0,84.61875 0,78 Z m 9,51 v 6 c 0,1.65 1.35,3 3,3 h 6 c 1.65,0 3,-1.35 3,-3 v -6 c 0,-1.65 -1.35,-3 -3,-3 h -6 c -1.65,0 -3,1.35 -3,3 z m 69,-3 c -1.65,0 -3,1.35 -3,3 v 6 c 0,1.65 1.35,3 3,3 h 6 c 1.65,0 3,-1.35 3,-3 v -6 c 0,-1.65 -1.35,-3 -3,-3 z M 9,45 v 6 c 0,1.65 1.35,3 3,3 h 6 c 1.65,0 3,-1.35 3,-3 v -6 c 0,-1.65 -1.35,-3 -3,-3 h -6 c -1.65,0 -3,1.35 -3,3 z m 69,-3 c -1.65,0 -3,1.35 -3,3 v 6 c 0,1.65 1.35,3 3,3 h 6 c 1.65,0 3,-1.35 3,-3 v -6 c 0,-1.65 -1.35,-3 -3,-3 z M 9,21 v 6 c 0,1.65 1.35,3 3,3 h 6 c 1.65,0 3,-1.35 3,-3 v -6 c 0,-1.65 -1.35,-3 -3,-3 h -6 c -1.65,0 -3,1.35 -3,3 z m 69,-3 c -1.65,0 -3,1.35 -3,3 v 6 c 0,1.65 1.35,3 3,3 h 6 c 1.65,0 3,-1.35 3,-3 v -6 c 0,-1.65 -1.35,-3 -3,-3 z m -48,6 v 12 c 0,3.31875 2.68125,6 6,6 h 24 c 3.31875,0 6,-2.68125 6,-6 V 24 c 0,-3.31875 -2.68125,-6 -6,-6 H 36 c -3.31875,0 -6,2.68125 -6,6 z m 6,30 c -3.31875,0 -6,2.68125 -6,6 v 12 c 0,3.31875 2.68125,6 6,6 h 24 c 3.31875,0 6,-2.68125 6,-6 V 60 c 0,-3.31875 -2.68125,-6 -6,-6 z"
     id="path1"
     style="fill:#ffffff;stroke-width:0.1875" />
</svg>
