<?xml version="1.0" encoding="utf-8"?>
<!-- Svg Vector Icons : http://www.onlinewebfonts.com/icon -->
<!DOCTYPE svg PUBLIC "-//W3C//DTD SVG 1.1//EN" "http://www.w3.org/Graphics/SVG/1.1/DTD/svg11.dtd">
<svg version="1.1" xmlns="http://www.w3.org/2000/svg" xmlns:xlink="http://www.w3.org/1999/xlink" x="0px" y="0px" viewBox="0 0 1000 1000" enable-background="new 0 0 1000 1000" xml:space="preserve">
<metadata> Svg Vector Icons : http://www.onlinewebfonts.com/icon </metadata>
<g><g><g id="Google_x2B_"><g><path fill="white" d="M132.5,806.3v-245H10v306.3C10,935.2,64.8,990,132.5,990h306.3V867.5h-245C159.9,867.5,132.5,840.1,132.5,806.3z M561.3,745V561.3H745V438.8H561.3V255H438.8v183.8H255v122.5h183.8V745H561.3z M132.5,193.8c0-33.8,27.4-61.3,61.3-61.3h245V10H132.5C64.8,10,10,64.8,10,132.5v306.3h122.5V193.8z M867.5,806.3c0,33.8-27.4,61.3-61.3,61.3h-245V990h306.3c67.7,0,122.5-54.8,122.5-122.5V561.3H867.5V806.3z M867.5,10H561.3v122.5h245c33.8,0,61.3,27.4,61.3,61.3v245H990V132.5C990,64.8,935.2,10,867.5,10z"/></g></g></g><g></g><g></g><g></g><g></g><g></g><g></g><g></g><g></g><g></g><g></g><g></g><g></g><g></g><g></g><g></g></g>
</svg>
