<?xml version="1.0" encoding="UTF-8" standalone="no"?>
<!-- Svg Vector Icons : http://www.onlinewebfonts.com/icon -->

<svg
   version="1.1"
   x="0px"
   y="0px"
   viewBox="0 0 1000 1000"
   enable-background="new 0 0 1000 1000"
   xml:space="preserve"
   id="svg20"
   sodipodi:docname="icon_simulation_menu.svg"
   inkscape:version="1.2.2 (732a01da63, 2022-12-09)"
   xmlns:inkscape="http://www.inkscape.org/namespaces/inkscape"
   xmlns:sodipodi="http://sodipodi.sourceforge.net/DTD/sodipodi-0.dtd"
   xmlns="http://www.w3.org/2000/svg"
   xmlns:svg="http://www.w3.org/2000/svg"><defs
   id="defs24" /><sodipodi:namedview
   id="namedview22"
   pagecolor="#292929"
   bordercolor="#000000"
   borderopacity="0.25"
   inkscape:showpageshadow="2"
   inkscape:pageopacity="0"
   inkscape:pagecheckerboard="0"
   inkscape:deskcolor="#d1d1d1"
   showgrid="false"
   inkscape:zoom="0.29309576"
   inkscape:cx="-441.83512"
   inkscape:cy="914.37692"
   inkscape:window-width="1920"
   inkscape:window-height="1009"
   inkscape:window-x="-8"
   inkscape:window-y="-8"
   inkscape:window-maximized="1"
   inkscape:current-layer="g4178"
   showguides="true" />
<metadata
   id="metadata14"> Svg Vector Icons : http://www.onlinewebfonts.com/icon </metadata>

<g
   id="g4178"
   transform="translate(-29.239754,-64.39555)"><path
     id="rect335"
     style="fill:none;stroke:#ffffff;stroke-width:10;stroke-dasharray:none"
     d="m 230.54855,262.69557 h 593.74189 c 26.23555,0 47.35659,33.14755 47.35659,74.32188 V 681.21839 H 183.19195 V 337.01745 c 0,-41.17433 21.12104,-74.32188 47.3566,-74.32188 z"
     sodipodi:nodetypes="sssccss" /><path
     id="rect335-5"
     style="fill:none;stroke:#ffffff;stroke-width:10;stroke-dasharray:none"
     d="M 877.59661,866.09553 H 164.3348 c -29.94636,0 -28.38798,-10.67226 -28.38798,-23.92883 l 46.93123,-159.16638 h 689.34429 l 49.55727,159.16638 c 5.30293,17.03178 -14.2366,23.92883 -44.183,23.92883 z"
     sodipodi:nodetypes="sssccss" /></g><g
   id="g3141"
   transform="matrix(6.9789419,0,0,6.3465701,136.61152,209.12368)"><path
     id="path8088"
     style="display:inline;opacity:1;mix-blend-mode:normal;fill:#ffffff;fill-opacity:1;fill-rule:evenodd;stroke:none;stroke-width:2.77243;stroke-linecap:square;stroke-miterlimit:4;stroke-dasharray:none;stroke-dashoffset:0;stroke-opacity:1"
     d="m 21.273397,7.6374616 a 8.6302541,8.6302541 0 0 0 -8.488887,8.3727314 8.6302541,8.6302541 0 0 0 8.363232,8.882695 8.6302541,8.6302541 0 0 0 8.889172,-8.356323 l 8.64e-4,-0.02699 a 8.6302541,8.6302541 0 0 0 -8.377266,-8.8695254 8.6302541,8.6302541 0 0 0 -0.387115,-0.0026 z m -3.728002,8.5476124 a 3.3801088,2.575036 52.775531 0 1 2.885116,1.628127 l 0.0063,0.0086 a 3.3801088,2.575036 52.775531 0 1 -0.132133,4.210331 3.3801088,2.575036 52.775531 0 1 -4.091584,-1.260443 3.3801088,2.575036 52.775531 0 1 0.125872,-4.212706 3.3801088,2.575036 52.775531 0 1 1.206468,-0.373945 z" /><path
     id="path8088-7"
     style="display:inline;mix-blend-mode:normal;fill:#ffffff;fill-opacity:1;fill-rule:evenodd;stroke:none;stroke-width:2.77243;stroke-linecap:square;stroke-miterlimit:4;stroke-dasharray:none;stroke-dashoffset:0;stroke-opacity:1"
     d="m 47.828402,27.380041 a 8.6302541,8.6302541 0 0 0 -8.488887,8.372732 8.6302541,8.6302541 0 0 0 8.363232,8.882695 8.6302541,8.6302541 0 0 0 8.889172,-8.356323 l 8.64e-4,-0.02699 a 8.6302541,8.6302541 0 0 0 -8.377266,-8.869526 8.6302541,8.6302541 0 0 0 -0.387115,-0.0026 z M 44.1004,35.927654 a 3.3801088,2.575036 52.775531 0 1 2.885116,1.628127 l 0.0063,0.0086 a 3.3801088,2.575036 52.775531 0 1 -0.132133,4.210331 3.3801088,2.575036 52.775531 0 1 -4.091584,-1.260443 3.3801088,2.575036 52.775531 0 1 0.125872,-4.212706 3.3801088,2.575036 52.775531 0 1 1.206468,-0.373945 z" /><path
     id="path8088-0"
     style="display:inline;mix-blend-mode:normal;fill:#ffffff;fill-opacity:1;fill-rule:evenodd;stroke:none;stroke-width:2.77243;stroke-linecap:square;stroke-miterlimit:4;stroke-dasharray:none;stroke-dashoffset:0;stroke-opacity:1"
     d="m 20.300116,38.224516 a 8.6302541,8.6302541 0 0 0 -8.488887,8.372732 8.6302541,8.6302541 0 0 0 8.363232,8.882695 8.6302541,8.6302541 0 0 0 8.889172,-8.356323 l 8.64e-4,-0.02699 a 8.6302541,8.6302541 0 0 0 -8.377266,-8.869526 8.6302541,8.6302541 0 0 0 -0.387115,-0.0026 z m -3.728002,8.547613 a 3.3801088,2.575036 52.775531 0 1 2.885116,1.628127 l 0.0063,0.0086 a 3.3801088,2.575036 52.775531 0 1 -0.132133,4.210331 3.3801088,2.575036 52.775531 0 1 -4.091584,-1.260443 3.3801088,2.575036 52.775531 0 1 0.125872,-4.212706 3.3801088,2.575036 52.775531 0 1 1.206468,-0.373945 z" /><rect
     style="fill:none;stroke:#ffffff;stroke-width:1.04;stroke-dasharray:2.08, 1.04;stroke-dashoffset:0;stroke-opacity:1"
     id="rect459"
     width="4.4490156"
     height="19.047348"
     x="20.196987"
     y="22.022318"
     transform="rotate(2.7981537)" /><rect
     style="fill:none;stroke:#ffffff;stroke-width:1.04;stroke-dasharray:2.08, 1.04;stroke-dashoffset:0;stroke-opacity:1"
     id="rect459-1"
     width="4.4490156"
     height="19.047348"
     x="50.576069"
     y="-20.368"
     transform="rotate(64.661245)" /><rect
     style="fill:none;stroke:#ffffff;stroke-width:1.04;stroke-dasharray:2.08, 1.04;stroke-dashoffset:0;stroke-opacity:1"
     id="rect459-2"
     width="4.4490156"
     height="19.047348"
     x="-1.2822558"
     y="32.754185"
     transform="rotate(-50.77663)" /></g><path
   style="fill:none;stroke:#ffffff;stroke-width:8;stroke-dasharray:40.00000254,23.99999746;stroke-dashoffset:0;stroke-opacity:1"
   d="M 563.28214,323.19785 H 781.71183"
   id="path4376" /><path
   style="fill:none;stroke:#ffffff;stroke-width:8;stroke-dasharray:32,16;stroke-dashoffset:0;stroke-opacity:1"
   d="M 563.28215,383.94131 H 781.71183"
   id="path4376-2" /><path
   style="fill:none;stroke:#ffffff;stroke-width:8;stroke-dasharray:47.99999491,16;stroke-dashoffset:0;stroke-opacity:1"
   d="M 563.28214,444.68477 H 781.71183"
   id="path4376-2-3" /><path
   style="fill:none;stroke:#ffffff;stroke-width:8;stroke-dasharray:40.00000254,16;stroke-dashoffset:0;stroke-opacity:1"
   d="M 563.28214,505.42823 H 781.71183"
   id="path4376-2-7" /></svg>
