<?xml version="1.0" encoding="UTF-8" standalone="no"?>
<svg
   version="1.1"
   id="Layer_1"
   x="0px"
   y="0px"
   viewBox="0 0 128 128"
   xml:space="preserve"
   sodipodi:docname="icon_select_connected.svg"
   width="128"
   height="128"
   inkscape:version="1.3 (0e150ed6c4, 2023-07-21)"
   xmlns:inkscape="http://www.inkscape.org/namespaces/inkscape"
   xmlns:sodipodi="http://sodipodi.sourceforge.net/DTD/sodipodi-0.dtd"
   xmlns="http://www.w3.org/2000/svg"
   xmlns:svg="http://www.w3.org/2000/svg"><defs
     id="defs1" /><sodipodi:namedview
     id="namedview1"
     pagecolor="#ffffff"
     bordercolor="#666666"
     borderopacity="1.0"
     inkscape:showpageshadow="2"
     inkscape:pageopacity="0.0"
     inkscape:pagecheckerboard="0"
     inkscape:deskcolor="#d1d1d1"
     inkscape:zoom="7.0312502"
     inkscape:cx="61.013332"
     inkscape:cy="61.439999"
     inkscape:window-width="2528"
     inkscape:window-height="1050"
     inkscape:window-x="32"
     inkscape:window-y="0"
     inkscape:window-maximized="1"
     inkscape:current-layer="Layer_1" /><style
     type="text/css"
     id="style1">.st0{fill-rule:evenodd;clip-rule:evenodd;}</style><g
     id="g1"
     transform="translate(2.955,2.56)"
     style="fill:#ffffff"><path
       class="st0"
       d="m 90.41,83.03 3.6,4.56 c 2.73,-1.53 5.88,-2.41 9.23,-2.41 5.21,0 9.92,2.11 13.33,5.52 3.41,3.41 5.52,8.13 5.52,13.33 0,5.21 -2.11,9.92 -5.52,13.33 -3.41,3.41 -8.12,5.52 -13.33,5.52 -5.2,0 -9.92,-2.11 -13.33,-5.52 -3.41,-3.41 -5.52,-8.12 -5.52,-13.33 0,-5.2 2.11,-9.92 5.52,-13.33 l 0.08,-0.08 -3.52,-4.46 c -3.55,2.24 -7.76,3.53 -12.27,3.53 -6.37,0 -12.15,-2.58 -16.32,-6.76 -1.08,-1.08 -2.06,-2.27 -2.91,-3.55 L 34.85,89.83 c 1.81,2.9 2.86,6.32 2.86,9.98 0,5.21 -2.11,9.92 -5.52,13.33 -3.41,3.41 -8.12,5.52 -13.33,5.52 -5.21,0 -9.92,-2.11 -13.33,-5.52 C 2.11,109.72 0,105.01 0,99.81 c 0,-5.2 2.11,-9.92 5.52,-13.33 3.41,-3.41 8.12,-5.52 13.33,-5.52 4.88,0 9.33,1.86 12.68,4.9 L 52.64,74.89 c -0.99,-2.57 -1.53,-5.36 -1.53,-8.28 0,-4.35 1.21,-8.43 3.3,-11.9 L 33.46,38.57 c -0.08,-0.06 -0.15,-0.12 -0.22,-0.19 -0.14,0.15 -0.28,0.29 -0.42,0.44 -3.41,3.41 -8.12,5.52 -13.33,5.52 -5.21,0 -9.92,-2.11 -13.33,-5.52 C 2.75,35.41 0.64,30.7 0.64,25.49 c 0,-5.21 2.11,-9.92 5.52,-13.33 3.41,-3.41 8.12,-5.52 13.33,-5.52 5.21,0 9.92,2.11 13.33,5.52 3.41,3.41 5.52,8.12 5.52,13.33 0,3.19 -0.79,6.2 -2.2,8.84 0.14,0.07 0.27,0.15 0.4,0.25 l 20.93,16.11 c 0.13,-0.14 0.26,-0.27 0.4,-0.41 4.18,-4.18 9.95,-6.76 16.32,-6.76 3.27,0 6.37,0.68 9.19,1.9 L 89.47,33.95 C 88.75,33.41 88.06,32.82 87.42,32.18 84.01,28.77 81.9,24.06 81.9,18.85 81.9,13.64 84.01,8.93 87.42,5.52 90.84,2.11 95.55,0 100.75,0 c 5.21,0 9.92,2.11 13.33,5.52 3.41,3.41 5.52,8.12 5.52,13.33 0,5.2 -2.11,9.92 -5.52,13.33 -3.41,3.41 -8.12,5.52 -13.33,5.52 -2.42,0 -4.74,-0.46 -6.86,-1.29 l -6.12,11.52 c 0.97,0.71 1.89,1.49 2.74,2.35 4.18,4.18 6.76,9.95 6.76,16.32 0,6.37 -2.58,12.15 -6.76,16.32 z m 12.49,30.62 c -0.7,0.01 -1.27,-0.54 -1.28,-1.24 -0.01,-0.7 0.54,-1.27 1.23,-1.28 1.85,-0.04 3.58,-0.73 5.01,-1.74 1.66,-1.17 2.92,-2.76 3.52,-4.29 0.26,-0.65 0.99,-0.96 1.64,-0.71 0.65,0.26 0.96,0.99 0.71,1.63 -0.78,1.96 -2.35,3.98 -4.41,5.43 -1.82,1.28 -4.02,2.14 -6.42,2.2 z m 10.36,-19.64 c -2.56,-2.56 -6.11,-4.15 -10.02,-4.15 -3.91,0 -7.46,1.59 -10.02,4.15 -2.56,2.56 -4.15,6.11 -4.15,10.02 0,3.91 1.59,7.46 4.15,10.02 2.56,2.56 6.11,4.15 10.02,4.15 3.91,0 7.46,-1.59 10.02,-4.15 2.56,-2.56 4.15,-6.11 4.15,-10.02 0,-3.92 -1.59,-7.46 -4.15,-10.02 z M 18.14,15.05 c 0.68,-0.17 1.36,0.24 1.53,0.92 0.17,0.68 -0.24,1.36 -0.92,1.53 -1.5,0.38 -2.9,1.17 -4.05,2.16 -1.26,1.08 -2.23,2.38 -2.74,3.64 -0.26,0.65 -1,0.96 -1.64,0.7 -0.65,-0.26 -0.96,-1 -0.7,-1.64 0.66,-1.61 1.87,-3.26 3.44,-4.6 1.44,-1.25 3.19,-2.23 5.08,-2.71 z m 11.37,0.42 c -2.56,-2.56 -6.11,-4.15 -10.02,-4.15 -3.91,0 -7.46,1.59 -10.02,4.15 -2.56,2.56 -4.15,6.11 -4.15,10.02 0,3.91 1.59,7.46 4.15,10.02 2.56,2.56 6.11,4.15 10.02,4.15 3.91,0 7.46,-1.59 10.02,-4.15 2.56,-2.56 4.15,-6.11 4.15,-10.02 0,-3.91 -1.59,-7.45 -4.15,-10.02 z m 71,-4.39 c -0.7,-0.01 -1.25,-0.59 -1.24,-1.28 0.01,-0.7 0.59,-1.25 1.28,-1.23 1.96,0.04 3.78,0.62 5.37,1.53 1.77,1.01 3.26,2.43 4.3,3.95 0.4,0.57 0.25,1.36 -0.32,1.75 -0.57,0.4 -1.36,0.25 -1.75,-0.32 -0.84,-1.22 -2.04,-2.37 -3.47,-3.18 -1.25,-0.73 -2.67,-1.19 -4.17,-1.22 z m 10.27,-2.25 c -2.56,-2.56 -6.11,-4.15 -10.02,-4.15 -3.91,0 -7.46,1.59 -10.02,4.15 -2.56,2.56 -4.15,6.11 -4.15,10.02 0,3.91 1.59,7.46 4.15,10.02 2.56,2.56 6.11,4.15 10.02,4.15 3.91,0 7.46,-1.59 10.02,-4.15 2.56,-2.56 4.15,-6.11 4.15,-10.02 0,-3.91 -1.59,-7.45 -4.15,-10.02 z m -91.06,98.72 c 0.7,0.01 1.25,0.59 1.23,1.28 -0.01,0.7 -0.59,1.25 -1.28,1.24 -1.91,-0.04 -3.69,-0.59 -5.24,-1.46 -1.74,-0.96 -3.2,-2.31 -4.26,-3.77 -0.41,-0.56 -0.28,-1.35 0.28,-1.76 0.56,-0.41 1.35,-0.28 1.76,0.28 0.86,1.18 2.04,2.28 3.44,3.05 1.22,0.68 2.6,1.11 4.07,1.14 z m 9.15,-17.76 c -2.56,-2.56 -6.11,-4.15 -10.02,-4.15 -3.91,0 -7.46,1.59 -10.02,4.15 -2.56,2.56 -4.15,6.11 -4.15,10.02 0,3.91 1.59,7.46 4.15,10.02 2.56,2.56 6.11,4.15 10.02,4.15 3.91,0 7.46,-1.59 10.02,-4.15 2.56,-2.56 4.15,-6.11 4.15,-10.02 0,-3.92 -1.58,-7.46 -4.15,-10.02 z m 46.74,-33.4 c -0.75,-0.01 -1.34,-0.63 -1.33,-1.38 0.01,-0.75 0.63,-1.34 1.38,-1.33 2.59,0.06 4.95,0.99 6.9,2.35 2.22,1.56 3.91,3.73 4.74,5.84 0.28,0.69 -0.06,1.48 -0.76,1.76 -0.69,0.28 -1.48,-0.06 -1.76,-0.76 -0.65,-1.64 -2,-3.36 -3.79,-4.62 -1.53,-1.08 -3.39,-1.82 -5.38,-1.86 z"
       id="path1"
       style="fill:#ffffff" /></g></svg>
