<?xml version="1.0" encoding="UTF-8" standalone="no"?>
<svg
   version="1.1"
   id="Layer_1"
   x="0px"
   y="0px"
   width="128"
   height="128"
   viewBox="0 0 128 128"
   enable-background="new 0 0 122.879 122.879"
   xml:space="preserve"
   sodipodi:docname="red-x-icon.svg"
   inkscape:version="1.4.1 (93de688d07, 2025-03-30)"
   xmlns:inkscape="http://www.inkscape.org/namespaces/inkscape"
   xmlns:sodipodi="http://sodipodi.sourceforge.net/DTD/sodipodi-0.dtd"
   xmlns="http://www.w3.org/2000/svg"
   xmlns:svg="http://www.w3.org/2000/svg"><defs
     id="defs1" /><sodipodi:namedview
     id="namedview1"
     pagecolor="#999999"
     bordercolor="#000000"
     borderopacity="0.25"
     inkscape:showpageshadow="2"
     inkscape:pageopacity="0.0"
     inkscape:pagecheckerboard="0"
     inkscape:deskcolor="#d1d1d1"
     inkscape:zoom="1.7069638"
     inkscape:cx="164.61978"
     inkscape:cy="90.511586"
     inkscape:window-width="2560"
     inkscape:window-height="1048"
     inkscape:window-x="0"
     inkscape:window-y="0"
     inkscape:window-maximized="1"
     inkscape:current-layer="Layer_1" /><g
     id="g2"><ellipse
       style="fill:#ffffff;stroke-width:12;stroke-linecap:round;stroke-linejoin:round"
       id="path2"
       cx="64.622726"
       cy="67.211777"
       rx="44.531689"
       ry="33.450546" /><g
       id="g1"
       transform="translate(2.5605,2.561)"><path
         fill-rule="evenodd"
         clip-rule="evenodd"
         fill="#ff4141"
         d="m 61.44,0 c 33.933,0 61.439,27.507 61.439,61.439 0,33.932 -27.506,61.439 -61.439,61.439 C 27.507,122.879 0,95.372 0,61.439 0,27.506 27.507,0 61.44,0 Z m 12.011,39.151 c 2.75,-2.793 7.221,-2.805 9.986,-0.027 2.764,2.776 2.775,7.292 0.027,10.083 L 71.4,61.445 83.476,73.694 c 2.729,2.77 2.689,7.257 -0.08,10.022 -2.773,2.765 -7.23,2.758 -9.955,-0.013 L 61.446,71.54 49.428,83.728 c -2.75,2.793 -7.22,2.805 -9.986,0.027 -2.763,-2.776 -2.776,-7.293 -0.027,-10.084 L 51.48,61.434 39.403,49.185 c -2.728,-2.769 -2.689,-7.256 0.082,-10.022 2.772,-2.765 7.229,-2.758 9.953,0.013 l 11.997,12.165 z"
         id="path1" /></g></g></svg>
