<?xml version="1.0" encoding="utf-8"?>
<!-- Svg Vector Icons : http://www.onlinewebfonts.com/icon -->
<!DOCTYPE svg PUBLIC "-//W3C//DTD SVG 1.1//EN" "http://www.w3.org/Graphics/SVG/1.1/DTD/svg11.dtd">
<svg version="1.1" xmlns="http://www.w3.org/2000/svg" xmlns:xlink="http://www.w3.org/1999/xlink" x="0px" y="0px" viewBox="0 0 1000 1000" enable-background="new 0 0 1000 1000" xml:space="preserve">
<metadata> Svg Vector Icons : http://www.onlinewebfonts.com/icon </metadata>
<g><path fill="white" d="M915,79c20.9,0,38.6,7.3,53.1,21.8c14.5,14.5,21.8,32.2,21.8,53.1v24.4c0,20.9-7.3,38.6-21.8,53.1c-14.5,14.5-32.2,21.8-53.1,21.8H84.9c-20.9,0-38.6-7.3-53.1-21.8C17.3,217,10,199.3,10,178.4V154c0-20.9,7.3-38.6,21.8-53.1C46.4,86.3,64.1,79,84.9,79H915L915,79z"/><path fill="white"d="M915,396.5c20.9,0,38.6,7.3,53.1,21.8c14.5,14.5,21.8,32.2,21.8,53.1v24.4c0,20.9-7.3,38.6-21.8,53.2c-14.5,14.5-32.2,21.8-53.1,21.8H84.9c-20.9,0-38.6-7.3-53.1-21.8C17.3,534.5,10,516.8,10,495.9v-24.4c0-20.9,7.3-38.6,21.8-53.1c14.5-14.5,32.2-21.8,53.1-21.8H915L915,396.5z"/><path fill="white"d="M915,746.7c20.9,0,38.6,7.3,53.1,21.8c14.5,14.5,21.8,32.3,21.8,53.2V846c0,20.9-7.3,38.6-21.8,53.1C953.6,913.7,935.9,921,915,921H84.9c-20.9,0-38.6-7.3-53.1-21.8C17.3,884.6,10,866.9,10,846v-24.4c0-20.9,7.3-38.6,21.8-53.2c14.5-14.5,32.2-21.8,53.1-21.8H915L915,746.7z"/><path d="M915,779.3"/></g>
</svg>