<?xml version="1.0" encoding="UTF-8" standalone="no"?>
<svg
   width="64mm"
   height="64mm"
   viewBox="0 0 64 64"
   version="1.1"
   id="svg6751"
   inkscape:version="1.2.2 (732a01da63, 2022-12-09)"
   sodipodi:docname="icon_LockUnlockAtoms.svg"
   xmlns:inkscape="http://www.inkscape.org/namespaces/inkscape"
   xmlns:sodipodi="http://sodipodi.sourceforge.net/DTD/sodipodi-0.dtd"
   xmlns="http://www.w3.org/2000/svg"
   xmlns:svg="http://www.w3.org/2000/svg"
   xmlns:rdf="http://www.w3.org/1999/02/22-rdf-syntax-ns#"
   xmlns:cc="http://creativecommons.org/ns#"
   xmlns:dc="http://purl.org/dc/elements/1.1/">
  <defs
     id="defs6745" />
  <sodipodi:namedview
     id="base"
     pagecolor="#303030"
     bordercolor="#666666"
     borderopacity="1.0"
     inkscape:pageopacity="0"
     inkscape:pageshadow="2"
     inkscape:zoom="2.6913087"
     inkscape:cx="3.7156644"
     inkscape:cy="120.01596"
     inkscape:document-units="mm"
     inkscape:current-layer="layer1"
     inkscape:document-rotation="0"
     showgrid="false"
     inkscape:window-width="1920"
     inkscape:window-height="1009"
     inkscape:window-x="-8"
     inkscape:window-y="-8"
     inkscape:window-maximized="1"
     inkscape:showpageshadow="2"
     inkscape:pagecheckerboard="0"
     inkscape:deskcolor="#d1d1d1" />
  <metadata
     id="metadata6748">
    <rdf:RDF>
      <cc:Work
         rdf:about="">
        <dc:format>image/svg+xml</dc:format>
        <dc:type
           rdf:resource="http://purl.org/dc/dcmitype/StillImage" />
      </cc:Work>
    </rdf:RDF>
  </metadata>
  <g
     inkscape:label="Layer 1"
     inkscape:groupmode="layer"
     id="layer1">
    <path
       d="m 15.538,7.8749256 q 0,0.745263 0.363077,1.433199 0.382187,0.687935 1.070122,1.0701214 0.687936,0.363077 1.41409,0.363077 0.764372,0 1.433198,-0.363077 0.687935,-0.3821864 1.070122,-1.0701214 0.382187,-0.687936 0.382187,-1.433199 0,-0.764373 -0.401296,-1.4523078 -0.382187,-0.687936 -1.070122,-1.051013 -0.668826,-0.382186 -1.414089,-0.382186 -0.707045,0 -1.394981,0.382186 -0.687935,0.363077 -1.070122,1.051013 Q 15.538,7.1105526 15.538,7.8749256 Z m 4.337815,23.9630834 v 0.01911 h -0.152874 q -0.707045,0.05733 -1.452308,0.05733 -0.05733,0 -0.114656,-0.01911 v -0.03822 h -0.133766 v 0.03822 h -0.133765 q -3.229474,0 -6.191418,-0.917247 -2.9428366,-0.917247 -4.5862376,-2.598867 -0.305749,-0.324858 -0.55417,-0.630607 l -1.662511,1.242105 -0.55417,-6.325184 5.8665616,2.369556 -1.6625116,1.222996 q 0,0 0.114656,0.114656 1.3949806,1.68162 3.9174106,2.617976 2.082916,0.764373 4.318706,0.898138 V 16.053713 H 9.7287678 v -2.465101 h 7.1659942 v -0.974575 q -0.496843,-0.152875 -0.974576,-0.420406 -1.184777,-0.649716 -1.834494,-1.834494 -0.649717,-1.1847784 -0.649717,-2.4842114 0,-1.299434 0.649717,-2.4842108 0.668826,-1.203887 1.853604,-1.853604 1.203887,-0.649717 2.445993,-0.649717 1.261214,0 2.445992,0.649717 1.184778,0.649717 1.853604,1.853604 0.687935,1.1847768 0.687935,2.4842108 0,1.299433 -0.668826,2.4842114 -0.649717,1.184778 -1.815385,1.834494 -0.515951,0.267531 -1.012794,0.439515 v 0.955466 h 6.974901 v 2.465101 h -6.974901 v 13.777818 q 1.910932,-0.191093 3.707208,-0.84081 2.52243,-0.936356 3.936519,-2.617976 0.03822,-0.05733 0.09555,-0.114656 l -1.662511,-1.222996 5.88567,-2.369556 -0.57328,6.325184 -1.662511,-1.242105 q -0.229311,0.305749 -0.55417,0.630607 -1.643401,1.68162 -4.605345,2.617976 -2.197571,0.668826 -4.567127,0.84081 z"
       id="path2704"
       style="font-size:78.3699px;font-family:HYGothic-Extra;-inkscape-font-specification:HYGothic-Extra;text-align:center;text-anchor:middle;fill:#ffffff;fill-opacity:0.987805;stroke-width:15.4078;stroke-linecap:round;stroke-linejoin:round" />
    <path
       id="text345"
       style="font-size:78.3699px;font-family:HYGothic-Extra;-inkscape-font-specification:HYGothic-Extra;text-align:center;text-anchor:middle;fill:#ffffff;fill-opacity:1;stroke-width:16.3265;stroke-linecap:round;stroke-linejoin:round"
       d="m 41.950287,31.248023 c -0.877441,0 -1.74154,0.229291 -2.591984,0.688261 -0.836944,0.45897 -1.491685,1.113711 -1.964154,1.964154 -0.458969,0.836944 -0.688261,1.714515 -0.688261,2.632454 0,0.917939 0.229292,1.795235 0.688261,2.63218 0.45897,0.836944 1.106975,1.48495 1.94392,1.94392 0.337477,0.188987 0.681824,0.337448 1.032801,0.445441 v 1.032801 h -7.59329 v 2.611945 h 7.59329 v 6.322318 l 3.158561,-2.307327 v -4.014991 h 7.390941 v -2.611945 h -7.390941 v -1.012566 c 0.350977,-0.121492 0.708796,-0.276689 1.073271,-0.465676 0.823446,-0.45897 1.464715,-1.106976 1.923685,-1.94392 0.472469,-0.836945 0.708769,-1.714241 0.708769,-2.63218 0,-0.917939 -0.243036,-1.79551 -0.729004,-2.632454 -0.472469,-0.850443 -1.12721,-1.505184 -1.964154,-1.964154 -0.836945,-0.45897 -1.70077,-0.688261 -2.591711,-0.688261 z m 0,2.227209 c 0.526465,0 1.025736,0.134989 1.498205,0.404971 0.485967,0.256483 0.863994,0.627774 1.133976,1.113741 0.283481,0.485968 0.425206,0.998984 0.425206,1.538948 0,0.526465 -0.134989,1.032472 -0.404972,1.518439 -0.269982,0.485968 -0.648008,0.863994 -1.133975,1.133976 -0.472469,0.256483 -0.978475,0.384737 -1.51844,0.384737 -0.512966,0 -1.01251,-0.128254 -1.498477,-0.384737 -0.485968,-0.269982 -0.863994,-0.648008 -1.133976,-1.133976 -0.256483,-0.485967 -0.384737,-0.991974 -0.384737,-1.518439 0,-0.539964 0.13499,-1.05298 0.404972,-1.538948 0.269982,-0.485967 0.648008,-0.857258 1.133975,-1.113741 0.485968,-0.269982 0.978777,-0.404971 1.478243,-0.404971 z m 6.738063,16.404986 -2.0203,3.349237 2.04541,4.876263 c -1.493005,0.52379 -3.022603,0.821203 -4.588334,0.892425 -1.899036,0.07928 -3.532607,-0.238272 -4.900835,-0.952547 l -0.158922,-0.065 1.123161,-1.876365 -6.703538,0.08917 3.133847,5.95334 1.115334,-1.895024 c 0.245374,0.131292 0.512204,0.261005 0.800144,0.389081 1.530057,0.646394 3.378928,0.866335 5.546606,0.659727 2.180126,-0.211829 4.321959,-0.759044 6.425725,-1.641495 l 0.130871,-0.0549 -0.01565,-0.03732 0.130618,-0.05479 0.01565,0.03732 c 0.04256,-0.0032 0.08244,-0.01264 0.119786,-0.0283 0.485484,-0.203643 0.950749,-0.420719 1.395673,-0.651262 l 0.149278,-0.06262 -0.0078,-0.01866 c 1.496597,-0.759513 2.869569,-1.657411 4.118369,-2.693586 1.673631,-1.419317 2.815934,-2.901248 3.426988,-4.445758 0.122854,-0.300389 0.217047,-0.581538 0.282881,-0.84337 l 2.13349,0.532263 -2.032162,-6.415455 -4.780061,4.727766 2.125916,0.513499 c -0.02168,0.05301 -0.0371,0.103306 -0.04634,0.151094 -0.461674,1.48185 -1.386322,2.872485 -2.773642,4.171704 -0.992607,0.914074 -2.0852,1.694659 -3.277815,2.341302 z"
       sodipodi:nodetypes="sccsscccccccccccccccscsssccsscsccsscsccccccccccccsccccscccccccccccccc" />
    <rect
       style="fill:#ffffff;fill-opacity:0.49303618;stroke-width:25.0713;stroke-linecap:round;stroke-linejoin:round"
       id="rect6946"
       width="57.314899"
       height="4.4239626"
       x="-29.630671"
       y="44.016071"
       rx="0"
       ry="0"
       transform="rotate(-45)" />
  </g>
</svg>
