<?xml version="1.0" encoding="UTF-8" standalone="no"?>
<!-- Svg Vector Icons : http://www.onlinewebfonts.com/icon -->

<svg
   version="1.1"
   x="0px"
   y="0px"
   viewBox="0 0 1000 1000"
   enable-background="new 0 0 1000 1000"
   xml:space="preserve"
   id="svg20"
   sodipodi:docname="icon_edit_menu.svg"
   inkscape:version="1.2.2 (732a01da63, 2022-12-09)"
   xmlns:inkscape="http://www.inkscape.org/namespaces/inkscape"
   xmlns:sodipodi="http://sodipodi.sourceforge.net/DTD/sodipodi-0.dtd"
   xmlns="http://www.w3.org/2000/svg"
   xmlns:svg="http://www.w3.org/2000/svg"><defs
   id="defs24" /><sodipodi:namedview
   id="namedview22"
   pagecolor="#292929"
   bordercolor="#000000"
   borderopacity="0.25"
   inkscape:showpageshadow="2"
   inkscape:pageopacity="0"
   inkscape:pagecheckerboard="0"
   inkscape:deskcolor="#d1d1d1"
   showgrid="false"
   inkscape:zoom="0.4145"
   inkscape:cx="342.58142"
   inkscape:cy="545.23522"
   inkscape:window-width="1920"
   inkscape:window-height="1009"
   inkscape:window-x="-8"
   inkscape:window-y="-8"
   inkscape:window-maximized="1"
   inkscape:current-layer="svg20" />
<metadata
   id="metadata14"> Svg Vector Icons : http://www.onlinewebfonts.com/icon </metadata>
<g
   id="g18"
   transform="matrix(0.3931805,0,0,0.3931805,101.94441,544.18041)"><path
     fill="#ffffff"
     d="m 741.7,149.6 c 45.2,6.4 92.2,-1.8 129.1,4.5 59.8,10.2 90.1,61 83.5,135.8 -24.1,0 -48.2,0 -72.4,0 -2,132.7 -1.1,264.2 -1.1,397.4 0,67.2 5.6,137.9 -1.1,198.2 -6.3,57 -48.1,91.7 -99.1,100.2 -50.3,8.4 -117,2.2 -172.5,2.2 -116.4,0 -234.3,2.3 -348.4,0 -55.6,-1.1 -96.5,-18.7 -121.3,-52.3 -24.8,-33.6 -22.3,-84.4 -22.3,-144.7 0,-168 0,-334.6 0,-500.9 -23,0 -46,0 -69,0 -11.2,-68.8 18.6,-118.3 69,-134.7 37.1,-12.1 86.5,-2.3 139.1,-5.6 -4.3,-74.1 -0.2,-130.4 63.5,-138 28.5,-3.4 66.5,0 101.3,0 62.8,0 135.5,0 202.6,0 38.6,0 78.2,-3.7 98,13.4 27.4,23.4 20.2,78 21.1,124.5 z M 324.3,85 c 0,22.3 0,44.5 0,66.8 116.1,0 232.3,0 348.4,0 0,-23.4 0,-46.8 0,-70.1 -115.8,0 -231.5,0 -347.3,0 -1.3,0.1 -1.2,1.7 -1.1,3.3 z m -67.9,212.6 c 0,140.9 0,281.2 0,424.1 0,36.2 -8.3,113.4 13.4,129.1 8.6,6.3 30.9,7.2 41.2,0 22.4,-15.6 14.5,-90.6 14.5,-128 0,-144.8 0,-291.5 0,-428.6 -22.6,0 -45.3,0 -67.9,0 -1.4,0.3 -1.3,1.8 -1.2,3.4 z m 207,0 c 0,126.8 0,274.9 0,410.8 0,32.4 -7.5,109.1 5.6,131.4 8.7,14.7 37.8,21.4 52.3,10 19.7,-15.4 11.1,-96.6 11.1,-130.2 0,-145.2 0,-284.4 0,-425.2 -22.6,0 -45.3,0 -67.9,0 -1.2,0.1 -1.2,1.6 -1.1,3.2 z m 209.3,0 c 0,136.5 0,288.4 0,429.7 0,44 -8.6,111.5 20,123.6 12.5,5.3 34.6,1.2 40.1,-3.3 18.7,-15.4 10,-97.8 10,-130.2 0,-144.4 0,-282.9 0,-423 -23,0 -46,0 -69,0 -1.3,0.1 -1.2,1.6 -1.1,3.2 z"
     id="path16" /></g>
<path
   fill="#ffffff"
   d="m 349.12992,52.046742 -2.51401,2.51401 v 22.96523 c 0,12.565796 -0.25861,26.954568 -0.52145,31.978348 l -0.60625,9.09791 -8.32209,0.60624 c -38.30787,2.68783 -75.92048,15.1646 -107.98362,35.87866 -17.50478,11.26852 -38.82509,30.41822 -51.82755,46.54094 -47.40579,58.7591 -62.05318,137.18935 -39.08795,208.6923 5.89287,18.02624 15.07981,38.13408 19.06491,41.25433 3.55268,2.77261 8.49167,2.42498 11.70095,-0.69528 l 2.51401,-2.514 v -16.98758 c 0,-35.70485 7.02056,-65.34724 22.61759,-95.85025 22.79988,-44.62894 63.70656,-80.5076 112.06623,-98.36002 8.8393,-3.29407 28.34088,-8.49166 35.44623,-9.44555 l 4.07414,-0.60624 v 35.53102 35.44624 l 2.16637,2.5988 c 2.34019,2.86164 5.54523,3.81552 9.01312,2.77261 2.51401,-0.69103 179.39756,-121.07087 183.12406,-124.62355 3.03122,-2.77262 3.90031,-6.93154 2.07734,-10.31464 -0.95388,-1.99255 -20.97267,-15.16459 -85.19221,-56.24509 -46.10851,-29.464342 -87.18479,-55.638848 -91.17413,-58.152858 -8.91985,-5.63426 -12.64635,-6.06668 -16.63569,-2.08158 z"
   id="path186"
   style="stroke-width:0.0423947" /><g
   id="g238"
   transform="matrix(0.41117675,0,0,0.41117675,540.14733,314.09089)"><g
     id="g206"><path
       fill="#ffffff"
       d="M 775.6,316.3 V 163.1 c 0,-16.8 -13.8,-30.6 -30.6,-30.6 H 530.6 V 71.2 C 530.6,37.5 503,10 469.3,10 H 346.9 c -33.7,0 -61.3,27.6 -61.3,61.2 v 61.3 H 71.3 c -16.8,0 -30.6,13.8 -30.6,30.6 v 612.5 c 0,16.8 13.8,30.6 30.6,30.6 H 346.9 V 990 H 775.7 L 959.5,806.2 v -490 H 775.6 Z M 346.9,71.4 c 0,0 0.1,-0.1 0.1,-0.1 h 122.3 c 0,0 0.1,0.1 0.1,0.1 v 61.1 H 346.9 Z M 163.1,255 v -61.2 h 490 V 255 Z m 612.5,648.4 v -97.1 h 97.1 z M 898.1,745 H 714.4 V 928.8 H 408.1 V 377.5 h 490 z"
       id="path204" /></g><g
     id="g208" /><g
     id="g210" /><g
     id="g212" /><g
     id="g214" /><g
     id="g216" /><g
     id="g218" /><g
     id="g220" /><g
     id="g222" /><g
     id="g224" /><g
     id="g226" /><g
     id="g228" /><g
     id="g230" /><g
     id="g232" /><g
     id="g234" /><g
     id="g236" /></g></svg>
