<?xml version="1.0" encoding="UTF-8" standalone="no"?>
<!-- Svg Vector Icons : http://www.onlinewebfonts.com/icon -->

<svg
   version="1.1"
   x="0px"
   y="0px"
   viewBox="0 0 1000 1000"
   enable-background="new 0 0 1000 1000"
   xml:space="preserve"
   id="svg12"
   sodipodi:docname="icon_file.svg"
   inkscape:version="1.2.2 (732a01da63, 2022-12-09)"
   xmlns:inkscape="http://www.inkscape.org/namespaces/inkscape"
   xmlns:sodipodi="http://sodipodi.sourceforge.net/DTD/sodipodi-0.dtd"
   xmlns="http://www.w3.org/2000/svg"
   xmlns:svg="http://www.w3.org/2000/svg"><defs
   id="defs16" /><sodipodi:namedview
   id="namedview14"
   pagecolor="#252525"
   bordercolor="#000000"
   borderopacity="0.25"
   inkscape:showpageshadow="2"
   inkscape:pageopacity="0"
   inkscape:pagecheckerboard="0"
   inkscape:deskcolor="#393939"
   showgrid="false"
   inkscape:zoom="0.829"
   inkscape:cx="498.79373"
   inkscape:cy="300.36188"
   inkscape:window-width="1920"
   inkscape:window-height="1009"
   inkscape:window-x="-8"
   inkscape:window-y="-8"
   inkscape:window-maximized="1"
   inkscape:current-layer="svg12" />
<metadata
   id="metadata2"> Svg Vector Icons : http://www.onlinewebfonts.com/icon </metadata>
<g
   id="g10"
   transform="translate(171.00117,92.141641)"><g
     transform="matrix(0.1,0,0,-0.1,0,511)"
     id="g8"><path
       fill="#ffffff"
       d="M 512.4,4988.2 C 344.3,4941 170,4764.6 122.8,4592.4 106.4,4532.9 100.2,3505.5 100.2,1022.1 c 0,-3890.2 -12.3,-3590.8 145.6,-3769.3 45.1,-49.2 129.2,-114.8 186.6,-143.6 l 106.6,-53.3 h 1817 1819 l 121,61.5 c 102.5,51.3 278.9,219.4 1109.4,1050 791.6,793.6 996.7,1011 1031.5,1088.9 l 43.1,98.4 -2,2616.7 c 0,2186.1 -6.2,2627 -30.8,2682.4 -39,94.3 -186.6,250.2 -287.1,303.5 l -82,45.1 -2748,4.1 c -1767.7,2.2 -2772.6,-4 -2817.7,-18.3 z m 5578,-383.5 c 36.9,-47.2 39,-114.8 39,-2444.5 V -237.1 H 4950.2 3771 V -1416.3 -2595.5 H 2163.3 c -1552.4,0 -1609.8,2.1 -1654.9,39 l -49.2,39 -6.1,3515 c -2.1,2487.5 2,3529.3 18.5,3566.2 12.3,30.8 41,63.6 65.6,75.9 30.8,14.4 888,20.5 2778.7,18.5 l 2735.7,-4.1 z m 39,-5204.8 c 0,-26.7 -1956.4,-1974.9 -1983.1,-1974.9 -20.5,0 -26.7,207.1 -26.7,994.6 v 994.6 h 1004.9 c 553.7,0.1 1004.9,-6.1 1004.9,-14.3 z"
       id="path4" /></g></g>
</svg>
