<?xml version="1.0" encoding="UTF-8" standalone="no"?>
<svg
   version="1.1"
   id="Layer_1"
   x="0px"
   y="0px"
   viewBox="0 0 96.000001 96.000002"
   xml:space="preserve"
   sodipodi:docname="film-movie-icon.svg"
   width="96"
   height="96"
   inkscape:version="1.3.2 (091e20ef0f, 2023-11-25, custom)"
   xmlns:inkscape="http://www.inkscape.org/namespaces/inkscape"
   xmlns:sodipodi="http://sodipodi.sourceforge.net/DTD/sodipodi-0.dtd"
   xmlns="http://www.w3.org/2000/svg"
   xmlns:svg="http://www.w3.org/2000/svg"><defs
     id="defs1" /><sodipodi:namedview
     id="namedview1"
     pagecolor="#808080"
     bordercolor="#000000"
     borderopacity="0.25"
     inkscape:showpageshadow="2"
     inkscape:pageopacity="0.0"
     inkscape:pagecheckerboard="0"
     inkscape:deskcolor="#d1d1d1"
     inkscape:zoom="3.470866"
     inkscape:cx="62.376364"
     inkscape:cy="68.138615"
     inkscape:window-width="2516"
     inkscape:window-height="1057"
     inkscape:window-x="0"
     inkscape:window-y="0"
     inkscape:window-maximized="1"
     inkscape:current-layer="Layer_1" /><style
     type="text/css"
     id="style1"><![CDATA[
	.st0{fill-rule:evenodd;clip-rule:evenodd;}
]]></style><g
     id="g1"
     style="fill:#ffffff"
     transform="matrix(0.74875885,0,0,0.74875885,7.533328,2.0000001)"><path
       class="st0"
       d="m 17.61,47.71 h 52.57 c 4.88,0 8.86,3.99 8.86,8.86 v 38.52 c 0,4.87 -3.99,8.86 -8.86,8.86 H 53.94 l 11.79,18.92 H 54.75 L 41.89,105.58 28.9,122.87 H 17.76 L 29.48,103.95 H 17.61 c -4.87,0 -8.86,-3.99 -8.86,-8.86 V 56.57 c 0,-4.87 3.98,-8.86 8.86,-8.86 z M 17.83,9.22 c 4.92,0 9.38,2 12.61,5.22 3.23,3.23 5.22,7.69 5.22,12.61 0,4.92 -2,9.38 -5.22,12.61 -3.23,3.23 -7.69,5.22 -12.61,5.22 -4.92,0 -9.38,-2 -12.61,-5.22 C 2,36.44 0,31.98 0,27.06 0,22.14 2,17.68 5.22,14.45 8.44,11.22 12.91,9.22 17.83,9.22 Z m 7.1,10.74 c -1.82,-1.82 -4.33,-2.94 -7.1,-2.94 -2.77,0 -5.28,1.12 -7.1,2.94 -1.82,1.82 -2.94,4.33 -2.94,7.1 0,2.77 1.12,5.28 2.94,7.1 1.82,1.82 4.33,2.94 7.1,2.94 2.77,0 5.28,-1.12 7.1,-2.94 1.82,-1.82 2.94,-4.33 2.94,-7.1 0.01,-2.77 -1.12,-5.29 -2.94,-7.1 z M 60.62,0 c 6.2,0 11.81,2.51 15.87,6.57 4.06,4.06 6.57,9.67 6.57,15.87 0,6.2 -2.51,11.81 -6.57,15.87 -4.06,4.06 -9.67,6.57 -15.87,6.57 -6.2,0 -11.81,-2.51 -15.87,-6.57 -4.06,-4.06 -6.57,-9.67 -6.57,-15.87 0,-6.2 2.51,-11.81 6.57,-15.87 C 48.81,2.51 54.42,0 60.62,0 Z M 70.88,12.19 C 68.26,9.57 64.63,7.94 60.62,7.94 c -4.01,0 -7.63,1.62 -10.26,4.25 -2.62,2.62 -4.25,6.25 -4.25,10.26 0,4.01 1.62,7.63 4.25,10.26 2.62,2.62 6.25,4.25 10.26,4.25 4.01,0 7.63,-1.62 10.26,-4.25 2.63,-2.63 4.25,-6.25 4.25,-10.26 0,-4.01 -1.63,-7.64 -4.25,-10.26 z M 84.07,89.97 V 61.52 l 24.02,-14.16 v 57.15 z"
       id="path1"
       style="fill:#ffffff" /></g></svg>
