<?xml version="1.0" encoding="utf-8"?>
<!-- Svg Vector Icons : http://www.onlinewebfonts.com/icon -->
<!DOCTYPE svg PUBLIC "-//W3C//DTD SVG 1.1//EN" "http://www.w3.org/Graphics/SVG/1.1/DTD/svg11.dtd">
<svg version="1.1" xmlns="http://www.w3.org/2000/svg" xmlns:xlink="http://www.w3.org/1999/xlink" x="0px" y="0px" viewBox="0 0 1000 1000" enable-background="new 0 0 1000 1000" xml:space="preserve">
<metadata> Svg Vector Icons : http://www.onlinewebfonts.com/icon </metadata>
<g><path fill="white" d="M500,188.2C229.4,188.2,10,410.9,10,500c0,89.1,219.4,311.8,490,311.8c270.6,0,490-222.7,490-311.8S770.6,188.2,500,188.2z M500,722.7c-123,0-222.7-99.7-222.7-222.7c0-123,99.7-222.7,222.7-222.7c123,0,222.7,99.7,222.7,222.7C722.7,623,623,722.7,500,722.7z"/><path fill="white" d="M500,345.3c-85.4,0-154.7,69.3-154.7,154.7c0,85.4,69.3,154.7,154.7,154.7c85.4,0,154.7-69.2,154.7-154.7C654.7,414.6,585.4,345.3,500,345.3z"/></g>
</svg>