<?xml version="1.0" encoding="UTF-8" standalone="no"?>
<svg
   version="1.1"
   x="0px"
   y="0px"
   viewBox="0 0 1000 1000"
   enable-background="new 0 0 1000 1000"
   xml:space="preserve"
   id="svg2501"
   sodipodi:docname="icon_ActionRing.svg"
   inkscape:version="1.2.2 (732a01da63, 2022-12-09)"
   xmlns:inkscape="http://www.inkscape.org/namespaces/inkscape"
   xmlns:sodipodi="http://sodipodi.sourceforge.net/DTD/sodipodi-0.dtd"
   xmlns="http://www.w3.org/2000/svg"
   xmlns:svg="http://www.w3.org/2000/svg"
   xmlns:rdf="http://www.w3.org/1999/02/22-rdf-syntax-ns#"
   xmlns:cc="http://creativecommons.org/ns#"
   xmlns:dc="http://purl.org/dc/elements/1.1/"><defs
   id="defs2505" /><sodipodi:namedview
   pagecolor="#4a4a4a"
   bordercolor="#666666"
   borderopacity="1"
   objecttolerance="10"
   gridtolerance="10"
   guidetolerance="10"
   inkscape:pageopacity="0"
   inkscape:pageshadow="2"
   inkscape:window-width="1920"
   inkscape:window-height="1009"
   id="namedview2503"
   showgrid="false"
   inkscape:zoom="3.44"
   inkscape:cx="287.5"
   inkscape:cy="896.80233"
   inkscape:window-x="-8"
   inkscape:window-y="89"
   inkscape:window-maximized="1"
   inkscape:current-layer="layer9"
   showguides="false"
   inkscape:document-rotation="0"
   inkscape:showpageshadow="2"
   inkscape:pagecheckerboard="0"
   inkscape:deskcolor="#d1d1d1" />
<metadata
   id="metadata2495"> Svg Vector Icons : http://www.onlinewebfonts.com/icon <rdf:RDF><cc:Work
     rdf:about=""><dc:format>image/svg+xml</dc:format><dc:type
       rdf:resource="http://purl.org/dc/dcmitype/StillImage" /></cc:Work></rdf:RDF></metadata>

<g
   inkscape:groupmode="layer"
   id="layer9"
   inkscape:label="Icon"
   style="display:inline"><g
     id="g2377"
     transform="matrix(1.4795778,0,0,1.4795778,322.57768,-117.54125)"
     style="display:inline;fill:#ffffff;fill-opacity:1;stroke:#ffffff;stroke-opacity:0.956863"><path
       style="display:inline;fill:#ffffff;fill-opacity:1;stroke:#ffffff;stroke-width:0.264583px;stroke-linecap:butt;stroke-linejoin:miter;stroke-opacity:0.956863"
       d="m 48.016421,153.86904 4.810849,-4.00905 c 0,0 23.219389,-5.21309 58.79929,-5.6234 35.5799,-0.41031 64.06734,8.16321 64.41196,9.88629 0,0 2.94941,1.96268 3.74177,3.7552 0.79236,1.79252 1.06908,5.34539 1.06908,5.34539 l -21.3735,65.20302 7.48623,-6.40372 18.96539,-60.40292 c 2.54998,-7.81873 -1.33724,-9.62875 -5.35614,-12.31051 -3.43459,-2.24673 -27.98075,-9.9083 -68.41025,-10.1455 -40.429494,-0.23719 -63.194565,2.41056 -66.809317,5.64759 -4.516827,4.06327 -5.381878,8.10674 -5.887987,14.403 l 19.243405,63.34288 6.943635,5.87992 -19.772572,-67.61918 z"
       id="path2317"
       sodipodi:nodetypes="cczczccccczcccccc" /><path
       style="fill:#ffffff;fill-opacity:1;stroke:#ffffff;stroke-width:0.264583px;stroke-linecap:butt;stroke-linejoin:miter;stroke-opacity:0.956863"
       d="m 42.67103,142.64372 c -3.442167,2.13276 -5.014776,3.95394 -5.612661,5.61266 -1.495574,2.67269 -1.315542,5.34539 -1.878944,8.01808 l 18.684689,62.54107 4.843087,3.74178 -19.243405,-63.34288 c 0.05404,-3.67815 -1.685156,-8.43 8.285353,-12.83163 44.116107,-10.04189 94.075481,-11.27327 134.174671,3.74178 2.01062,3.40848 4.33123,6.68388 4.00367,11.49527 l -18.96539,60.40292 5.07812,-4.25483 19.49993,-60.95894 c -1.00184,-3.97451 -1.87704,-9.57301 -6.94901,-13.09621 -46.25755,-13.34007 -98.622051,-12.24142 -141.92011,-1.06907 z"
       id="path2319"
       sodipodi:nodetypes="cccccccccccccc" /><path
       style="fill:#ffffff;fill-opacity:1;stroke:#ffffff;stroke-width:0.264583px;stroke-linecap:butt;stroke-linejoin:miter;stroke-opacity:0.956863"
       d="M 42.67103,142.64371 Z"
       id="path2321" /><path
       style="fill:#ffffff;fill-opacity:1;stroke:#ffffff;stroke-width:0.264583px;stroke-linecap:butt;stroke-linejoin:miter;stroke-opacity:0.956863"
       d="M 32.655822,130.7623 C 78.680521,118.46451 140.86039,117.05594 187.2237,130.17751 184.8773,118.56592 178.73338,100.53272 167.57087,97.870835 138.5013,91.734445 85.245912,92.390052 50.099731,99.278915 41.539754,101.8065 36.133722,119.50552 32.655822,130.7623 Z"
       id="path2323"
       sodipodi:nodetypes="ccccc" /><path
       style="fill:#ffffff;fill-opacity:1;stroke:#ffffff;stroke-width:0.264583px;stroke-linecap:butt;stroke-linejoin:miter;stroke-opacity:0.956863"
       d="m 56.509198,139.28494 c -26.735387,6.20292 -22.211662,11.63334 -21.329773,16.98952 l 18.684689,62.54107 4.843087,3.74178 -19.243405,-63.34288 c -1.237252,-4.98465 -1.721717,-10.51445 13.479439,-13.63353 45.133386,-8.71247 76.692565,-8.41589 117.517775,0.60334 17.45183,4.98934 17.94332,8.11673 15.46648,15.43561 l -18.96539,60.40292 5.07812,-4.25483 19.49993,-60.95894 c 0.61012,-4.78049 4.43757,-8.78502 -23.88234,-16.53579 -28.31991,-7.75077 -84.413225,-7.1912 -111.148612,-0.98827 z"
       id="path2325"
       sodipodi:nodetypes="zcccccccccczz" /><path
       style="fill:#ffffff;fill-opacity:1;stroke:#ffffff;stroke-width:0.264583px;stroke-linecap:butt;stroke-linejoin:miter;stroke-opacity:0.956863"
       d="m 74.476103,257.30234 c 25.534167,-5.78951 55.269607,-5.5116 74.969097,0.53723 l 31.40417,-94.6161 c 0.66231,-4.20448 3.64772,-6.68857 -5.86918,-10.15893 -9.5169,-3.47036 -40.61722,-9.84607 -61.73926,-9.92927 -21.122034,-0.0832 -51.241259,3.82912 -60.41366,6.72472 -9.172401,2.8956 -8.004637,6.9223 -6.949006,10.95806 1.055631,4.03576 28.597839,96.48429 28.597839,96.48429 z"
       id="path2327"
       sodipodi:nodetypes="ccczzzzc" /><g
       id="g2341"
       transform="translate(6.322374,45.62488)"
       style="fill:#ffffff;fill-opacity:1;stroke:#ffffff;stroke-opacity:0.956863"><path
         style="display:inline;fill:#ffffff;fill-opacity:1;stroke:#ffffff;stroke-width:0.264583px;stroke-linecap:butt;stroke-linejoin:miter;stroke-opacity:0.956863"
         d="m 41.694047,108.24416 4.810849,-4.00905 c 0,0 23.219389,-5.213093 58.799294,-5.6234 35.5799,-0.410307 64.06734,8.16321 64.41196,9.88629 0,0 2.94941,1.96268 3.74177,3.7552 0.79236,1.79252 1.06908,5.34539 1.06908,5.34539 l -21.3735,65.20302 7.48623,-6.40372 18.96539,-60.40292 c 2.54998,-7.81873 -1.33724,-9.62875 -5.35614,-12.31051 -3.43459,-2.24673 -27.98075,-9.908303 -68.41025,-10.145497 -40.429498,-0.237194 -63.194569,2.410554 -66.809321,5.647584 -4.516827,4.063273 -7.04901,5.328193 -7.555119,11.624453 l 20.910537,66.12143 6.943635,5.87992 -19.772572,-67.61918 z"
         id="path2329"
         sodipodi:nodetypes="cczczccccczcccccc" /><path
         style="fill:#ffffff;fill-opacity:1;stroke:#ffffff;stroke-width:0.264583px;stroke-linecap:butt;stroke-linejoin:miter;stroke-opacity:0.956863"
         d="m 36.348656,97.018836 c -3.442167,2.132768 -5.014776,3.953944 -5.612661,5.612664 -1.495574,2.67269 -1.315542,5.34539 -1.878944,8.01808 l 18.684689,62.54107 4.843087,3.74178 -19.243405,-63.34288 c 0.05404,-3.67815 -1.685156,-8.43 8.285353,-12.83163 44.116107,-10.041891 94.075485,-11.273273 134.174675,3.74178 2.01062,3.40848 4.33123,6.68388 4.00367,11.49527 l -18.96539,60.40292 5.07812,-4.25483 19.49993,-60.95894 c -1.00184,-3.97451 -1.87704,-9.57301 -6.94901,-13.096206 C 132.01122,84.747838 79.646715,85.846485 36.348656,97.018836 Z"
         id="path2331"
         sodipodi:nodetypes="cccccccccccccc" /><path
         style="fill:#ffffff;fill-opacity:1;stroke:#ffffff;stroke-width:0.264583px;stroke-linecap:butt;stroke-linejoin:miter;stroke-opacity:0.956863"
         d="M 36.348656,97.018834 Z"
         id="path2333" /><path
         style="fill:#ffffff;fill-opacity:1;stroke:#ffffff;stroke-width:0.264583px;stroke-linecap:butt;stroke-linejoin:miter;stroke-opacity:0.956863"
         d="M 50.186824,93.660057 C 23.451437,99.862984 27.975162,105.2934 28.857051,110.64958 l 18.684689,62.54107 4.843087,3.74178 -19.243405,-63.34288 C 31.90417,108.6049 31.419705,103.0751 46.620861,99.956017 c 45.133386,-8.712466 76.692569,-8.415891 117.517779,0.603343 17.45183,4.98934 17.94332,8.11673 15.46648,15.43561 l -18.96539,60.40292 5.07812,-4.25483 19.49993,-60.95894 c 0.61012,-4.78049 4.43757,-8.78502 -23.88234,-16.535789 C 133.01553,86.897563 76.922211,87.45713 50.186824,93.660057 Z"
         id="path2337"
         sodipodi:nodetypes="zcccccccccczz" /><path
         style="fill:#ffffff;fill-opacity:1;stroke:#ffffff;stroke-width:0.264583px;stroke-linecap:butt;stroke-linejoin:miter;stroke-opacity:0.956863"
         d="m 68.153729,211.67746 c 25.534163,-5.78951 55.269611,-5.5116 74.969101,0.53723 l 31.40417,-94.6161 c 0.66231,-4.20448 3.64772,-6.68857 -5.86918,-10.15893 -9.5169,-3.47036 -40.61722,-9.846073 -61.73926,-9.929265 -21.122038,-0.08319 -51.241263,3.829115 -60.413664,6.724715 -9.172401,2.8956 -8.004637,6.9223 -6.949006,10.95806 1.055631,4.03576 28.597839,96.48429 28.597839,96.48429 z"
         id="path2339"
         sodipodi:nodetypes="ccczzzzc" /></g></g><g
     id="g2405"
     transform="matrix(1.2032908,0.82940951,-0.82940951,1.2032908,721.97519,-95.540776)"
     style="display:inline;fill:#ffffff;fill-opacity:1;stroke:#ffffff;stroke-opacity:0.956863"><path
       style="display:inline;fill:#ffffff;fill-opacity:1;stroke:#ffffff;stroke-width:0.264583px;stroke-linecap:butt;stroke-linejoin:miter;stroke-opacity:0.956863"
       d="m 48.016421,153.86904 4.810849,-4.00905 c 0,0 23.219389,-5.21309 58.79929,-5.6234 35.5799,-0.41031 64.06734,8.16321 64.41196,9.88629 0,0 2.94941,1.96268 3.74177,3.7552 0.79236,1.79252 1.06908,5.34539 1.06908,5.34539 l -21.3735,65.20302 7.48623,-6.40372 18.96539,-60.40292 c 2.54998,-7.81873 -1.33724,-9.62875 -5.35614,-12.31051 -3.43459,-2.24673 -27.98075,-9.9083 -68.41025,-10.1455 -40.429494,-0.23719 -63.194565,2.41056 -66.809317,5.64759 -4.516827,4.06327 -5.381878,8.10674 -5.887987,14.403 l 19.243405,63.34288 6.943635,5.87992 -19.772572,-67.61918 z"
       id="path2379"
       sodipodi:nodetypes="cczczccccczcccccc" /><path
       style="fill:#ffffff;fill-opacity:1;stroke:#ffffff;stroke-width:0.264583px;stroke-linecap:butt;stroke-linejoin:miter;stroke-opacity:0.956863"
       d="m 42.67103,142.64372 c -3.442167,2.13276 -5.014776,3.95394 -5.612661,5.61266 -1.495574,2.67269 -1.315542,5.34539 -1.878944,8.01808 l 18.684689,62.54107 4.843087,3.74178 -19.243405,-63.34288 c 0.05404,-3.67815 -1.685156,-8.43 8.285353,-12.83163 44.116107,-10.04189 94.075481,-11.27327 134.174671,3.74178 2.01062,3.40848 4.33123,6.68388 4.00367,11.49527 l -18.96539,60.40292 5.07812,-4.25483 19.49993,-60.95894 c -1.00184,-3.97451 -1.87704,-9.57301 -6.94901,-13.09621 -46.25755,-13.34007 -98.622051,-12.24142 -141.92011,-1.06907 z"
       id="path2381"
       sodipodi:nodetypes="cccccccccccccc" /><path
       style="fill:#ffffff;fill-opacity:1;stroke:#ffffff;stroke-width:0.264583px;stroke-linecap:butt;stroke-linejoin:miter;stroke-opacity:0.956863"
       d="M 42.67103,142.64371 Z"
       id="path2383" /><path
       style="fill:#ffffff;fill-opacity:1;stroke:#ffffff;stroke-width:0.264583px;stroke-linecap:butt;stroke-linejoin:miter;stroke-opacity:0.956863"
       d="m 39.322429,130.75683 c 46.024699,-12.29779 103.758891,-12.31708 150.122201,0.80449 -2.3464,-11.61159 -8.05196,-29.54186 -19.21447,-32.203738 -29.06957,-6.13639 -77.879281,-6.870056 -113.025462,0.0188 -8.559977,2.527578 -14.404369,20.123668 -17.882269,31.380448 z"
       id="path2385"
       sodipodi:nodetypes="ccccc" /><path
       style="fill:#ffffff;fill-opacity:1;stroke:#ffffff;stroke-width:0.264583px;stroke-linecap:butt;stroke-linejoin:miter;stroke-opacity:0.956863"
       d="m 56.509198,139.28494 c -26.735387,6.20292 -22.211662,11.63334 -21.329773,16.98952 l 18.684689,62.54107 4.843087,3.74178 -19.243405,-63.34288 c -1.237252,-4.98465 -1.721717,-10.51445 13.479439,-13.63353 45.133386,-8.71247 76.692565,-8.41589 117.517775,0.60334 17.45183,4.98934 17.94332,8.11673 15.46648,15.43561 l -18.96539,60.40292 5.07812,-4.25483 19.49993,-60.95894 c 0.61012,-4.78049 4.43757,-8.78502 -23.88234,-16.53579 -28.31991,-7.75077 -84.413225,-7.1912 -111.148612,-0.98827 z"
       id="path2387"
       sodipodi:nodetypes="zcccccccccczz" /><path
       style="fill:#ffffff;fill-opacity:1;stroke:#ffffff;stroke-width:0.264583px;stroke-linecap:butt;stroke-linejoin:miter;stroke-opacity:0.956863"
       d="m 74.476103,257.30234 c 25.534167,-5.78951 55.269607,-5.5116 74.969097,0.53723 l 31.40417,-94.6161 c 0.66231,-4.20448 3.64772,-6.68857 -5.86918,-10.15893 -9.5169,-3.47036 -40.61722,-9.84607 -61.73926,-9.92927 -21.122034,-0.0832 -51.241259,3.82912 -60.41366,6.72472 -9.172401,2.8956 -8.004637,6.9223 -6.949006,10.95806 1.055631,4.03576 28.597839,96.48429 28.597839,96.48429 z"
       id="path2389"
       sodipodi:nodetypes="ccczzzzc" /><g
       id="g2403"
       transform="translate(6.322374,45.62488)"
       style="fill:#ffffff;fill-opacity:1;stroke:#ffffff;stroke-opacity:0.956863"><path
         style="display:inline;fill:#ffffff;fill-opacity:1;stroke:#ffffff;stroke-width:0.264583px;stroke-linecap:butt;stroke-linejoin:miter;stroke-opacity:0.956863"
         d="m 41.694047,108.24416 4.810849,-4.00905 c 0,0 23.219389,-5.213093 58.799294,-5.6234 35.5799,-0.410307 64.06734,8.16321 64.41196,9.88629 0,0 2.94941,1.96268 3.74177,3.7552 0.79236,1.79252 1.06908,5.34539 1.06908,5.34539 l -21.3735,65.20302 7.48623,-6.40372 18.96539,-60.40292 c 2.54998,-7.81873 -1.33724,-9.62875 -5.35614,-12.31051 -3.43459,-2.24673 -27.98075,-9.908303 -68.41025,-10.145497 -40.429498,-0.237194 -63.194569,2.410554 -66.809321,5.647584 -4.516827,4.063273 -6.371187,4.688813 -6.877296,10.985073 l 20.232714,66.76081 6.943635,5.87992 -19.772572,-67.61918 z"
         id="path2391"
         sodipodi:nodetypes="cczczccccczcccccc" /><path
         style="fill:#ffffff;fill-opacity:1;stroke:#ffffff;stroke-width:0.264583px;stroke-linecap:butt;stroke-linejoin:miter;stroke-opacity:0.956863"
         d="m 36.348656,97.018836 c -3.442167,2.132768 -5.014776,3.953944 -5.612661,5.612664 -1.495574,2.67269 -1.315542,5.34539 -1.878944,8.01808 l 18.684689,62.54107 4.843087,3.74178 -19.243405,-63.34288 c 0.05404,-3.67815 -1.685156,-8.43 8.285353,-12.83163 44.116107,-10.041891 94.075485,-11.273273 134.174675,3.74178 2.01062,3.40848 4.33123,6.68388 4.00367,11.49527 l -18.96539,60.40292 5.07812,-4.25483 19.49993,-60.95894 c -1.00184,-3.97451 -1.87704,-9.57301 -6.94901,-13.096206 C 132.01122,84.747838 79.646715,85.846485 36.348656,97.018836 Z"
         id="path2393"
         sodipodi:nodetypes="cccccccccccccc" /><path
         style="fill:#ffffff;fill-opacity:1;stroke:#ffffff;stroke-width:0.264583px;stroke-linecap:butt;stroke-linejoin:miter;stroke-opacity:0.956863"
         d="M 36.348656,97.018834 Z"
         id="path2395" /><path
         style="fill:#ffffff;fill-opacity:1;stroke:#ffffff;stroke-width:0.264583px;stroke-linecap:butt;stroke-linejoin:miter;stroke-opacity:0.956863"
         d="M 50.186824,93.660057 C 23.451437,99.862984 27.975162,105.2934 28.857051,110.64958 l 18.684689,62.54107 4.843087,3.74178 -19.243405,-63.34288 C 31.90417,108.6049 31.419705,103.0751 46.620861,99.956017 c 45.133386,-8.712466 76.692569,-8.415891 117.517779,0.603343 17.45183,4.98934 17.94332,8.11673 15.46648,15.43561 l -18.96539,60.40292 5.07812,-4.25483 19.49993,-60.95894 c 0.61012,-4.78049 4.43757,-8.78502 -23.88234,-16.535789 C 133.01553,86.897563 76.922211,87.45713 50.186824,93.660057 Z"
         id="path2399"
         sodipodi:nodetypes="zcccccccccczz" /><path
         style="fill:#ffffff;fill-opacity:1;stroke:#ffffff;stroke-width:0.264583px;stroke-linecap:butt;stroke-linejoin:miter;stroke-opacity:0.956863"
         d="m 68.153729,211.67746 c 25.534163,-5.78951 55.269611,-5.5116 74.969101,0.53723 l 31.40417,-94.6161 c 0.66231,-4.20448 3.64772,-6.68857 -5.86918,-10.15893 -9.5169,-3.47036 -40.61722,-9.846073 -61.73926,-9.929265 -21.122038,-0.08319 -51.241263,3.829115 -60.413664,6.724715 -9.172401,2.8956 -8.004637,6.9223 -6.949006,10.95806 1.055631,4.03576 28.597839,96.48429 28.597839,96.48429 z"
         id="path2401"
         sodipodi:nodetypes="ccczzzzc" /></g></g><g
     id="g2449"
     transform="matrix(0.53234517,1.3583142,-1.3583142,0.53234517,1036.8243,156.08486)"
     style="display:inline;fill:#ffffff;fill-opacity:1;stroke:#ffffff;stroke-opacity:0.956863"><path
       style="display:inline;fill:#ffffff;fill-opacity:1;stroke:#ffffff;stroke-width:0.264583px;stroke-linecap:butt;stroke-linejoin:miter;stroke-opacity:0.956863"
       d="m 48.016421,153.86904 4.810849,-4.00905 c 0,0 23.219389,-5.21309 58.79929,-5.6234 35.5799,-0.41031 64.06734,8.16321 64.41196,9.88629 0,0 2.94941,1.96268 3.74177,3.7552 0.79236,1.79252 1.06908,5.34539 1.06908,5.34539 l -21.3735,65.20302 7.48623,-6.40372 18.96539,-60.40292 c 2.54998,-7.81873 -1.33724,-9.62875 -5.35614,-12.31051 -3.43459,-2.24673 -27.98075,-9.9083 -68.41025,-10.1455 -40.429494,-0.23719 -63.194565,2.41056 -66.809317,5.64759 -4.516827,4.06327 -5.381878,8.10674 -5.887987,14.403 l 19.243405,63.34288 6.943635,5.87992 -19.772572,-67.61918 z"
       id="path2423"
       sodipodi:nodetypes="cczczccccczcccccc" /><path
       style="fill:#ffffff;fill-opacity:1;stroke:#ffffff;stroke-width:0.264583px;stroke-linecap:butt;stroke-linejoin:miter;stroke-opacity:0.956863"
       d="m 42.67103,142.64372 c -3.442167,2.13276 -5.014776,3.95394 -5.612661,5.61266 -1.495574,2.67269 -1.315542,5.34539 -1.878944,8.01808 l 18.684689,62.54107 4.843087,3.74178 -19.243405,-63.34288 c 0.05404,-3.67815 -1.685156,-8.43 8.285353,-12.83163 44.116107,-10.04189 94.075481,-11.27327 134.174671,3.74178 2.01062,3.40848 4.33123,6.68388 4.00367,11.49527 l -18.96539,60.40292 5.07812,-4.25483 19.49993,-60.95894 c -1.00184,-3.97451 -1.87704,-9.57301 -6.94901,-13.09621 -46.25755,-13.34007 -98.622051,-12.24142 -141.92011,-1.06907 z"
       id="path2425"
       sodipodi:nodetypes="cccccccccccccc" /><path
       style="fill:#ffffff;fill-opacity:1;stroke:#ffffff;stroke-width:0.264583px;stroke-linecap:butt;stroke-linejoin:miter;stroke-opacity:0.956863"
       d="M 42.67103,142.64371 Z"
       id="path2427" /><path
       style="fill:#ffffff;fill-opacity:1;stroke:#ffffff;stroke-width:0.264583px;stroke-linecap:butt;stroke-linejoin:miter;stroke-opacity:0.956863"
       d="m 37.156197,131.85085 c 46.024699,-12.29779 103.758883,-12.31708 150.122193,0.80449 -2.3464,-11.61159 -8.8787,-28.77715 -20.04121,-31.43903 -29.06957,-6.136387 -77.879269,-6.870057 -113.02545,0.0188 -8.559977,2.52758 -13.577633,19.35896 -17.055533,30.61574 z"
       id="path2429"
       sodipodi:nodetypes="ccccc" /><path
       style="fill:#ffffff;fill-opacity:1;stroke:#ffffff;stroke-width:0.264583px;stroke-linecap:butt;stroke-linejoin:miter;stroke-opacity:0.956863"
       d="m 56.509198,139.28494 c -26.735387,6.20292 -22.211662,11.63334 -21.329773,16.98952 l 18.684689,62.54107 4.843087,3.74178 -19.243405,-63.34288 c -1.237252,-4.98465 -1.721717,-10.51445 13.479439,-13.63353 45.133386,-8.71247 76.692565,-8.41589 117.517775,0.60334 17.45183,4.98934 17.94332,8.11673 15.46648,15.43561 l -18.96539,60.40292 5.07812,-4.25483 19.49993,-60.95894 c 0.61012,-4.78049 4.43757,-8.78502 -23.88234,-16.53579 -28.31991,-7.75077 -84.413225,-7.1912 -111.148612,-0.98827 z"
       id="path2431"
       sodipodi:nodetypes="zcccccccccczz" /><path
       style="fill:#ffffff;fill-opacity:1;stroke:#ffffff;stroke-width:0.264583px;stroke-linecap:butt;stroke-linejoin:miter;stroke-opacity:0.956863"
       d="m 74.476103,257.30234 c 25.534167,-5.78951 55.269607,-5.5116 74.969097,0.53723 l 31.40417,-94.6161 c 0.66231,-4.20448 3.64772,-6.68857 -5.86918,-10.15893 -9.5169,-3.47036 -40.61722,-9.84607 -61.73926,-9.92927 -21.122034,-0.0832 -51.241259,3.82912 -60.41366,6.72472 -9.172401,2.8956 -8.004637,6.9223 -6.949006,10.95806 1.055631,4.03576 28.597839,96.48429 28.597839,96.48429 z"
       id="path2433"
       sodipodi:nodetypes="ccczzzzc" /><g
       id="g2447"
       transform="translate(6.322374,45.62488)"
       style="fill:#ffffff;fill-opacity:1;stroke:#ffffff;stroke-opacity:0.956863"><path
         style="display:inline;fill:#ffffff;fill-opacity:1;stroke:#ffffff;stroke-width:0.264583px;stroke-linecap:butt;stroke-linejoin:miter;stroke-opacity:0.956863"
         d="m 41.694047,108.24416 4.810849,-4.00905 c 0,0 23.219389,-5.213093 58.799294,-5.6234 35.5799,-0.410307 64.06734,8.16321 64.41196,9.88629 0,0 2.94941,1.96268 3.74177,3.7552 0.79236,1.79252 1.06908,5.34539 1.06908,5.34539 l -21.3735,65.20302 7.48623,-6.40372 18.96539,-60.40292 c 2.54998,-7.81873 -1.33724,-9.62875 -5.35614,-12.31051 -3.43459,-2.24673 -27.98075,-9.908303 -68.41025,-10.145497 -40.429498,-0.237194 -63.194569,2.410554 -66.809321,5.647584 -4.516827,4.063273 -6.69369,7.592623 -7.199799,13.888883 l 20.555217,63.857 6.943635,5.87992 -19.772572,-67.61918 z"
         id="path2435"
         sodipodi:nodetypes="cczczccccczcccccc" /><path
         style="fill:#ffffff;fill-opacity:1;stroke:#ffffff;stroke-width:0.264583px;stroke-linecap:butt;stroke-linejoin:miter;stroke-opacity:0.956863"
         d="m 36.348656,97.018836 c -3.442167,2.132768 -5.014776,3.953944 -5.612661,5.612664 -1.495574,2.67269 -1.315542,5.34539 -1.878944,8.01808 l 18.684689,62.54107 4.843087,3.74178 -19.243405,-63.34288 c 0.05404,-3.67815 -1.685156,-8.43 8.285353,-12.83163 44.116107,-10.041891 94.075485,-11.273273 134.174675,3.74178 2.01062,3.40848 4.33123,6.68388 4.00367,11.49527 l -18.96539,60.40292 5.07812,-4.25483 19.49993,-60.95894 c -1.00184,-3.97451 -1.87704,-9.57301 -6.94901,-13.096206 C 132.01122,84.747838 79.646715,85.846485 36.348656,97.018836 Z"
         id="path2437"
         sodipodi:nodetypes="cccccccccccccc" /><path
         style="fill:#ffffff;fill-opacity:1;stroke:#ffffff;stroke-width:0.264583px;stroke-linecap:butt;stroke-linejoin:miter;stroke-opacity:0.956863"
         d="M 36.348656,97.018834 Z"
         id="path2439" /><path
         style="fill:#ffffff;fill-opacity:1;stroke:#ffffff;stroke-width:0.264583px;stroke-linecap:butt;stroke-linejoin:miter;stroke-opacity:0.956863"
         d="M 50.186824,93.660057 C 23.451437,99.862984 27.975162,105.2934 28.857051,110.64958 l 18.684689,62.54107 4.843087,3.74178 -19.243405,-63.34288 C 31.90417,108.6049 31.419705,103.0751 46.620861,99.956017 c 45.133386,-8.712466 76.692569,-8.415891 117.517779,0.603343 17.45183,4.98934 17.94332,8.11673 15.46648,15.43561 l -18.96539,60.40292 5.07812,-4.25483 19.49993,-60.95894 c 0.61012,-4.78049 4.43757,-8.78502 -23.88234,-16.535789 C 133.01553,86.897563 76.922211,87.45713 50.186824,93.660057 Z"
         id="path2443"
         sodipodi:nodetypes="zcccccccccczz" /><path
         style="fill:#ffffff;fill-opacity:1;stroke:#ffffff;stroke-width:0.264583px;stroke-linecap:butt;stroke-linejoin:miter;stroke-opacity:0.956863"
         d="m 68.153729,211.67746 c 25.534163,-5.78951 55.269611,-5.5116 74.969101,0.53723 l 31.40417,-94.6161 c 0.66231,-4.20448 3.64772,-6.68857 -5.86918,-10.15893 -9.5169,-3.47036 -40.61722,-9.846073 -61.73926,-9.929265 -21.122038,-0.08319 -51.241263,3.829115 -60.413664,6.724715 -9.172401,2.8956 -8.004637,6.9223 -6.949006,10.95806 1.055631,4.03576 28.597839,96.48429 28.597839,96.48429 z"
         id="path2445"
         sodipodi:nodetypes="ccczzzzc" /></g></g><g
     id="g2493"
     transform="matrix(-1.1732943,0.80873344,0.80873344,1.1732943,258.30658,-84.034255)"
     style="display:inline;fill:#ffffff;fill-opacity:1;stroke:#ffffff;stroke-opacity:0.956863"><path
       style="display:inline;fill:#ffffff;fill-opacity:1;stroke:#ffffff;stroke-width:0.264583px;stroke-linecap:butt;stroke-linejoin:miter;stroke-opacity:0.956863"
       d="m 48.016421,153.86904 4.810849,-4.00905 c 0,0 23.219389,-5.21309 58.79929,-5.6234 35.5799,-0.41031 64.06734,8.16321 64.41196,9.88629 0,0 2.94941,1.96268 3.74177,3.7552 0.79236,1.79252 1.06908,5.34539 1.06908,5.34539 l -21.3735,65.20302 7.48623,-6.40372 18.96539,-60.40292 c 2.54998,-7.81873 -1.33724,-9.62875 -5.35614,-12.31051 -3.43459,-2.24673 -27.98075,-9.9083 -68.41025,-10.1455 -40.429494,-0.23719 -63.194565,2.41056 -66.809317,5.64759 -4.516827,4.06327 -5.381878,8.10674 -5.887987,14.403 l 19.243405,63.34288 6.943635,5.87992 -19.772572,-67.61918 z"
       id="path2467"
       sodipodi:nodetypes="cczczccccczcccccc" /><path
       style="fill:#ffffff;fill-opacity:1;stroke:#ffffff;stroke-width:0.264583px;stroke-linecap:butt;stroke-linejoin:miter;stroke-opacity:0.956863"
       d="m 42.67103,142.64372 c -3.442167,2.13276 -5.014776,3.95394 -5.612661,5.61266 -1.495574,2.67269 -1.315542,5.34539 -1.878944,8.01808 l 18.684689,62.54107 4.843087,3.74178 -19.243405,-63.34288 c 0.05404,-3.67815 -1.685156,-8.43 8.285353,-12.83163 44.116107,-10.04189 94.075481,-11.27327 134.174671,3.74178 2.01062,3.40848 4.33123,6.68388 4.00367,11.49527 l -18.96539,60.40292 5.07812,-4.25483 19.49993,-60.95894 c -1.00184,-3.97451 -1.87704,-9.57301 -6.94901,-13.09621 -46.25755,-13.34007 -98.622051,-12.24142 -141.92011,-1.06907 z"
       id="path2469"
       sodipodi:nodetypes="cccccccccccccc" /><path
       style="fill:#ffffff;fill-opacity:1;stroke:#ffffff;stroke-width:0.264583px;stroke-linecap:butt;stroke-linejoin:miter;stroke-opacity:0.956863"
       d="M 42.67103,142.64371 Z"
       id="path2471" /><path
       style="fill:#ffffff;fill-opacity:1;stroke:#ffffff;stroke-width:0.264583px;stroke-linecap:butt;stroke-linejoin:miter;stroke-opacity:0.956863"
       d="m 38.553466,129.29908 c 46.024699,-12.29779 105.543774,-10.74427 151.907084,2.3773 -2.3464,-11.61159 -6.90703,-29.57723 -18.06954,-32.239108 -29.06957,-6.136391 -79.352826,-9.00786 -114.499007,-2.119 -8.559977,2.52758 -15.860637,20.724028 -19.338537,31.980808 z"
       id="path2473"
       sodipodi:nodetypes="ccccc" /><path
       style="fill:#ffffff;fill-opacity:1;stroke:#ffffff;stroke-width:0.264583px;stroke-linecap:butt;stroke-linejoin:miter;stroke-opacity:0.956863"
       d="m 56.509198,139.28494 c -26.735387,6.20292 -22.211662,11.63334 -21.329773,16.98952 l 18.684689,62.54107 4.843087,3.74178 -19.243405,-63.34288 c -1.237252,-4.98465 -1.721717,-10.51445 13.479439,-13.63353 45.133386,-8.71247 76.692565,-8.41589 117.517775,0.60334 17.45183,4.98934 17.94332,8.11673 15.46648,15.43561 l -18.96539,60.40292 5.07812,-4.25483 19.49993,-60.95894 c 0.61012,-4.78049 4.43757,-8.78502 -23.88234,-16.53579 -28.31991,-7.75077 -84.413225,-7.1912 -111.148612,-0.98827 z"
       id="path2475"
       sodipodi:nodetypes="zcccccccccczz" /><path
       style="fill:#ffffff;fill-opacity:1;stroke:#ffffff;stroke-width:0.264583px;stroke-linecap:butt;stroke-linejoin:miter;stroke-opacity:0.956863"
       d="m 74.476103,257.30234 c 25.534167,-5.78951 55.269607,-5.5116 74.969097,0.53723 l 31.40417,-94.6161 c 0.66231,-4.20448 3.64772,-6.68857 -5.86918,-10.15893 -9.5169,-3.47036 -40.61722,-9.84607 -61.73926,-9.92927 -21.122034,-0.0832 -51.241259,3.82912 -60.41366,6.72472 -9.172401,2.8956 -8.004637,6.9223 -6.949006,10.95806 1.055631,4.03576 28.597839,96.48429 28.597839,96.48429 z"
       id="path2477"
       sodipodi:nodetypes="ccczzzzc" /><g
       id="g2491"
       transform="translate(6.322374,45.62488)"
       style="fill:#ffffff;fill-opacity:1;stroke:#ffffff;stroke-opacity:0.956863"><path
         style="display:inline;fill:#ffffff;fill-opacity:1;stroke:#ffffff;stroke-width:0.264583px;stroke-linecap:butt;stroke-linejoin:miter;stroke-opacity:0.956863"
         d="m 41.694047,108.24416 4.810849,-4.00905 c 0,0 23.219389,-5.213093 58.799294,-5.6234 35.5799,-0.410307 64.06734,8.16321 64.41196,9.88629 0,0 2.94941,1.96268 3.74177,3.7552 0.79236,1.79252 1.06908,5.34539 1.06908,5.34539 l -21.3735,65.20302 7.48623,-6.40372 18.96539,-60.40292 c 2.54998,-7.81873 -1.33724,-9.62875 -5.35614,-12.31051 -3.43459,-2.24673 -27.98075,-9.908303 -68.41025,-10.145497 -40.429498,-0.237194 -63.194569,2.410554 -66.809321,5.647584 -4.516827,4.063273 -6.634013,4.765163 -7.140122,11.061423 l 20.49554,66.68446 6.943635,5.87992 -19.772572,-67.61918 z"
         id="path2479"
         sodipodi:nodetypes="cczczccccczcccccc" /><path
         style="fill:#ffffff;fill-opacity:1;stroke:#ffffff;stroke-width:0.264583px;stroke-linecap:butt;stroke-linejoin:miter;stroke-opacity:0.956863"
         d="m 36.348656,97.018836 c -3.442167,2.132768 -5.014776,3.953944 -5.612661,5.612664 -1.495574,2.67269 -1.315542,5.34539 -1.878944,8.01808 l 18.684689,62.54107 4.843087,3.74178 -19.243405,-63.34288 c 0.05404,-3.67815 -1.685156,-8.43 8.285353,-12.83163 44.116107,-10.041891 94.075485,-11.273273 134.174675,3.74178 2.01062,3.40848 4.33123,6.68388 4.00367,11.49527 l -18.96539,60.40292 5.07812,-4.25483 19.49993,-60.95894 c -1.00184,-3.97451 -1.87704,-9.57301 -6.94901,-13.096206 C 132.01122,84.747838 79.646715,85.846485 36.348656,97.018836 Z"
         id="path2481"
         sodipodi:nodetypes="cccccccccccccc" /><path
         style="fill:#ffffff;fill-opacity:1;stroke:#ffffff;stroke-width:0.264583px;stroke-linecap:butt;stroke-linejoin:miter;stroke-opacity:0.956863"
         d="M 36.348656,97.018834 Z"
         id="path2483" /><path
         style="fill:#ffffff;fill-opacity:1;stroke:#ffffff;stroke-width:0.264583px;stroke-linecap:butt;stroke-linejoin:miter;stroke-opacity:0.956863"
         d="M 50.186824,93.660057 C 23.451437,99.862984 27.975162,105.2934 28.857051,110.64958 l 18.684689,62.54107 4.843087,3.74178 -19.243405,-63.34288 C 31.90417,108.6049 31.419705,103.0751 46.620861,99.956017 c 45.133386,-8.712466 76.692569,-8.415891 117.517779,0.603343 17.45183,4.98934 17.94332,8.11673 15.46648,15.43561 l -18.96539,60.40292 5.07812,-4.25483 19.49993,-60.95894 c 0.61012,-4.78049 4.43757,-8.78502 -23.88234,-16.535789 C 133.01553,86.897563 76.922211,87.45713 50.186824,93.660057 Z"
         id="path2487"
         sodipodi:nodetypes="zcccccccccczz" /><path
         style="fill:#ffffff;fill-opacity:1;stroke:#ffffff;stroke-width:0.264583px;stroke-linecap:butt;stroke-linejoin:miter;stroke-opacity:0.956863"
         d="m 68.153729,211.67746 c 25.534163,-5.78951 55.269611,-5.5116 74.969101,0.53723 l 31.40417,-94.6161 c 0.66231,-4.20448 3.64772,-6.68857 -5.86918,-10.15893 -9.5169,-3.47036 -40.61722,-9.846073 -61.73926,-9.929265 -21.122038,-0.08319 -51.241263,3.829115 -60.413664,6.724715 -9.172401,2.8956 -8.004637,6.9223 -6.949006,10.95806 1.055631,4.03576 28.597839,96.48429 28.597839,96.48429 z"
         id="path2489"
         sodipodi:nodetypes="ccczzzzc" /></g></g><g
     id="g2521"
     transform="matrix(-0.5192627,1.318857,1.318857,0.5192627,-37.844902,162.59682)"
     style="display:inline;fill:#ffffff;fill-opacity:1;stroke:#ffffff;stroke-opacity:0.956863"><path
       style="display:inline;fill:#ffffff;fill-opacity:1;stroke:#ffffff;stroke-width:0.264583px;stroke-linecap:butt;stroke-linejoin:miter;stroke-opacity:0.956863"
       d="m 48.016421,153.86904 4.810849,-4.00905 c 0,0 23.219389,-5.21309 58.79929,-5.6234 35.5799,-0.41031 64.06734,8.16321 64.41196,9.88629 0,0 2.94941,1.96268 3.74177,3.7552 0.79236,1.79252 1.06908,5.34539 1.06908,5.34539 l -21.3735,65.20302 7.48623,-6.40372 18.96539,-60.40292 c 2.54998,-7.81873 -1.33724,-9.62875 -5.35614,-12.31051 -3.43459,-2.24673 -27.98075,-9.9083 -68.41025,-10.1455 -40.429494,-0.23719 -63.194565,2.41056 -66.809317,5.64759 -4.516827,4.06327 -5.381878,8.10674 -5.887987,14.403 l 19.243405,63.34288 6.943635,5.87992 -19.772572,-67.61918 z"
       id="path2495"
       sodipodi:nodetypes="cczczccccczcccccc" /><path
       style="fill:#ffffff;fill-opacity:1;stroke:#ffffff;stroke-width:0.264583px;stroke-linecap:butt;stroke-linejoin:miter;stroke-opacity:0.956863"
       d="m 42.67103,142.64372 c -3.442167,2.13276 -5.014776,3.95394 -5.612661,5.61266 -1.495574,2.67269 -1.315542,5.34539 -1.878944,8.01808 l 18.684689,62.54107 4.843087,3.74178 -19.243405,-63.34288 c 0.05404,-3.67815 -1.685156,-8.43 8.285353,-12.83163 44.116107,-10.04189 94.075481,-11.27327 134.174671,3.74178 2.01062,3.40848 4.33123,6.68388 4.00367,11.49527 l -18.96539,60.40292 5.07812,-4.25483 19.49993,-60.95894 c -1.00184,-3.97451 -1.87704,-9.57301 -6.94901,-13.09621 -46.25755,-13.34007 -98.622051,-12.24142 -141.92011,-1.06907 z"
       id="path2497"
       sodipodi:nodetypes="cccccccccccccc" /><path
       style="fill:#ffffff;fill-opacity:1;stroke:#ffffff;stroke-width:0.264583px;stroke-linecap:butt;stroke-linejoin:miter;stroke-opacity:0.956863"
       d="M 42.67103,142.64371 Z"
       id="path2499" /><path
       style="fill:#ffffff;fill-opacity:1;stroke:#ffffff;stroke-width:0.264583px;stroke-linecap:butt;stroke-linejoin:miter;stroke-opacity:0.956863"
       d="m 35.169493,131.09925 c 46.024699,-12.29779 105.295387,-17.0113 151.658697,-3.88973 -2.3464,-11.61159 -6.9609,-25.16288 -18.12341,-27.824761 -29.06957,-6.136388 -81.363219,-5.146759 -116.5094,1.742111 -8.559977,2.52758 -13.547987,18.7156 -17.025887,29.97238 z"
       id="path2501"
       sodipodi:nodetypes="ccccc" /><path
       style="fill:#ffffff;fill-opacity:1;stroke:#ffffff;stroke-width:0.264583px;stroke-linecap:butt;stroke-linejoin:miter;stroke-opacity:0.956863"
       d="m 56.509198,139.28494 c -26.735387,6.20292 -22.211662,11.63334 -21.329773,16.98952 l 18.684689,62.54107 4.843087,3.74178 -19.243405,-63.34288 c -1.237252,-4.98465 -1.721717,-10.51445 13.479439,-13.63353 45.133386,-8.71247 76.692565,-8.41589 117.517775,0.60334 17.45183,4.98934 17.94332,8.11673 15.46648,15.43561 l -18.96539,60.40292 5.07812,-4.25483 19.49993,-60.95894 c 0.61012,-4.78049 4.43757,-8.78502 -23.88234,-16.53579 -28.31991,-7.75077 -84.413225,-7.1912 -111.148612,-0.98827 z"
       id="path2503"
       sodipodi:nodetypes="zcccccccccczz" /><path
       style="fill:#ffffff;fill-opacity:1;stroke:#ffffff;stroke-width:0.264583px;stroke-linecap:butt;stroke-linejoin:miter;stroke-opacity:0.956863"
       d="m 74.476103,257.30234 c 25.534167,-5.78951 55.269607,-5.5116 74.969097,0.53723 l 31.40417,-94.6161 c 0.66231,-4.20448 3.64772,-6.68857 -5.86918,-10.15893 -9.5169,-3.47036 -40.61722,-9.84607 -61.73926,-9.92927 -21.122034,-0.0832 -51.241259,3.82912 -60.41366,6.72472 -9.172401,2.8956 -8.004637,6.9223 -6.949006,10.95806 1.055631,4.03576 28.597839,96.48429 28.597839,96.48429 z"
       id="path2505"
       sodipodi:nodetypes="ccczzzzc" /><g
       id="g2519"
       transform="translate(6.322374,45.62488)"
       style="fill:#ffffff;fill-opacity:1;stroke:#ffffff;stroke-opacity:0.956863"><path
         style="display:inline;fill:#ffffff;fill-opacity:1;stroke:#ffffff;stroke-width:0.264583px;stroke-linecap:butt;stroke-linejoin:miter;stroke-opacity:0.956863"
         d="m 41.694047,108.24416 4.810849,-4.00905 c 0,0 23.219389,-5.213093 58.799294,-5.6234 35.5799,-0.410307 64.06734,8.16321 64.41196,9.88629 0,0 2.94941,1.96268 3.74177,3.7552 0.79236,1.79252 1.06908,5.34539 1.06908,5.34539 l -21.3735,65.20302 7.48623,-6.40372 18.96539,-60.40292 c 2.54998,-7.81873 -1.33724,-9.62875 -5.35614,-12.31051 -3.43459,-2.24673 -27.98075,-9.908303 -68.41025,-10.145497 -40.429498,-0.237194 -63.194569,2.410554 -66.809321,5.647584 -4.516827,4.063273 -5.381878,8.106743 -5.887987,14.403003 l 19.243405,63.34288 6.943635,5.87992 -19.772572,-67.61918 z"
         id="path2507"
         sodipodi:nodetypes="cczczccccczcccccc" /><path
         style="fill:#ffffff;fill-opacity:1;stroke:#ffffff;stroke-width:0.264583px;stroke-linecap:butt;stroke-linejoin:miter;stroke-opacity:0.956863"
         d="m 36.348656,97.018836 c -3.442167,2.132768 -5.014776,3.953944 -5.612661,5.612664 -1.495574,2.67269 -1.315542,5.34539 -1.878944,8.01808 l 18.684689,62.54107 4.843087,3.74178 -19.243405,-63.34288 c 0.05404,-3.67815 -1.685156,-8.43 8.285353,-12.83163 44.116107,-10.041891 94.075485,-11.273273 134.174675,3.74178 2.01062,3.40848 4.33123,6.68388 4.00367,11.49527 l -18.96539,60.40292 5.07812,-4.25483 19.49993,-60.95894 c -1.00184,-3.97451 -1.87704,-9.57301 -6.94901,-13.096206 C 132.01122,84.747838 79.646715,85.846485 36.348656,97.018836 Z"
         id="path2509"
         sodipodi:nodetypes="cccccccccccccc" /><path
         style="fill:#ffffff;fill-opacity:1;stroke:#ffffff;stroke-width:0.264583px;stroke-linecap:butt;stroke-linejoin:miter;stroke-opacity:0.956863"
         d="M 36.348656,97.018834 Z"
         id="path2511" /><path
         style="fill:#ffffff;fill-opacity:1;stroke:#ffffff;stroke-width:0.264583px;stroke-linecap:butt;stroke-linejoin:miter;stroke-opacity:0.956863"
         d="M 50.186824,93.660057 C 23.451437,99.862984 27.975162,105.2934 28.857051,110.64958 l 18.684689,62.54107 4.843087,3.74178 -17.673018,-61.78944 c -1.237252,-4.98465 -3.292104,-12.06789 11.909052,-15.186973 45.133386,-8.712466 76.692569,-8.415891 117.517779,0.603343 17.45183,4.98934 17.94332,8.11673 15.46648,15.43561 l -18.96539,60.40292 5.07812,-4.25483 19.49993,-60.95894 c 0.61012,-4.78049 4.43757,-8.78502 -23.88234,-16.535789 C 133.01553,86.897563 76.922211,87.45713 50.186824,93.660057 Z"
         id="path2515"
         sodipodi:nodetypes="zcccccccccczz" /><path
         style="fill:#ffffff;fill-opacity:1;stroke:#ffffff;stroke-width:0.264583px;stroke-linecap:butt;stroke-linejoin:miter;stroke-opacity:0.956863"
         d="m 68.153729,211.67746 c 25.534163,-5.78951 55.269611,-5.5116 74.969101,0.53723 l 31.40417,-94.6161 c 0.66231,-4.20448 3.64772,-6.68857 -5.86918,-10.15893 -9.5169,-3.47036 -40.61722,-9.846073 -61.73926,-9.929265 -21.122038,-0.08319 -51.241263,3.829115 -60.413664,6.724715 -9.172401,2.8956 -8.004637,6.9223 -6.949006,10.95806 1.055631,4.03576 28.597839,96.48429 28.597839,96.48429 z"
         id="path2517"
         sodipodi:nodetypes="ccczzzzc" /></g></g><g
     id="g2613"
     transform="matrix(-0.40820129,1.3961492,-1.3961492,-0.40820129,1159.5826,551.75527)"
     style="display:inline;fill:#ffffff;fill-opacity:1;stroke:#ffffff;stroke-opacity:0.956863"><path
       style="display:inline;fill:#ffffff;fill-opacity:1;stroke:#ffffff;stroke-width:0.264583px;stroke-linecap:butt;stroke-linejoin:miter;stroke-opacity:0.956863"
       d="m 48.016421,153.86904 4.810849,-4.00905 c 0,0 23.219389,-5.21309 58.79929,-5.6234 35.5799,-0.41031 64.06734,8.16321 64.41196,9.88629 0,0 2.94941,1.96268 3.74177,3.7552 0.79236,1.79252 1.06908,5.34539 1.06908,5.34539 l -21.3735,65.20302 7.48623,-6.40372 18.96539,-60.40292 c 2.54998,-7.81873 -1.33724,-9.62875 -5.35614,-12.31051 -3.43459,-2.24673 -27.98075,-9.9083 -68.41025,-10.1455 -40.429494,-0.23719 -63.194565,2.41056 -66.809317,5.64759 -4.516827,4.06327 -5.381878,8.10674 -5.887987,14.403 l 19.243405,63.34288 6.943635,5.87992 -19.772572,-67.61918 z"
       id="path2587"
       sodipodi:nodetypes="cczczccccczcccccc" /><path
       style="fill:#ffffff;fill-opacity:1;stroke:#ffffff;stroke-width:0.264583px;stroke-linecap:butt;stroke-linejoin:miter;stroke-opacity:0.956863"
       d="m 42.67103,142.64372 c -3.442167,2.13276 -5.014776,3.95394 -5.612661,5.61266 -1.495574,2.67269 -1.315542,5.34539 -1.878944,8.01808 l 18.684689,62.54107 4.843087,3.74178 -19.243405,-63.34288 c 0.05404,-3.67815 -1.685156,-8.43 8.285353,-12.83163 44.116107,-10.04189 94.075481,-11.27327 134.174671,3.74178 2.01062,3.40848 4.33123,6.68388 4.00367,11.49527 l -18.96539,60.40292 5.07812,-4.25483 19.49993,-60.95894 c -1.00184,-3.97451 -1.87704,-9.57301 -6.94901,-13.09621 -46.25755,-13.34007 -98.622051,-12.24142 -141.92011,-1.06907 z"
       id="path2589"
       sodipodi:nodetypes="cccccccccccccc" /><path
       style="fill:#ffffff;fill-opacity:1;stroke:#ffffff;stroke-width:0.264583px;stroke-linecap:butt;stroke-linejoin:miter;stroke-opacity:0.956863"
       d="M 42.67103,142.64371 Z"
       id="path2591" /><path
       style="fill:#ffffff;fill-opacity:1;stroke:#ffffff;stroke-width:0.264583px;stroke-linecap:butt;stroke-linejoin:miter;stroke-opacity:0.956863"
       d="m 38.163249,129.90217 c 46.024699,-12.29779 103.758891,-12.31708 150.122201,0.80449 -2.3464,-11.61159 -6.9275,-28.68653 -18.09001,-31.348407 -29.06957,-6.13639 -78.085721,-4.727563 -113.231902,2.161297 -8.559977,2.52758 -15.322389,17.12584 -18.800289,28.38262 z"
       id="path2593"
       sodipodi:nodetypes="ccccc" /><path
       style="fill:#ffffff;fill-opacity:1;stroke:#ffffff;stroke-width:0.264583px;stroke-linecap:butt;stroke-linejoin:miter;stroke-opacity:0.956863"
       d="m 56.509198,139.28494 c -26.735387,6.20292 -22.211662,11.63334 -21.329773,16.98952 l 18.684689,62.54107 4.843087,3.74178 -19.243405,-63.34288 c -1.237252,-4.98465 -1.721717,-10.51445 13.479439,-13.63353 45.133386,-8.71247 76.692565,-8.41589 117.517775,0.60334 17.45183,4.98934 17.94332,8.11673 15.46648,15.43561 l -18.96539,60.40292 5.07812,-4.25483 19.49993,-60.95894 c 0.61012,-4.78049 4.43757,-8.78502 -23.88234,-16.53579 -28.31991,-7.75077 -84.413225,-7.1912 -111.148612,-0.98827 z"
       id="path2595"
       sodipodi:nodetypes="zcccccccccczz" /><path
       style="fill:#ffffff;fill-opacity:1;stroke:#ffffff;stroke-width:0.264583px;stroke-linecap:butt;stroke-linejoin:miter;stroke-opacity:0.956863"
       d="m 74.476103,257.30234 c 25.534167,-5.78951 55.269607,-5.5116 74.969097,0.53723 l 31.40417,-94.6161 c 0.66231,-4.20448 3.64772,-6.68857 -5.86918,-10.15893 -9.5169,-3.47036 -40.61722,-9.84607 -61.73926,-9.92927 -21.122034,-0.0832 -51.241259,3.82912 -60.41366,6.72472 -9.172401,2.8956 -8.004637,6.9223 -6.949006,10.95806 1.055631,4.03576 28.597839,96.48429 28.597839,96.48429 z"
       id="path2597"
       sodipodi:nodetypes="ccczzzzc" /><g
       id="g2611"
       transform="translate(6.322374,45.62488)"
       style="fill:#ffffff;fill-opacity:1;stroke:#ffffff;stroke-opacity:0.956863"><path
         style="display:inline;fill:#ffffff;fill-opacity:1;stroke:#ffffff;stroke-width:0.264583px;stroke-linecap:butt;stroke-linejoin:miter;stroke-opacity:0.956863"
         d="m 41.694047,108.24416 4.810849,-4.00905 c 0,0 23.219389,-5.213093 58.799294,-5.6234 35.5799,-0.410307 64.06734,8.16321 64.41196,9.88629 0,0 2.94941,1.96268 3.74177,3.7552 0.79236,1.79252 1.06908,5.34539 1.06908,5.34539 l -21.3735,65.20302 7.48623,-6.40372 18.96539,-60.40292 c 2.54998,-7.81873 -1.33724,-9.62875 -5.35614,-12.31051 -3.43459,-2.24673 -27.98075,-9.908303 -68.41025,-10.145497 -40.429498,-0.237194 -63.194569,2.410554 -66.809321,5.647584 -4.516827,4.063273 -5.381878,8.106743 -5.887987,14.403003 l 19.243405,63.34288 6.943635,5.87992 -19.772572,-67.61918 z"
         id="path2599"
         sodipodi:nodetypes="cczczccccczcccccc" /><path
         style="fill:#ffffff;fill-opacity:1;stroke:#ffffff;stroke-width:0.264583px;stroke-linecap:butt;stroke-linejoin:miter;stroke-opacity:0.956863"
         d="m 36.348656,97.018836 c -3.442167,2.132768 -5.014776,3.953944 -5.612661,5.612664 -1.495574,2.67269 -1.315542,5.34539 -1.878944,8.01808 l 18.684689,62.54107 4.843087,3.74178 -19.243405,-63.34288 c 0.05404,-3.67815 -1.685156,-8.43 8.285353,-12.83163 44.116107,-10.041891 94.075485,-11.273273 134.174675,3.74178 2.01062,3.40848 4.33123,6.68388 4.00367,11.49527 l -18.96539,60.40292 5.07812,-4.25483 19.49993,-60.95894 c -1.00184,-3.97451 -1.87704,-9.57301 -6.94901,-13.096206 C 132.01122,84.747838 79.646715,85.846485 36.348656,97.018836 Z"
         id="path2601"
         sodipodi:nodetypes="cccccccccccccc" /><path
         style="fill:#ffffff;fill-opacity:1;stroke:#ffffff;stroke-width:0.264583px;stroke-linecap:butt;stroke-linejoin:miter;stroke-opacity:0.956863"
         d="M 36.348656,97.018834 Z"
         id="path2603" /><path
         style="fill:#ffffff;fill-opacity:1;stroke:#ffffff;stroke-width:0.264583px;stroke-linecap:butt;stroke-linejoin:miter;stroke-opacity:0.956863"
         d="M 50.186824,93.660057 C 23.451437,99.862984 27.975162,105.2934 28.857051,110.64958 l 18.684689,62.54107 4.843087,3.74178 -19.243405,-63.34288 c 3.904221,-8.54911 -1.721717,-10.51445 13.479439,-13.633533 45.133386,-8.712466 76.692569,-8.415891 117.517779,0.603343 17.45183,4.98934 17.94332,8.11673 15.46648,15.43561 l -18.96539,60.40292 5.07812,-4.25483 19.49993,-60.95894 c 0.61012,-4.78049 4.43757,-8.78502 -23.88234,-16.535789 C 133.01553,86.897563 76.922211,87.45713 50.186824,93.660057 Z"
         id="path2607"
         sodipodi:nodetypes="zcccccccccczz" /><path
         style="fill:#ffffff;fill-opacity:1;stroke:#ffffff;stroke-width:0.264583px;stroke-linecap:butt;stroke-linejoin:miter;stroke-opacity:0.956863"
         d="m 68.153729,211.67746 c 25.534163,-5.78951 55.269611,-5.5116 74.969101,0.53723 l 31.40417,-94.6161 c 0.66231,-4.20448 3.64772,-6.68857 -5.86918,-10.15893 -9.5169,-3.47036 -40.61722,-9.846073 -61.73926,-9.929265 -21.122038,-0.08319 -51.241263,3.829115 -60.413664,6.724715 -9.172401,2.8956 -8.004637,6.9223 -6.949006,10.95806 1.055631,4.03576 28.597839,96.48429 28.597839,96.48429 z"
         id="path2609"
         sodipodi:nodetypes="ccczzzzc" /></g></g><g
     id="g2685"
     transform="matrix(-1.1153318,0.88236926,-0.88236926,-1.1153318,1011.5355,927.49858)"
     style="display:inline;fill:#ffffff;fill-opacity:1;stroke:#ffffff;stroke-opacity:0.956863"><path
       style="display:inline;fill:#ffffff;fill-opacity:1;stroke:#ffffff;stroke-width:0.264583px;stroke-linecap:butt;stroke-linejoin:miter;stroke-opacity:0.956863"
       d="m 48.016421,153.86904 4.810849,-4.00905 c 0,0 23.219389,-5.21309 58.79929,-5.6234 35.5799,-0.41031 64.06734,8.16321 64.41196,9.88629 0,0 2.94941,1.96268 3.74177,3.7552 0.79236,1.79252 1.06908,5.34539 1.06908,5.34539 l -21.3735,65.20302 7.48623,-6.40372 18.96539,-60.40292 c 2.54998,-7.81873 -1.33724,-9.62875 -5.35614,-12.31051 -3.43459,-2.24673 -27.98075,-9.9083 -68.41025,-10.1455 -40.429494,-0.23719 -63.194565,2.41056 -66.809317,5.64759 -4.516827,4.06327 -5.381878,8.10674 -5.887987,14.403 l 19.243405,63.34288 6.943635,5.87992 -19.772572,-67.61918 z"
       id="path2659"
       sodipodi:nodetypes="cczczccccczcccccc" /><path
       style="fill:#ffffff;fill-opacity:1;stroke:#ffffff;stroke-width:0.264583px;stroke-linecap:butt;stroke-linejoin:miter;stroke-opacity:0.956863"
       d="m 42.67103,142.64372 c -3.442167,2.13276 -5.014776,3.95394 -5.612661,5.61266 -1.495574,2.67269 -1.315542,5.34539 -1.878944,8.01808 l 18.684689,62.54107 4.843087,3.74178 -19.243405,-63.34288 c 0.05404,-3.67815 -1.685156,-8.43 8.285353,-12.83163 44.116107,-10.04189 94.075481,-11.27327 134.174671,3.74178 2.01062,3.40848 4.33123,6.68388 4.00367,11.49527 l -18.96539,60.40292 5.07812,-4.25483 19.49993,-60.95894 c -1.00184,-3.97451 -1.87704,-9.57301 -6.94901,-13.09621 -46.25755,-13.34007 -98.622051,-12.24142 -141.92011,-1.06907 z"
       id="path2661"
       sodipodi:nodetypes="cccccccccccccc" /><path
       style="fill:#ffffff;fill-opacity:1;stroke:#ffffff;stroke-width:0.264583px;stroke-linecap:butt;stroke-linejoin:miter;stroke-opacity:0.956863"
       d="M 42.67103,142.64371 Z"
       id="path2663" /><path
       style="fill:#ffffff;fill-opacity:1;stroke:#ffffff;stroke-width:0.264583px;stroke-linecap:butt;stroke-linejoin:miter;stroke-opacity:0.956863"
       d="m 38.537196,130.07307 c 46.024699,-12.29779 103.758884,-12.31708 150.122194,0.80449 -2.3464,-11.61159 -9.29717,-28.36121 -20.45968,-31.023086 -29.06957,-6.136393 -77.879269,-6.870063 -113.02545,0.0188 -8.559977,2.527576 -13.159164,18.943016 -16.637064,30.199796 z"
       id="path2665"
       sodipodi:nodetypes="ccccc" /><path
       style="fill:#ffffff;fill-opacity:1;stroke:#ffffff;stroke-width:0.264583px;stroke-linecap:butt;stroke-linejoin:miter;stroke-opacity:0.956863"
       d="m 56.509198,139.28494 c -26.735387,6.20292 -22.211662,11.63334 -21.329773,16.98952 l 18.684689,62.54107 4.843087,3.74178 -19.243405,-63.34288 c -1.237252,-4.98465 -1.721717,-10.51445 13.479439,-13.63353 45.133386,-8.71247 76.692565,-8.41589 117.517775,0.60334 17.45183,4.98934 17.94332,8.11673 15.46648,15.43561 l -18.96539,60.40292 5.07812,-4.25483 19.49993,-60.95894 c 0.61012,-4.78049 4.43757,-8.78502 -23.88234,-16.53579 -28.31991,-7.75077 -84.413225,-7.1912 -111.148612,-0.98827 z"
       id="path2667"
       sodipodi:nodetypes="zcccccccccczz" /><path
       style="fill:#ffffff;fill-opacity:1;stroke:#ffffff;stroke-width:0.264583px;stroke-linecap:butt;stroke-linejoin:miter;stroke-opacity:0.956863"
       d="m 74.476103,257.30234 c 25.534167,-5.78951 55.269607,-5.5116 74.969097,0.53723 l 31.40417,-94.6161 c 0.66231,-4.20448 3.64772,-6.68857 -5.86918,-10.15893 -9.5169,-3.47036 -40.61722,-9.84607 -61.73926,-9.92927 -21.122034,-0.0832 -51.241259,3.82912 -60.41366,6.72472 -9.172401,2.8956 -8.004637,6.9223 -6.949006,10.95806 1.055631,4.03576 28.597839,96.48429 28.597839,96.48429 z"
       id="path2669"
       sodipodi:nodetypes="ccczzzzc" /><g
       id="g2683"
       transform="translate(6.322374,45.62488)"
       style="fill:#ffffff;fill-opacity:1;stroke:#ffffff;stroke-opacity:0.956863"><path
         style="display:inline;fill:#ffffff;fill-opacity:1;stroke:#ffffff;stroke-width:0.264583px;stroke-linecap:butt;stroke-linejoin:miter;stroke-opacity:0.956863"
         d="m 41.694047,108.24416 4.810849,-4.00905 c 0,0 23.219389,-5.213093 58.799294,-5.6234 35.5799,-0.410307 64.06734,8.16321 64.41196,9.88629 0,0 2.94941,1.96268 3.74177,3.7552 0.79236,1.79252 1.06908,5.34539 1.06908,5.34539 l -21.3735,65.20302 7.48623,-6.40372 18.96539,-60.40292 c 2.54998,-7.81873 -1.33724,-9.62875 -5.35614,-12.31051 -3.43459,-2.24673 -27.98075,-9.908303 -68.41025,-10.145497 -40.429498,-0.237194 -63.194569,2.410554 -66.809321,5.647584 -4.516827,4.063273 -5.381878,8.106743 -5.887987,14.403003 l 19.243405,63.34288 6.943635,5.87992 -19.772572,-67.61918 z"
         id="path2671"
         sodipodi:nodetypes="cczczccccczcccccc" /><path
         style="fill:#ffffff;fill-opacity:1;stroke:#ffffff;stroke-width:0.264583px;stroke-linecap:butt;stroke-linejoin:miter;stroke-opacity:0.956863"
         d="m 36.348656,97.018836 c -3.442167,2.132768 -5.014776,3.953944 -5.612661,5.612664 -1.495574,2.67269 -1.315542,5.34539 -1.878944,8.01808 l 18.684689,62.54107 4.843087,3.74178 -19.243405,-63.34288 c 0.05404,-3.67815 -1.685156,-8.43 8.285353,-12.83163 44.116107,-10.041891 94.075485,-11.273273 134.174675,3.74178 2.01062,3.40848 4.33123,6.68388 4.00367,11.49527 l -18.96539,60.40292 5.07812,-4.25483 19.49993,-60.95894 c -1.00184,-3.97451 -1.87704,-9.57301 -6.94901,-13.096206 C 132.01122,84.747838 79.646715,85.846485 36.348656,97.018836 Z"
         id="path2673"
         sodipodi:nodetypes="cccccccccccccc" /><path
         style="fill:#ffffff;fill-opacity:1;stroke:#ffffff;stroke-width:0.264583px;stroke-linecap:butt;stroke-linejoin:miter;stroke-opacity:0.956863"
         d="M 36.348656,97.018834 Z"
         id="path2675" /><path
         style="fill:#ffffff;fill-opacity:1;stroke:#ffffff;stroke-width:0.264583px;stroke-linecap:butt;stroke-linejoin:miter;stroke-opacity:0.956863"
         d="M 50.186824,93.660057 C 23.451437,99.862984 27.975162,105.2934 28.857051,110.64958 l 18.684689,62.54107 4.843087,3.74178 -19.243405,-63.34288 c 4.278287,-3.56994 -1.721717,-10.51445 13.479439,-13.633533 45.133386,-8.712466 76.692569,-8.415891 117.517779,0.603343 17.45183,4.98934 17.94332,8.11673 15.46648,15.43561 l -18.96539,60.40292 5.07812,-4.25483 19.49993,-60.95894 c 0.61012,-4.78049 4.43757,-8.78502 -23.88234,-16.535789 C 133.01553,86.897563 76.922211,87.45713 50.186824,93.660057 Z"
         id="path2679"
         sodipodi:nodetypes="zcccccccccczz" /><path
         style="fill:#ffffff;fill-opacity:1;stroke:#ffffff;stroke-width:0.264583px;stroke-linecap:butt;stroke-linejoin:miter;stroke-opacity:0.956863"
         d="m 68.153729,211.67746 c 25.534163,-5.78951 55.269611,-5.5116 74.969101,0.53723 l 31.40417,-94.6161 c 0.66231,-4.20448 3.64772,-6.68857 -5.86918,-10.15893 -9.5169,-3.47036 -40.61722,-9.846073 -61.73926,-9.929265 -21.122038,-0.08319 -51.241263,3.829115 -60.413664,6.724715 -9.172401,2.8956 -8.004637,6.9223 -6.949006,10.95806 1.055631,4.03576 28.597839,96.48429 28.597839,96.48429 z"
         id="path2681"
         sodipodi:nodetypes="ccczzzzc" /></g></g><g
     id="g2729"
     transform="matrix(0.41053913,1.3936111,1.3936111,-0.41053913,-157.95358,552.33842)"
     style="display:inline;fill:#ffffff;fill-opacity:1;stroke:#ffffff;stroke-opacity:0.956863"><path
       style="display:inline;fill:#ffffff;fill-opacity:1;stroke:#ffffff;stroke-width:0.264583px;stroke-linecap:butt;stroke-linejoin:miter;stroke-opacity:0.956863"
       d="m 48.016421,153.86904 4.810849,-4.00905 c 0,0 23.219389,-5.21309 58.79929,-5.6234 35.5799,-0.41031 64.06734,8.16321 64.41196,9.88629 0,0 2.94941,1.96268 3.74177,3.7552 0.79236,1.79252 1.06908,5.34539 1.06908,5.34539 l -21.3735,65.20302 7.48623,-6.40372 18.96539,-60.40292 c 2.54998,-7.81873 -1.33724,-9.62875 -5.35614,-12.31051 -3.43459,-2.24673 -27.98075,-9.9083 -68.41025,-10.1455 -40.429494,-0.23719 -63.194565,2.41056 -66.809317,5.64759 -4.516827,4.06327 -5.381878,8.10674 -5.887987,14.403 l 19.243405,63.34288 6.943635,5.87992 -19.772572,-67.61918 z"
       id="path2703"
       sodipodi:nodetypes="cczczccccczcccccc" /><path
       style="fill:#ffffff;fill-opacity:1;stroke:#ffffff;stroke-width:0.264583px;stroke-linecap:butt;stroke-linejoin:miter;stroke-opacity:0.956863"
       d="m 42.67103,142.64372 c -3.442167,2.13276 -5.014776,3.95394 -5.612661,5.61266 -1.495574,2.67269 -1.315542,5.34539 -1.878944,8.01808 l 18.684689,62.54107 4.843087,3.74178 -19.243405,-63.34288 c 0.05404,-3.67815 -1.685156,-8.43 8.285353,-12.83163 44.116107,-10.04189 94.075481,-11.27327 134.174671,3.74178 2.01062,3.40848 4.33123,6.68388 4.00367,11.49527 l -18.96539,60.40292 5.07812,-4.25483 19.49993,-60.95894 c -1.00184,-3.97451 -1.87704,-9.57301 -6.94901,-13.09621 -46.25755,-13.34007 -98.622051,-12.24142 -141.92011,-1.06907 z"
       id="path2705"
       sodipodi:nodetypes="cccccccccccccc" /><path
       style="fill:#ffffff;fill-opacity:1;stroke:#ffffff;stroke-width:0.264583px;stroke-linecap:butt;stroke-linejoin:miter;stroke-opacity:0.956863"
       d="M 42.67103,142.64371 Z"
       id="path2707" /><path
       style="fill:#ffffff;fill-opacity:1;stroke:#ffffff;stroke-width:0.264583px;stroke-linecap:butt;stroke-linejoin:miter;stroke-opacity:0.956863"
       d="m 39.083634,131.0839 c 46.024699,-12.29779 103.758886,-12.31708 150.122196,0.80449 -2.3464,-11.61159 -5.7478,-25.77517 -16.91031,-28.43705 -29.06957,-6.136385 -77.879268,-6.870055 -113.025449,0.0188 -8.559977,2.52758 -16.708537,16.35698 -20.186437,27.61376 z"
       id="path2709"
       sodipodi:nodetypes="ccccc" /><path
       style="fill:#ffffff;fill-opacity:1;stroke:#ffffff;stroke-width:0.264583px;stroke-linecap:butt;stroke-linejoin:miter;stroke-opacity:0.956863"
       d="m 56.509198,139.28494 c -26.735387,6.20292 -22.211662,11.63334 -21.329773,16.98952 l 18.684689,62.54107 4.843087,3.74178 -19.243405,-63.34288 c -1.237252,-4.98465 -1.721717,-10.51445 13.479439,-13.63353 45.133386,-8.71247 76.692565,-8.41589 117.517775,0.60334 17.45183,4.98934 17.94332,8.11673 15.46648,15.43561 l -18.96539,60.40292 5.07812,-4.25483 19.49993,-60.95894 c 0.61012,-4.78049 4.43757,-8.78502 -23.88234,-16.53579 -28.31991,-7.75077 -84.413225,-7.1912 -111.148612,-0.98827 z"
       id="path2711"
       sodipodi:nodetypes="zcccccccccczz" /><path
       style="fill:#ffffff;fill-opacity:1;stroke:#ffffff;stroke-width:0.264583px;stroke-linecap:butt;stroke-linejoin:miter;stroke-opacity:0.956863"
       d="m 74.476103,257.30234 c 25.534167,-5.78951 55.269607,-5.5116 74.969097,0.53723 l 31.40417,-94.6161 c 0.66231,-4.20448 3.64772,-6.68857 -5.86918,-10.15893 -9.5169,-3.47036 -40.61722,-9.84607 -61.73926,-9.92927 -21.122034,-0.0832 -51.241259,3.82912 -60.41366,6.72472 -9.172401,2.8956 -8.004637,6.9223 -6.949006,10.95806 1.055631,4.03576 28.597839,96.48429 28.597839,96.48429 z"
       id="path2713"
       sodipodi:nodetypes="ccczzzzc" /><g
       id="g2727"
       transform="translate(6.322374,45.62488)"
       style="fill:#ffffff;fill-opacity:1;stroke:#ffffff;stroke-opacity:0.956863"><path
         style="display:inline;fill:#ffffff;fill-opacity:1;stroke:#ffffff;stroke-width:0.264583px;stroke-linecap:butt;stroke-linejoin:miter;stroke-opacity:0.956863"
         d="m 41.694047,108.24416 4.810849,-4.00905 c 0,0 23.219389,-5.213093 58.799294,-5.6234 35.5799,-0.410307 64.06734,8.16321 64.41196,9.88629 0,0 2.94941,1.96268 3.74177,3.7552 0.79236,1.79252 1.06908,5.34539 1.06908,5.34539 l -21.3735,65.20302 7.48623,-6.40372 18.96539,-60.40292 c 2.54998,-7.81873 -1.33724,-9.62875 -5.35614,-12.31051 -3.43459,-2.24673 -27.98075,-9.908303 -68.41025,-10.145497 -40.429498,-0.237194 -63.194569,2.410554 -66.809321,5.647584 -4.516827,4.063273 -5.381878,8.106743 -5.887987,14.403003 l 19.243405,63.34288 6.943635,5.87992 -19.772572,-67.61918 z"
         id="path2715"
         sodipodi:nodetypes="cczczccccczcccccc" /><path
         style="fill:#ffffff;fill-opacity:1;stroke:#ffffff;stroke-width:0.264583px;stroke-linecap:butt;stroke-linejoin:miter;stroke-opacity:0.956863"
         d="m 36.348656,97.018836 c -3.442167,2.132768 -5.014776,3.953944 -5.612661,5.612664 -1.495574,2.67269 -1.315542,5.34539 -1.878944,8.01808 l 18.684689,62.54107 4.843087,3.74178 -19.243405,-63.34288 c 0.05404,-3.67815 -1.685156,-8.43 8.285353,-12.83163 44.116107,-10.041891 94.075485,-11.273273 134.174675,3.74178 2.01062,3.40848 4.33123,6.68388 4.00367,11.49527 l -18.96539,60.40292 5.07812,-4.25483 19.49993,-60.95894 c -1.00184,-3.97451 -1.87704,-9.57301 -6.94901,-13.096206 C 132.01122,84.747838 79.646715,85.846485 36.348656,97.018836 Z"
         id="path2717"
         sodipodi:nodetypes="cccccccccccccc" /><path
         style="fill:#ffffff;fill-opacity:1;stroke:#ffffff;stroke-width:0.264583px;stroke-linecap:butt;stroke-linejoin:miter;stroke-opacity:0.956863"
         d="M 36.348656,97.018834 Z"
         id="path2719" /><path
         style="fill:#ffffff;fill-opacity:1;stroke:#ffffff;stroke-width:0.264583px;stroke-linecap:butt;stroke-linejoin:miter;stroke-opacity:0.956863"
         d="M 50.186824,93.660057 C 23.451437,99.862984 27.975162,105.2934 28.857051,110.64958 l 18.684689,62.54107 4.843087,3.74178 -16.400639,-62.70534 c -1.237252,-4.98465 -4.564483,-11.15199 10.636673,-14.271073 45.133386,-8.712466 76.692569,-8.415891 117.517779,0.603343 17.45183,4.98934 17.94332,8.11673 15.46648,15.43561 l -18.96539,60.40292 5.07812,-4.25483 19.49993,-60.95894 c 0.61012,-4.78049 4.43757,-8.78502 -23.88234,-16.535789 C 133.01553,86.897563 76.922211,87.45713 50.186824,93.660057 Z"
         id="path2723"
         sodipodi:nodetypes="zcccccccccczz" /><path
         style="fill:#ffffff;fill-opacity:1;stroke:#ffffff;stroke-width:0.264583px;stroke-linecap:butt;stroke-linejoin:miter;stroke-opacity:0.956863"
         d="m 68.153729,211.67746 c 25.534163,-5.78951 55.269611,-5.5116 74.969101,0.53723 l 31.40417,-94.6161 c 0.66231,-4.20448 3.64772,-6.68857 -5.86918,-10.15893 -9.5169,-3.47036 -40.61722,-9.846073 -61.73926,-9.929265 -21.122038,-0.08319 -51.241263,3.829115 -60.413664,6.724715 -9.172401,2.8956 -8.004637,6.9223 -6.949006,10.95806 1.055631,4.03576 28.597839,96.48429 28.597839,96.48429 z"
         id="path2725"
         sodipodi:nodetypes="ccczzzzc" /></g></g><g
     id="g2757"
     transform="matrix(1.1711414,0.83922181,0.83922181,-1.1711414,-8.7981393,943.49531)"
     style="display:inline;fill:#ffffff;fill-opacity:1;stroke:#ffffff;stroke-opacity:0.956863"><path
       style="display:inline;fill:#ffffff;fill-opacity:1;stroke:#ffffff;stroke-width:0.264583px;stroke-linecap:butt;stroke-linejoin:miter;stroke-opacity:0.956863"
       d="m 48.016421,153.86904 4.810849,-4.00905 c 0,0 23.219389,-5.21309 58.79929,-5.6234 35.5799,-0.41031 64.06734,8.16321 64.41196,9.88629 0,0 2.94941,1.96268 3.74177,3.7552 0.79236,1.79252 1.06908,5.34539 1.06908,5.34539 l -21.3735,65.20302 7.48623,-6.40372 18.96539,-60.40292 c 2.54998,-7.81873 -1.33724,-9.62875 -5.35614,-12.31051 -3.43459,-2.24673 -27.98075,-9.9083 -68.41025,-10.1455 -40.429494,-0.23719 -63.194565,2.41056 -66.809317,5.64759 -4.516827,4.06327 -5.381878,8.10674 -5.887987,14.403 l 19.243405,63.34288 6.943635,5.87992 -19.772572,-67.61918 z"
       id="path2731"
       sodipodi:nodetypes="cczczccccczcccccc" /><path
       style="fill:#ffffff;fill-opacity:1;stroke:#ffffff;stroke-width:0.264583px;stroke-linecap:butt;stroke-linejoin:miter;stroke-opacity:0.956863"
       d="m 42.67103,142.64372 c -3.442167,2.13276 -5.014776,3.95394 -5.612661,5.61266 -1.495574,2.67269 -1.315542,5.34539 -1.878944,8.01808 l 18.684689,62.54107 4.843087,3.74178 -19.243405,-63.34288 c 0.05404,-3.67815 -1.685156,-8.43 8.285353,-12.83163 44.116107,-10.04189 94.075481,-11.27327 134.174671,3.74178 2.01062,3.40848 4.33123,6.68388 4.00367,11.49527 l -18.96539,60.40292 5.07812,-4.25483 19.49993,-60.95894 c -1.00184,-3.97451 -1.87704,-9.57301 -6.94901,-13.09621 -46.25755,-13.34007 -98.622051,-12.24142 -141.92011,-1.06907 z"
       id="path2733"
       sodipodi:nodetypes="cccccccccccccc" /><path
       style="fill:#ffffff;fill-opacity:1;stroke:#ffffff;stroke-width:0.264583px;stroke-linecap:butt;stroke-linejoin:miter;stroke-opacity:0.956863"
       d="M 42.67103,142.64371 Z"
       id="path2735" /><path
       style="fill:#ffffff;fill-opacity:1;stroke:#ffffff;stroke-width:0.264583px;stroke-linecap:butt;stroke-linejoin:miter;stroke-opacity:0.956863"
       d="M 37.401756,126.59349 C 83.426455,114.2957 141.16064,114.27641 187.52395,127.39798 185.17755,115.78639 180.27048,96.021657 169.10797,93.359776 140.0384,87.223386 91.228696,86.489716 56.082515,93.378576 47.522538,95.906157 40.879656,115.33671 37.401756,126.59349 Z"
       id="path2737"
       sodipodi:nodetypes="ccccc" /><path
       style="fill:#ffffff;fill-opacity:1;stroke:#ffffff;stroke-width:0.264583px;stroke-linecap:butt;stroke-linejoin:miter;stroke-opacity:0.956863"
       d="m 56.509198,139.28494 c -26.735387,6.20292 -22.211662,11.63334 -21.329773,16.98952 l 18.684689,62.54107 4.843087,3.74178 -19.243405,-63.34288 c -1.237252,-4.98465 -1.721717,-10.51445 13.479439,-13.63353 45.133386,-8.71247 76.692565,-8.41589 117.517775,0.60334 17.45183,4.98934 17.94332,8.11673 15.46648,15.43561 l -18.96539,60.40292 5.07812,-4.25483 19.49993,-60.95894 c 0.61012,-4.78049 4.43757,-8.78502 -23.88234,-16.53579 -28.31991,-7.75077 -84.413225,-7.1912 -111.148612,-0.98827 z"
       id="path2739"
       sodipodi:nodetypes="zcccccccccczz" /><path
       style="fill:#ffffff;fill-opacity:1;stroke:#ffffff;stroke-width:0.264583px;stroke-linecap:butt;stroke-linejoin:miter;stroke-opacity:0.956863"
       d="m 74.476103,257.30234 c 25.534167,-5.78951 55.269607,-5.5116 74.969097,0.53723 l 31.40417,-94.6161 c 0.66231,-4.20448 3.64772,-6.68857 -5.86918,-10.15893 -9.5169,-3.47036 -40.61722,-9.84607 -61.73926,-9.92927 -21.122034,-0.0832 -51.241259,3.82912 -60.41366,6.72472 -9.172401,2.8956 -8.004637,6.9223 -6.949006,10.95806 1.055631,4.03576 28.597839,96.48429 28.597839,96.48429 z"
       id="path2741"
       sodipodi:nodetypes="ccczzzzc" /><g
       id="g2755"
       transform="translate(6.322374,45.62488)"
       style="fill:#ffffff;fill-opacity:1;stroke:#ffffff;stroke-opacity:0.956863"><path
         style="display:inline;fill:#ffffff;fill-opacity:1;stroke:#ffffff;stroke-width:0.264583px;stroke-linecap:butt;stroke-linejoin:miter;stroke-opacity:0.956863"
         d="m 41.694047,108.24416 4.810849,-4.00905 c 0,0 23.219389,-5.213093 58.799294,-5.6234 35.5799,-0.410307 64.06734,8.16321 64.41196,9.88629 0,0 2.94941,1.96268 3.74177,3.7552 0.79236,1.79252 1.06908,5.34539 1.06908,5.34539 l -21.3735,65.20302 7.48623,-6.40372 18.96539,-60.40292 c 2.54998,-7.81873 -1.33724,-9.62875 -5.35614,-12.31051 -3.43459,-2.24673 -27.98075,-9.908303 -68.41025,-10.145497 -40.429498,-0.237194 -63.194569,2.410554 -66.809321,5.647584 -4.516827,4.063273 -5.381878,8.106743 -5.887987,14.403003 l 19.243405,63.34288 6.943635,5.87992 -19.772572,-67.61918 z"
         id="path2743"
         sodipodi:nodetypes="cczczccccczcccccc" /><path
         style="fill:#ffffff;fill-opacity:1;stroke:#ffffff;stroke-width:0.264583px;stroke-linecap:butt;stroke-linejoin:miter;stroke-opacity:0.956863"
         d="m 36.348656,97.018836 c -3.442167,2.132768 -5.014776,3.953944 -5.612661,5.612664 -1.495574,2.67269 -1.315542,5.34539 -1.878944,8.01808 l 18.684689,62.54107 4.843087,3.74178 -19.243405,-63.34288 c 0.05404,-3.67815 -1.685156,-8.43 8.285353,-12.83163 44.116107,-10.041891 94.075485,-11.273273 134.174675,3.74178 2.01062,3.40848 4.33123,6.68388 4.00367,11.49527 l -18.96539,60.40292 5.07812,-4.25483 19.49993,-60.95894 c -1.00184,-3.97451 -1.87704,-9.57301 -6.94901,-13.096206 C 132.01122,84.747838 79.646715,85.846485 36.348656,97.018836 Z"
         id="path2745"
         sodipodi:nodetypes="cccccccccccccc" /><path
         style="fill:#ffffff;fill-opacity:1;stroke:#ffffff;stroke-width:0.264583px;stroke-linecap:butt;stroke-linejoin:miter;stroke-opacity:0.956863"
         d="M 36.348656,97.018834 Z"
         id="path2747" /><path
         style="fill:#ffffff;fill-opacity:1;stroke:#ffffff;stroke-width:0.264583px;stroke-linecap:butt;stroke-linejoin:miter;stroke-opacity:0.956863"
         d="M 50.186824,93.660057 C 23.451437,99.862984 27.975162,105.2934 28.857051,110.64958 l 18.684689,62.54107 4.843087,3.74178 -19.243405,-63.34288 C 31.90417,108.6049 31.419705,103.0751 46.620861,99.956017 c 45.133386,-8.712466 76.692569,-8.415891 117.517779,0.603343 17.45183,4.98934 17.94332,8.11673 15.46648,15.43561 l -18.96539,60.40292 5.07812,-4.25483 19.49993,-60.95894 c 0.61012,-4.78049 4.43757,-8.78502 -23.88234,-16.535789 C 133.01553,86.897563 76.922211,87.45713 50.186824,93.660057 Z"
         id="path2751"
         sodipodi:nodetypes="zcccccccccczz" /><path
         style="fill:#ffffff;fill-opacity:1;stroke:#ffffff;stroke-width:0.264583px;stroke-linecap:butt;stroke-linejoin:miter;stroke-opacity:0.956863"
         d="m 68.153729,211.67746 c 25.534163,-5.78951 55.269611,-5.5116 74.969101,0.53723 l 31.40417,-94.6161 c 0.66231,-4.20448 3.64772,-6.68857 -5.86918,-10.15893 -9.5169,-3.47036 -40.61722,-9.846073 -61.73926,-9.929265 -21.122038,-0.08319 -51.241263,3.829115 -60.413664,6.724715 -9.172401,2.8956 -8.004637,6.9223 -6.949006,10.95806 1.055631,4.03576 28.597839,96.48429 28.597839,96.48429 z"
         id="path2753"
         sodipodi:nodetypes="ccczzzzc" /></g></g><path
     style="display:inline;fill:#ffffff;fill-opacity:1;stroke:#ffffff;stroke-width:14.5424;stroke-linecap:round;stroke-linejoin:round;stroke-opacity:0.956863"
     id="path2793"
     sodipodi:type="arc"
     sodipodi:cx="498.64673"
     sodipodi:cy="530.79785"
     sodipodi:rx="227.3584"
     sodipodi:ry="221.52007"
     sodipodi:start="0"
     sodipodi:end="6.270392"
     sodipodi:open="true"
     sodipodi:arc-type="arc"
     d="M 726.00513,530.79785 A 227.3584,221.52007 0 0 1 499.37389,752.31678 227.3584,221.52007 0 0 1 271.29298,532.21483 227.3584,221.52007 0 0 1 496.46526,309.28798 227.3584,221.52007 0 0 1 725.98652,527.96395" /></g></svg>
