<?xml version="1.0" encoding="UTF-8" standalone="no"?>
<svg
   width="64mm"
   height="64mm"
   viewBox="0 0 64 64"
   version="1.1"
   id="svg6751"
   inkscape:version="1.2.2 (732a01da63, 2022-12-09)"
   sodipodi:docname="icon_help_menu_x96.svg"
   xmlns:inkscape="http://www.inkscape.org/namespaces/inkscape"
   xmlns:sodipodi="http://sodipodi.sourceforge.net/DTD/sodipodi-0.dtd"
   xmlns="http://www.w3.org/2000/svg"
   xmlns:svg="http://www.w3.org/2000/svg"
   xmlns:rdf="http://www.w3.org/1999/02/22-rdf-syntax-ns#"
   xmlns:cc="http://creativecommons.org/ns#"
   xmlns:dc="http://purl.org/dc/elements/1.1/">
  <defs
     id="defs6745" />
  <sodipodi:namedview
     id="base"
     pagecolor="#303030"
     bordercolor="#666666"
     borderopacity="1.0"
     inkscape:pageopacity="0"
     inkscape:pageshadow="2"
     inkscape:zoom="3.8060851"
     inkscape:cx="106.93402"
     inkscape:cy="104.43802"
     inkscape:document-units="mm"
     inkscape:current-layer="layer1"
     inkscape:document-rotation="0"
     showgrid="false"
     inkscape:window-width="1920"
     inkscape:window-height="991"
     inkscape:window-x="-9"
     inkscape:window-y="-9"
     inkscape:window-maximized="1"
     inkscape:showpageshadow="2"
     inkscape:pagecheckerboard="0"
     inkscape:deskcolor="#d1d1d1" />
  <metadata
     id="metadata6748">
    <rdf:RDF>
      <cc:Work
         rdf:about="">
        <dc:format>image/svg+xml</dc:format>
        <dc:type
           rdf:resource="http://purl.org/dc/dcmitype/StillImage" />
      </cc:Work>
    </rdf:RDF>
  </metadata>
  <g
     inkscape:label="Layer 1"
     inkscape:groupmode="layer"
     id="layer1">
    <circle
       style="fill:none;fill-opacity:0.493036;stroke:#ffffff;stroke-width:2.45453;stroke-linecap:round;stroke-linejoin:round;stroke-dasharray:none;stroke-opacity:1"
       id="path297"
       cx="32"
       cy="32"
       r="28.61198" />
    <g
       aria-label="?"
       id="text1375"
       style="font-size:50.8px;font-family:HYGothic-Extra;-inkscape-font-specification:HYGothic-Extra;text-align:center;text-anchor:middle;fill:none;fill-opacity:0.493036;stroke:#ffffff;stroke-width:2.1;stroke-linecap:round;stroke-linejoin:round">
      <path
         d="m 35.993555,44.203907 h -7.689453 v 7.639844 h 7.689453 z m -0.496093,-3.621484 q 0,-2.778125 0.74414,-4.167188 0.595313,-1.141015 2.480469,-2.430859 3.274219,-2.430859 4.663281,-4.514453 1.686719,-2.480469 1.686719,-5.804297 0,-6.895703 -5.605859,-9.773047 -3.373438,-1.736328 -7.838282,-1.736328 -5.109765,0 -8.582421,2.778125 -4.117578,3.323828 -4.117578,9.822656 h 7.441406 v -0.04961 q 0,-2.480469 1.041797,-4.067969 1.438672,-2.133203 4.663281,-2.133203 1.984375,0 3.373437,1.041797 1.736328,1.438672 1.736328,4.365625 0,1.835547 -0.892968,3.274219 -0.744141,1.289843 -2.38125,2.530078 -3.472657,2.38125 -4.514453,4.71289 -0.892969,1.934766 -0.892969,6.151563 z"
         id="path1489" />
    </g>
  </g>
</svg>
