<?xml version="1.0" encoding="utf-8"?>
<!-- Svg Vector Icons : http://www.onlinewebfonts.com/icon -->
<!DOCTYPE svg PUBLIC "-//W3C//DTD SVG 1.1//EN" "http://www.w3.org/Graphics/SVG/1.1/DTD/svg11.dtd">
<svg version="1.1" xmlns="http://www.w3.org/2000/svg" xmlns:xlink="http://www.w3.org/1999/xlink" x="0px" y="0px" viewBox="0 0 1000 1000" enable-background="new 0 0 1000 1000" xml:space="preserve">
<metadata> Svg Vector Icons : http://www.onlinewebfonts.com/icon </metadata>
<g><path fill="white" d="M982,982.1c-10.6,10.8-27.7,10.8-38.4,0L644.4,678.9c-2.3-2.4-5.5-6.5-8.8-11.3v270.5c0,15.2-12.1,27.5-27.2,27.5c-15,0-27.2-12.3-27.2-27.5V635.6v-27c0-15.2,12.1-27.5,27.2-27.5h326.1c14.9,0,27.2,12.3,27.2,27.5c0,15.1-12.2,27.4-27.2,27.4H678.6L982,943.3C992.7,954.1,992.7,971.5,982,982.1L982,982.1z M935,472.4c-15,0-27.3-12.1-27.3-27.2V309.1V145.8c0-30-24.4-54.4-54.4-54.4H635.6h-54.4H554c-15,0-27.3-12.1-27.3-27.2c0-15.1,12.2-27.3,27.3-27.3h81.6h245c45,0,81.6,36.6,81.6,81.7v190.5v136.1C962.2,460.2,950.1,472.4,935,472.4L935,472.4z M445.1,962.3H336.2H118.5c-45,0-81.6-36.5-81.6-81.6V717.3v-27.2V554c0-15,12.1-27.3,27.3-27.3c15,0,27.2,12.2,27.2,27.3v136.1v27.2v136.2c0,30,24.4,54.4,54.4,54.4h190.5h54.4h54.4c15.1,0,27.3,12.1,27.3,27.3C472.4,950.2,460.1,962.3,445.1,962.3L445.1,962.3z M390.8,418H65.4c-15,0-27.1-12.2-27.1-27.4c0-15.1,12.1-27.4,27.1-27.4h255.3L17.9,56.6c-10.6-10.7-10.6-28,0-38.7c10.6-10.8,27.8-10.8,38.3,0l298.6,302.7c2.4,2.4,5.5,6.5,8.8,11.3v-270c0-15.1,12-27.4,27.1-27.4c15,0,27.2,12.3,27.2,27.4v328.7C417.9,405.7,405.8,418,390.8,418L390.8,418z"/></g>
</svg>