<?xml version="1.0" encoding="UTF-8" standalone="no"?>
<!-- Created with Inkscape (http://www.inkscape.org/) -->

<svg
   width="1000"
   height="1000"
   viewBox="0 0 264.58333 264.58333"
   version="1.1"
   id="svg5"
   xml:space="preserve"
   inkscape:version="1.3 (0e150ed6c4, 2023-07-21)"
   sodipodi:docname="icon_invert_selection_x96.svg"
   xmlns:inkscape="http://www.inkscape.org/namespaces/inkscape"
   xmlns:sodipodi="http://sodipodi.sourceforge.net/DTD/sodipodi-0.dtd"
   xmlns="http://www.w3.org/2000/svg"
   xmlns:svg="http://www.w3.org/2000/svg"><sodipodi:namedview
     id="namedview7"
     pagecolor="#000000"
     bordercolor="#000000"
     borderopacity="0.25"
     inkscape:showpageshadow="2"
     inkscape:pageopacity="0"
     inkscape:pagecheckerboard="0"
     inkscape:deskcolor="#d1d1d1"
     inkscape:document-units="px"
     showgrid="false"
     inkscape:zoom="0.70199215"
     inkscape:cx="294.87509"
     inkscape:cy="537.7553"
     inkscape:window-width="2560"
     inkscape:window-height="1350"
     inkscape:window-x="0"
     inkscape:window-y="0"
     inkscape:window-maximized="1"
     inkscape:current-layer="layer1"
     showguides="true" /><defs
     id="defs2" /><g
     inkscape:label="Layer 1"
     inkscape:groupmode="layer"
     id="layer1"><g
       id="g24"
       style="opacity:0.95"
       transform="matrix(0.97663554,0,0,0.97663554,1.6169742,4.1936718)"><path
         id="path1"
         style="fill:#ffffff;stroke-width:0.79375;stroke-dasharray:none"
         d="m 132.29166,42.777309 a 89.514526,89.514526 0 0 0 -89.514351,89.514351 89.514526,89.514526 0 0 0 89.514351,89.51436 89.514526,89.514526 0 0 0 89.51436,-89.51436 89.514526,89.514526 0 0 0 -89.51436,-89.514351 z m 0,15.732683 a 73.781667,73.781667 0 0 1 73.78168,73.781668 73.781667,73.781667 0 0 1 -73.78168,73.78168 73.781667,73.781667 0 0 1 -73.781668,-73.78168 73.781667,73.781667 0 0 1 73.781668,-73.781668 z" /><path
         style="fill:#000000;fill-opacity:0;stroke:#ffffff;stroke-width:21.1667;stroke-dasharray:none;stroke-opacity:1"
         d="M 242.34898,23.36802 20.729695,241.97208"
         id="path5" /><path
         id="path17"
         style="fill:#ffffff;fill-opacity:1;stroke:#ffffff;stroke-width:17.8898;stroke-dasharray:none;stroke-opacity:1"
         d="m 190.22091,86.049009 -49.88687,49.887391 68.38187,-13.2705 a 75.338036,75.338036 0 0 0 -18.495,-36.616891 z m -50.96949,50.969501 -55.367166,55.36768 a 75.338036,75.338036 0 0 0 54.481946,19.88405 75.338036,75.338036 0 0 0 71.72947,-75.25173 z" /><path
         id="rect20"
         style="fill:#ffffff;fill-opacity:1;stroke:none;stroke-width:15.875;stroke-dasharray:none;stroke-opacity:1"
         d="m 32.344279,10.17664 c -10.819256,0 -19.529557,8.709784 -19.529557,19.52904 v 202.91319 c 0,10.81926 8.710301,19.52956 19.529557,19.52956 H 235.25747 c 10.81926,0 19.52956,-8.7103 19.52956,-19.52956 V 29.70568 c 0,-10.819256 -8.7103,-19.52904 -19.52956,-19.52904 z M 46.724796,27.325464 H 220.87644 c 9.28568,0 16.76125,7.475565 16.76125,16.76125 V 218.23836 c 0,9.28568 -7.47557,16.76125 -16.76125,16.76125 H 46.724796 c -9.285685,0 -16.760734,-7.47557 -16.760734,-16.76125 V 44.086714 c 0,-9.285685 7.475049,-16.76125 16.760734,-16.76125 z" /></g></g></svg>
