<?xml version="1.0" encoding="utf-8"?>
<!-- Svg Vector Icons : http://www.onlinewebfonts.com/icon -->
<!DOCTYPE svg PUBLIC "-//W3C//DTD SVG 1.1//EN" "http://www.w3.org/Graphics/SVG/1.1/DTD/svg11.dtd">
<svg version="1.1" xmlns="http://www.w3.org/2000/svg" xmlns:xlink="http://www.w3.org/1999/xlink" x="0px" y="0px" viewBox="0 0 1000 1000" enable-background="new 0 0 1000 1000" xml:space="preserve">
<metadata> Svg Vector Icons : http://www.onlinewebfonts.com/icon </metadata>
<g><path fill="white" d="M10.5,57.6c-3.4-14.7,10.9-31,26.7-35.7c32.3-9.5,65.7-14.3,99-14.3c179.9,0,366.4,170.5,397.2,354.2h6.2c2,0,4.1,0.2,6.1,0.5l2.6,0.4c13,1.9,43.5,6.4,62.2,36.2c7.5,12,11.3,25.1,11.3,38.8c0,16.7-5.7,30.2-10.5,38.7c-0.9,1.6-2,3.2-3.2,4.7L466.5,660.4c-14.9,19.6-39.2,31.6-64.6,31.6c-25.4,0-49.7-12-65-32.1L195.6,481c-10.1-13-15.5-28.5-15.5-44c0-13.6,4-26.8,11.8-39.2c15.1-24,39.4-36.1,72.4-36h1.3c-13.3-119-118.8-251.1-218.7-280.4C31,76.7,10.5,66.7,10.5,57.6z M536.8,436.1h-36.6c-19.7,0-36-15.4-37.1-35.1c-8-141.4-148.4-290.2-286.9-315.4c95.3,75.1,172.6,198.1,164.3,315.8c-1.3,19.5-17.5,34.7-37.1,34.7h-39.4c-5.3,0-7.6,0.4-8.6,0.7l140.2,177.4c1.7,2.3,3.9,3.3,6.2,3.3c2.3,0,4.5-1,5.8-2.8l139.4-176.5c-2-1-6.9-1.7-9.6-2.1L536.8,436.1z"/><path fill="white" d="M990,260.9v594.3c0,75.7-61.6,137.2-137.2,137.2H211.9c-75.7,0-137.2-61.6-137.2-137.2V570.4h78.4v284.8c0,32.4,26.4,58.8,58.8,58.8h640.8c32.4,0,58.8-26.4,58.8-58.8V260.9c0-32.4-26.4-58.8-58.8-58.8H625.3v-78.4h227.4C928.4,123.7,990,185.2,990,260.9z"/></g>
</svg>
