<?xml version="1.0" encoding="utf-8"?>
<!-- Svg Vector Icons : http://www.onlinewebfonts.com/icon -->
<!DOCTYPE svg PUBLIC "-//W3C//DTD SVG 1.1//EN" "http://www.w3.org/Graphics/SVG/1.1/DTD/svg11.dtd">
<svg version="1.1" xmlns="http://www.w3.org/2000/svg" xmlns:xlink="http://www.w3.org/1999/xlink" x="0px" y="0px" viewBox="0 0 1000 1000" enable-background="new 0 0 1000 1000" xml:space="preserve">
<metadata> Svg Vector Icons : http://www.onlinewebfonts.com/icon </metadata>
<g><g transform="translate(0.000000,511.000000) scale(0.100000,-0.100000)"><path fill="white" d="M8547.5,4223.2c-191.7-63.9-296.5-130.4-439.6-283.7c-117.6-125.2-222.3-319.5-255.6-472.8l-17.9-79.2l-516.3-69c-283.7-38.3-1316.3-178.9-2292.6-311.8c-976.4-135.5-1796.8-245.4-1822.4-250.5c-33.2-2.6-61.3,30.7-99.7,122.7c-319.5,756.5-1145,1147.6-1914.4,907.3C729,3643,309.8,3226.4,169.2,2766.4C-99.2,1899.9,440.2,967,1314.3,780.4c391.1-81.8,777-20.4,1157.8,186.6c20.4,12.8,2185.3-1988.5,2175.1-2008.9c-2.6-7.7-48.6-135.5-99.7-283.7c-92-260.7-94.6-278.6-97.1-639c0-309.3,10.2-403.8,58.8-570c207-720.8,766.8-1272.8,1487.5-1467.1c232.6-63.9,815.4-63.9,1047.9,0C7612-3845.8,8090-3457.3,8360.9-2935.9c166.1,324.6,227.5,582.7,224.9,958.5c-5.1,695.2-276,1226.8-866.4,1699.7l-81.8,63.9l618.5,1201.3l616,1198.7l161,33.2c449.9,89.5,782.1,426.8,853.7,866.4c74.1,444.7-168.7,894.6-585.3,1091.4C9079.1,4279.4,8775,4299.9,8547.5,4223.2z M8496.3,3832.2c117.6-117.6-97.1-531.6-276-531.6c-117.6,0-138,140.6-48.6,324.6C8261.2,3809.2,8419.7,3908.8,8496.3,3832.2z M1022.9,3131.8c84.4-222.4-219.8-633.9-362.9-490.7c-115,115,104.8,531.6,278.6,531.6C976.9,3172.7,1012.7,3154.8,1022.9,3131.8z M7926.4,2822.6c81.8-191.7,299-431.9,442.2-490.7c46-20.5,81.8-48.6,81.8-63.9s-263.3-539.3-582.7-1165.5c-411.5-805.1-593-1134.8-618.5-1129.7c-20.4,5.1-125.3,33.3-230,61.4c-260.7,69-708,74.1-971.2,10.2c-219.8-53.7-554.6-201.9-731-324.6c-69-46-194.3-155.9-283.7-242.8l-158.4-161L3836.9,274.4l-1035.1,958.5l89.5,120.1c184,237.7,319.5,610.9,319.5,881.8c0,66.5,7.7,120.1,20.4,120.1c10.2,2.6,1042.8,143.1,2292.6,316.9c1252.4,173.8,2287.5,316.9,2300.3,319.5C7839.5,2991.3,7885.5,2917.2,7926.4,2822.6z M6060.6-569.1c122.7-51.1,176.4-166.1,176.4-386c0-503.5-432-1157.8-838.3-1267.7c-130.4-35.8-250.5,15.4-314.4,135.5c-58.8,112.5-58.8,396.2,5.1,582.7c155.9,472.8,470.3,853.7,777,948.3C5960.9-528.2,5963.5-528.2,6060.6-569.1z"/></g></g>
</svg>
