<?xml version="1.0" encoding="UTF-8" standalone="no"?>
<svg
   width="256"
   height="256"
   viewBox="0 0 67.733331 67.733331"
   version="1.1"
   id="svg6751"
   inkscape:version="1.3.2 (091e20ef0f, 2023-11-25, custom)"
   sodipodi:docname="icon_show_hidden_objects_96px.svg"
   xmlns:inkscape="http://www.inkscape.org/namespaces/inkscape"
   xmlns:sodipodi="http://sodipodi.sourceforge.net/DTD/sodipodi-0.dtd"
   xmlns="http://www.w3.org/2000/svg"
   xmlns:svg="http://www.w3.org/2000/svg"
   xmlns:rdf="http://www.w3.org/1999/02/22-rdf-syntax-ns#"
   xmlns:cc="http://creativecommons.org/ns#"
   xmlns:dc="http://purl.org/dc/elements/1.1/">
  <defs
     id="defs6745" />
  <sodipodi:namedview
     id="base"
     pagecolor="#303030"
     bordercolor="#666666"
     borderopacity="1.0"
     inkscape:pageopacity="0"
     inkscape:pageshadow="2"
     inkscape:zoom="0.70710678"
     inkscape:cx="7.0710678"
     inkscape:cy="203.64675"
     inkscape:document-units="mm"
     inkscape:current-layer="layer1"
     inkscape:document-rotation="0"
     showgrid="false"
     inkscape:window-width="2524"
     inkscape:window-height="1050"
     inkscape:window-x="36"
     inkscape:window-y="0"
     inkscape:window-maximized="1"
     inkscape:showpageshadow="2"
     inkscape:pagecheckerboard="0"
     inkscape:deskcolor="#d1d1d1"
     showguides="true"
     inkscape:guide-bbox="true"
     inkscape:snap-global="false"
     units="px"
     width="241.88977px" />
  <metadata
     id="metadata6748">
    <rdf:RDF>
      <cc:Work
         rdf:about="">
        <dc:format>image/svg+xml</dc:format>
        <dc:type
           rdf:resource="http://purl.org/dc/dcmitype/StillImage" />
      </cc:Work>
    </rdf:RDF>
  </metadata>
  <g
     inkscape:label="Layer 1"
     inkscape:groupmode="layer"
     id="layer1">
    <path
       id="path18939"
       style="display:inline;opacity:1;mix-blend-mode:normal;fill:none;fill-opacity:1;fill-rule:evenodd;stroke:#ffffff;stroke-width:2.422525;stroke-linecap:round;stroke-linejoin:round;stroke-miterlimit:4;stroke-dasharray:2.422525,4.84505;stroke-dashoffset:0;stroke-opacity:1;paint-order:normal"
       d="m 4.1680865,18.726125 c -0.246215,8.282043 6.2647745,15.197519 14.5466235,15.450223 8.281833,0.252633 15.201992,-6.252927 15.461138,-14.534561 l 0.0012,-0.04653 C 34.410259,11.312788 27.888607,4.4076187 19.399363,4.3494634 10.91012,4.2913081 4.4064957,10.705771 4.1680865,18.726125 Z"
       sodipodi:nodetypes="cccccc" />
    <g
       id="g2"
       transform="matrix(0.03657605,0,0,0.03672333,29.363029,30.925139)">
      <g
         id="g1"
         transform="matrix(1.3286548,0,0,1.3286548,124.64388,-50.24377)">
        <path
           fill="#ffffff"
           d="m 118.63896,81.833996 c -270.6,0 -490,222.700004 -490,311.800004 0,89.1 219.4,311.8 490,311.8 270.6,0 490,-222.7 490,-311.8 0,-89.1 -219.4,-311.800004 -490,-311.800004 z m 0,534.500004 c -122.9999992,0 -222.7,-99.7 -222.7,-222.7 0,-123 99.7000008,-222.7 222.7,-222.7 123,0 222.7,99.7 222.7,222.7 0,123 -99.7,222.7 -222.7,222.7 z"
           id="path1" />
        <path
           fill="#ffffff"
           d="m 118.63896,238.934 c -85.399999,0 -154.699999,69.3 -154.699999,154.7 0,85.4 69.3,154.7 154.699999,154.7 85.4,0 154.7,-69.2 154.7,-154.7 0,-85.4 -69.3,-154.7 -154.7,-154.7 z"
           id="path2" />
      </g>
    </g>
  </g>
</svg>
