<?xml version="1.0" encoding="UTF-8" standalone="no"?>
<svg
   width="256"
   height="256"
   viewBox="0 0 67.733331 67.733331"
   version="1.1"
   id="svg6751"
   inkscape:version="1.3 (0e150ed6c4, 2023-07-21)"
   sodipodi:docname="icon_show_hydrogens.svg"
   xmlns:inkscape="http://www.inkscape.org/namespaces/inkscape"
   xmlns:sodipodi="http://sodipodi.sourceforge.net/DTD/sodipodi-0.dtd"
   xmlns="http://www.w3.org/2000/svg"
   xmlns:svg="http://www.w3.org/2000/svg"
   xmlns:rdf="http://www.w3.org/1999/02/22-rdf-syntax-ns#"
   xmlns:cc="http://creativecommons.org/ns#"
   xmlns:dc="http://purl.org/dc/elements/1.1/">
  <defs
     id="defs6745" />
  <sodipodi:namedview
     id="base"
     pagecolor="#303030"
     bordercolor="#666666"
     borderopacity="1.0"
     inkscape:pageopacity="0"
     inkscape:pageshadow="2"
     inkscape:zoom="0.70710678"
     inkscape:cx="70.710678"
     inkscape:cy="158.39192"
     inkscape:document-units="mm"
     inkscape:current-layer="layer1"
     inkscape:document-rotation="0"
     showgrid="false"
     inkscape:window-width="2528"
     inkscape:window-height="1050"
     inkscape:window-x="32"
     inkscape:window-y="0"
     inkscape:window-maximized="1"
     inkscape:showpageshadow="2"
     inkscape:pagecheckerboard="0"
     inkscape:deskcolor="#d1d1d1"
     showguides="true"
     inkscape:guide-bbox="true"
     inkscape:snap-global="false"
     units="px"
     width="241.88977px" />
  <metadata
     id="metadata6748">
    <rdf:RDF>
      <cc:Work
         rdf:about="">
        <dc:format>image/svg+xml</dc:format>
        <dc:type
           rdf:resource="http://purl.org/dc/dcmitype/StillImage" />
      </cc:Work>
    </rdf:RDF>
  </metadata>
  <g
     inkscape:label="Layer 1"
     inkscape:groupmode="layer"
     id="layer1">
    <path
       id="path18939"
       style="display:inline;opacity:1;mix-blend-mode:normal;fill:#ffffff;fill-opacity:1;fill-rule:evenodd;stroke:none;stroke-width:5.09977;stroke-linecap:square;stroke-miterlimit:4;stroke-dasharray:none;stroke-dashoffset:0;stroke-opacity:1"
       d="m 20.211323,4.2336456 c -0.118692,-8.088e-4 -0.237317,1.2e-6 -0.356001,0.00188 C 11.370613,4.3707798 4.4926144,11.154485 4.2404814,19.636523 c -0.2603881,8.75879 6.6254006,16.072349 15.3839856,16.3396 8.758569,0.267175 16.07708,-6.612871 16.351143,-15.371229 l 0.0013,-0.04921 C 36.223515,11.796444 29.32645,4.4937857 20.567405,4.2403842 c -0.118644,-0.00352 -0.237315,-0.00588 -0.356,-0.00669 z m -7.135817,7.3089584 h 3.634126 v 6.739719 h 6.812622 v -6.739719 h 3.634125 v 17.186469 h -3.634125 v -7.41345 h -6.812622 v 7.41345 h -3.634126 z" />
    <g
       id="g2"
       transform="matrix(0.03657605,0,0,0.03672333,29.363029,30.925139)">
      <g
         id="g1"
         transform="matrix(1.3286548,0,0,1.3286548,124.64388,-50.24377)">
        <path
           fill="#ffffff"
           d="m 118.63896,81.833996 c -270.6,0 -490,222.700004 -490,311.800004 0,89.1 219.4,311.8 490,311.8 270.6,0 490,-222.7 490,-311.8 0,-89.1 -219.4,-311.800004 -490,-311.800004 z m 0,534.500004 c -122.9999992,0 -222.7,-99.7 -222.7,-222.7 0,-123 99.7000008,-222.7 222.7,-222.7 123,0 222.7,99.7 222.7,222.7 0,123 -99.7,222.7 -222.7,222.7 z"
           id="path1" />
        <path
           fill="#ffffff"
           d="m 118.63896,238.934 c -85.399999,0 -154.699999,69.3 -154.699999,154.7 0,85.4 69.3,154.7 154.699999,154.7 85.4,0 154.7,-69.2 154.7,-154.7 0,-85.4 -69.3,-154.7 -154.7,-154.7 z"
           id="path2" />
      </g>
    </g>
  </g>
</svg>
