<?xml version="1.0" encoding="UTF-8" standalone="no"?>
<svg
   width="256"
   height="256"
   viewBox="0 0 67.733331 67.733331"
   version="1.1"
   id="svg6751"
   inkscape:version="1.3.2 (091e20ef0f, 2023-11-25, custom)"
   sodipodi:docname="icon_hide_selected_16px.svg"
   xmlns:inkscape="http://www.inkscape.org/namespaces/inkscape"
   xmlns:sodipodi="http://sodipodi.sourceforge.net/DTD/sodipodi-0.dtd"
   xmlns="http://www.w3.org/2000/svg"
   xmlns:svg="http://www.w3.org/2000/svg"
   xmlns:rdf="http://www.w3.org/1999/02/22-rdf-syntax-ns#"
   xmlns:cc="http://creativecommons.org/ns#"
   xmlns:dc="http://purl.org/dc/elements/1.1/">
  <defs
     id="defs6745" />
  <sodipodi:namedview
     id="base"
     pagecolor="#303030"
     bordercolor="#666666"
     borderopacity="1.0"
     inkscape:pageopacity="0"
     inkscape:pageshadow="2"
     inkscape:zoom="1"
     inkscape:cx="115"
     inkscape:cy="146"
     inkscape:document-units="mm"
     inkscape:current-layer="g4"
     inkscape:document-rotation="0"
     showgrid="false"
     inkscape:window-width="2524"
     inkscape:window-height="1050"
     inkscape:window-x="36"
     inkscape:window-y="0"
     inkscape:window-maximized="1"
     inkscape:showpageshadow="2"
     inkscape:pagecheckerboard="0"
     inkscape:deskcolor="#d1d1d1"
     showguides="true"
     inkscape:guide-bbox="true"
     inkscape:snap-global="false"
     units="px"
     width="241.88977px" />
  <metadata
     id="metadata6748">
    <rdf:RDF>
      <cc:Work
         rdf:about="">
        <dc:format>image/svg+xml</dc:format>
        <dc:type
           rdf:resource="http://purl.org/dc/dcmitype/StillImage" />
      </cc:Work>
    </rdf:RDF>
  </metadata>
  <g
     inkscape:label="Layer 1"
     inkscape:groupmode="layer"
     id="layer1">
    <g
       id="g4"
       transform="matrix(0.04991819,0,0,0.04991819,14.850431,20.373869)">
      <path
         fill="#ffffff"
         d="m 13.6,479.5 c 11.9,-27.3 26.6,-53 42.4,-78.1 15.1,-24.1 32,-46.9 50,-68.9 8.4,-10.3 17.3,-20.3 26.4,-30 8.7,-9.2 17.6,-18.1 26.7,-26.8 18.6,-17.7 38.3,-33.9 59.1,-48.8 23.5,-16.8 48.1,-31.6 74.2,-43.9 36.3,-17.2 74,-30.1 113.5,-37.4 20.1,-3.7 40.3,-6.6 60.8,-7.6 11.9,-0.6 23.9,-2.1 35.6,-1.6 23.7,1 47.4,2 71,5.7 28.8,4.5 57,11.2 84.5,20.5 17.5,5.9 34.4,13.2 51.1,20.9 4,1.9 5.1,3.2 1.4,6.9 -35.9,35.7 -71.8,71.6 -107.5,107.5 -2.8,2.8 -4.8,3 -8.6,1.2 -19.1,-9.3 -39.1,-16.2 -60.3,-19.4 -12.5,-1.9 -25,-3.4 -37.6,-3 -29.1,1 -57.2,6.9 -83.8,19.2 -27.1,12.5 -50.2,30.1 -69.9,52.2 -17.2,19.3 -30.3,41.2 -39.1,65.6 -7.3,20.2 -11.4,40.9 -12.8,62.4 -2.1,34.9 5.5,67.7 19.4,99.4 1.5,3.3 5.4,6.5 4.3,9.7 -1.1,3.3 -4.9,5.8 -7.6,8.5 -40.2,40.2 -80.4,80.4 -120.5,120.7 -3.1,3.2 -4.7,3.5 -8.3,0.2 -13.1,-12 -26.2,-23.9 -38.5,-36.7 C 122.3,659.9 106.2,641 90.9,621.3 70.3,594.8 52.2,566.7 35.6,537.6 27.6,523.6 20.2,509.2 13.8,494.3 13,492.5 11.950865,489.82432 10.629645,486.75856 12.119353,483.07791 12.8,481.2 13.6,479.5 Z"
         id="path1-6"
         sodipodi:nodetypes="ccccccccccccccccccccccccscccccccc" />
      <path
         fill="#ffffff"
         d="M 985.90496,495.67568 C 973.60496,522.97568 958.5,548.5 942.6,573.8 c -15.3,24.4 -32.6,47.3 -50.8,69.5 -16.2,19.8 -33.9,38.5 -52.7,56 -27.4,25.4 -56.9,48.4 -88.9,67.7 -37.3,22.5 -76.8,39.9 -118.8,51.6 -20.8,5.8 -41.8,10.2 -63,13.3 -13.1,1.9 -26.4,2.7 -39.7,3.7 -13.9,1 -27.7,1.1 -41.6,0.7 -21.1,-0.6 -42.2,-2.4 -63.1,-5.8 -14.9,-2.4 -29.6,-5.3 -44.2,-8.8 -2.4,-0.6 -4.6,-1.4 -7,-2.1 0.6,-2.5 2.4,-3.5 3.7,-4.8 38.2,-38.2 76.4,-76.4 114.5,-114.7 3,-3 6,-4.2 10.2,-4.2 47.7,0.1 90.3,-15 127.7,-44.1 39.2,-30.5 64,-70.6 75.5,-118.9 3.5,-14.9 5.2,-30 4.6,-45.3 -0.2,-3.8 1,-6.5 3.7,-9.3 53.7,-53.6 107.4,-107.2 160.9,-160.9 3.6,-3.6 5.3,-2.9 8.1,0.4 15.4,18.2 30.2,36.8 44,56.2 17.9,25.2 33.7,51.7 48.1,79.1 4.6,8.7 8.7,17.6 12.7,26.6 0.7,1.6 1.35137,4.36849 2.19331,7.87705 -1.14914,3.45 -1.78835,5.99863 -2.78835,8.09863 z"
         id="path2-7"
         sodipodi:nodetypes="ccccccccccccsccccccccccccc" />
      <path
         fill="#ffffff"
         d="m 876.2,132.1 c 17.1,5.7 28.7,17 31.8,35.1 2.5,14.6 -0.2,28.4 -11.2,39.4 -88.3,88.4 -176.7,176.9 -265.2,265.2 -4.1,4.1 -5.9,7.6 -5.2,14 2,19 -0.7,37.7 -8,55.7 -11.3,27.8 -30.6,48.4 -56.7,62.6 -12.7,6.9 -26.4,11 -40.9,12.6 -9.8,1.1 -19.5,1.6 -29.3,-0.1 -3.8,-0.7 -6.2,1.4 -8.6,3.9 -77.9,78 -155.8,155.9 -233.6,233.8 -5.9,6 -12.2,11 -20.4,13.5 -7.72684,2.37749 -19.45801,3.02071 -30,-0.7 C 168.6,856.3 159.4,816.3 182.1,793.6 399,576.7 616,359.7 832.9,142.7 c 5.3,-5.3 11.5,-8.4 18.4,-10.7 9.00643,-2.77121 20.55818,-1.34727 24.9,0.1 z"
         id="path3"
         sodipodi:nodetypes="sccccccccccccsccs" />
      <path
         fill="#ffffff"
         d="m 500,365.4 c 8.7,-0.8 17.1,0.6 25.5,2.4 1.5,0.3 4,-0.2 4.5,1.9 0.4,1.6 -1.6,2.5 -2.7,3.6 -3.8,3.9 -7.7,7.7 -11.5,11.6 -42.8,42.8 -85.6,85.6 -128.4,128.3 -1.3,1.3 -2.4,3.8 -4.4,3.3 -2.2,-0.5 -1.7,-3.3 -2,-5.1 -7,-36.6 0.4,-70.1 23.3,-99.5 20,-25.8 46.4,-41 78.9,-45.8 5.7,-0.7 11.3,-0.4 16.8,-0.7 z"
         id="path4" />
    </g>
    <path
       id="rect1"
       style="fill:none;stroke:#ffffff;stroke-width:2.64583;stroke-linecap:round;stroke-linejoin:round;stroke-dasharray:2.64583, 5.29166"
       d="m 13.229167,47.095836 c -3.5179004,0 -6.3500004,-2.8321 -6.3500004,-6.35 V 13.361458 c 0,-3.5178996 2.8321,-6.3499996 6.3500004,-6.3499996 h 36.115624 c 3.5179,0 6.35,2.8321 6.35,6.3499996 l 0,11.244793"
       sodipodi:nodetypes="csssssc" />
  </g>
</svg>
