<?xml version="1.0" encoding="UTF-8" standalone="no"?>
<svg
   width="256"
   height="256"
   viewBox="0 0 67.733331 67.733331"
   version="1.1"
   id="svg6751"
   inkscape:version="1.2.2 (732a01da63, 2022-12-09)"
   sodipodi:docname="icon_override_default_colors_96px.svg"
   xmlns:inkscape="http://www.inkscape.org/namespaces/inkscape"
   xmlns:sodipodi="http://sodipodi.sourceforge.net/DTD/sodipodi-0.dtd"
   xmlns="http://www.w3.org/2000/svg"
   xmlns:svg="http://www.w3.org/2000/svg"
   xmlns:rdf="http://www.w3.org/1999/02/22-rdf-syntax-ns#"
   xmlns:cc="http://creativecommons.org/ns#"
   xmlns:dc="http://purl.org/dc/elements/1.1/">
  <defs
     id="defs6745" />
  <sodipodi:namedview
     id="base"
     pagecolor="#303030"
     bordercolor="#666666"
     borderopacity="1.0"
     inkscape:pageopacity="0"
     inkscape:pageshadow="2"
     inkscape:zoom="2"
     inkscape:cx="56.75"
     inkscape:cy="146"
     inkscape:document-units="mm"
     inkscape:current-layer="g4"
     inkscape:document-rotation="0"
     showgrid="false"
     inkscape:window-width="1920"
     inkscape:window-height="1009"
     inkscape:window-x="1912"
     inkscape:window-y="-8"
     inkscape:window-maximized="1"
     inkscape:showpageshadow="2"
     inkscape:pagecheckerboard="0"
     inkscape:deskcolor="#d1d1d1"
     showguides="true"
     inkscape:guide-bbox="true"
     inkscape:snap-global="false"
     units="px"
     width="241.88977px" />
  <metadata
     id="metadata6748">
    <rdf:RDF>
      <cc:Work
         rdf:about="">
        <dc:format>image/svg+xml</dc:format>
        <dc:type
           rdf:resource="http://purl.org/dc/dcmitype/StillImage" />
      </cc:Work>
    </rdf:RDF>
  </metadata>
  <g
     inkscape:label="Layer 1"
     inkscape:groupmode="layer"
     id="layer1">
    <g
       id="g4"
       transform="matrix(0.04991819,0,0,0.04991819,14.850431,20.373869)">
      <path
         id="path8088"
         style="display:inline;mix-blend-mode:normal;fill:#ffffff;fill-opacity:0.5;fill-rule:evenodd;stroke:none;stroke-width:126.055;stroke-linecap:square;stroke-miterlimit:4;stroke-dasharray:none;stroke-dashoffset:0;stroke-opacity:1"
         d="M 114.95589,141.6403 A 393.7236,391.0734 0 0 0 -272.3184,521.04428 393.7236,391.0734 0 0 0 109.22328,923.55682 393.7236,391.0734 0 0 0 514.75913,544.8964 l 0.0401,-1.22302 A 393.7236,391.0734 0 0 0 132.61731,141.75761 393.7236,391.0734 0 0 0 114.95661,141.64044 Z M -55.12054,528.96889 a 153.55226,117.18186 52.069012 0 1 131.622808,73.77732 l 0.28583,0.39122 a 153.55226,117.18186 52.069012 0 1 -6.02806,190.78794 153.55226,117.18186 52.069012 0 1 -186.663458,-57.1161 153.55226,117.18186 52.069012 0 1 5.74243,-190.89551 153.55226,117.18186 52.069012 0 1 55.040697,-16.94504 z" />
      <path
         id="path553"
         style="fill:#ffffff;stroke-width:456.698;stroke-linecap:round;stroke-linejoin:round"
         d="m 924.70069,-336.59062 c -68.72963,0 -305.6693,359.480169 -386.3245,376.468162 -2.35415,0.495852 -3.83156,1.43908 -6.04478,2.008598 l -93.6306,-101.577538 c -11.68969,-12.681229 -28.14289,-17.126929 -36.8858,-9.963269 l -77.88037,63.8207271 c -8.74293,7.163652 -6.372,23.1387149 5.31772,35.8199489 L 629.19998,355.37844 c 11.68972,12.68124 28.14287,17.11897 36.88581,9.95531 l 77.88037,-63.81276 c 8.74293,-7.16367 6.37201,-23.14669 -5.31772,-35.82792 l -83.14736,-90.20346 c 2.52386,-5.90224 5.31231,-11.15114 7.32137,-18.2846 24.91572,-88.466501 386.32455,-311.67011 386.32455,-376.46816 0,-64.79802 -55.71667,-117.32747 -124.44631,-117.32747 z m 22.72499,55.09291 c 23.906,0 43.28565,18.27106 43.28565,40.80955 0,22.53849 -19.37965,40.80955 -43.28565,40.80955 -23.90602,1e-5 -43.28568,-18.27105 -43.28568,-40.80955 0,-22.5385 19.37966,-40.80956 43.28568,-40.80955 z M 280.86879,34.170583 c -3.39126,0.261586 -6.42455,1.390622 -8.80931,3.483155 L 18.906818,272.77653 c -8.47914,7.44013 -6.37198,23.13875 5.31771,35.81994 L 82.009198,371.27741 207.71896,277.72749 99.627818,390.39095 235.65639,537.95894 464.79057,363.29327 265.49136,570.32762 l 58.68082,63.65333 c 11.68967,12.68122 28.40665,17.40341 36.8858,9.96328 l 253.15266,-235.1228 c 8.47914,-7.44012 6.37196,-23.13875 -5.31772,-35.81995 L 308.94528,47.617014 c -7.30604,-7.925754 -16.5825,-12.742055 -24.57644,-13.422525 -1.19909,-0.102029 -2.36964,-0.111098 -3.50005,-0.02388 z"
         sodipodi:nodetypes="ssccccccssccsssssssssccccccccccccccsss" />
    </g>
  </g>
</svg>
