<?xml version="1.0" encoding="UTF-8" standalone="no"?>
<!-- Svg Vector Icons : http://www.onlinewebfonts.com/icon -->

<svg
   version="1.1"
   x="0px"
   y="0px"
   viewBox="0 0 1000 1000"
   enable-background="new 0 0 1000 1000"
   xml:space="preserve"
   id="svg10"
   xmlns="http://www.w3.org/2000/svg"
   xmlns:svg="http://www.w3.org/2000/svg"><defs
   id="defs14" />
<metadata
   id="metadata2"> Svg Vector Icons : http://www.onlinewebfonts.com/icon </metadata>
<g
   id="g8" />
<rect
   style="fill:#ffffff;stroke:#ffffff;stroke-width:3.71845;stroke-dasharray:none"
   id="rect535"
   width="364.29169"
   height="41.339554"
   x="103.14056"
   y="599.87189"
   transform="matrix(0.99961449,-0.0277646,0.03586349,0.9993567,0,0)"
   ry="20.669777" /><rect
   style="fill:#ffffff;stroke:#ffffff;stroke-width:2.5512;stroke-dasharray:none"
   id="rect537"
   width="308.56671"
   height="39.646069"
   x="-594.89233"
   y="689.46246"
   transform="matrix(0.46146495,-0.88715844,0.87644565,0.4815008,0,0)"
   ry="19.823034" /><rect
   style="fill:#ffffff;stroke:#ffffff;stroke-width:4.15914;stroke-dasharray:none"
   id="rect539"
   width="447.92264"
   height="31.838253"
   x="-538.20624"
   y="547.76227"
   transform="matrix(0.13472481,-0.99088305,0.99230269,0.12383603,0,0)"
   ry="13.518455" /><rect
   style="fill:#ffffff;stroke:#ffffff;stroke-width:28.8599;stroke-dasharray:none"
   id="rect539-3"
   width="267.91364"
   height="62.356281"
   x="-450.01001"
   y="532.6297"
   transform="matrix(0.13472481,-0.99088305,0.99230269,0.12383603,0,0)"
   ry="12.293751" /><rect
   style="fill:#ffffff;stroke:#ffffff;stroke-width:28.8599;stroke-dasharray:none"
   id="rect539-3-1"
   width="267.91364"
   height="62.356281"
   x="731.63263"
   y="363.64355"
   transform="matrix(0.93612073,0.3516788,-0.34137827,0.93992599,0,0)"
   ry="12.293751" /><rect
   style="fill:#ffffff;stroke:#ffffff;stroke-width:26.1727;stroke-dasharray:none"
   id="rect539-3-1-4"
   width="211.6965"
   height="64.903519"
   x="184.94768"
   y="586.74817"
   transform="matrix(0.99984609,-0.01754433,0.01844339,0.99982991,0,0)"
   ry="12.795947" /><rect
   style="fill:#ffffff;stroke:#ffffff;stroke-width:26.1727;stroke-dasharray:none"
   id="rect539-3-1-4-5"
   width="150.42665"
   height="69.325012"
   x="-596.50452"
   y="644.10638"
   transform="matrix(0.4008333,-0.91615101,0.91651107,0.40000933,0,0)"
   ry="12.795947" /><rect
   style="fill:#ffffff;stroke:#ffffff;stroke-width:4.283;stroke-dasharray:none"
   id="rect1096"
   width="413.42493"
   height="33.158047"
   x="671.18701"
   y="361.44034"
   transform="rotate(21.937238)"
   ry="16.579023" /><path
   id="path8088"
   style="display:inline;mix-blend-mode:normal;fill:#ffffff;fill-opacity:1;fill-rule:evenodd;stroke:none;stroke-width:16.3956;stroke-linecap:square;stroke-miterlimit:4;stroke-dasharray:none;stroke-dashoffset:0;stroke-opacity:1"
   d="m 480.45566,551.39612 a 51.037554,51.037554 0 0 0 -50.20153,49.51462 51.037554,51.037554 0 0 0 49.45843,52.53044 51.037554,51.037554 0 0 0 52.56874,-49.41758 l 0.005,-0.15961 a 51.037554,51.037554 0 0 0 -49.54143,-52.45256 51.037554,51.037554 0 0 0 -2.28932,-0.0155 z m -22.04663,50.54884 a 19.989271,15.228236 52.775531 0 1 17.06197,9.62841 l 0.037,0.0511 a 19.989271,15.228236 52.775531 0 1 -0.78141,24.89903 19.989271,15.228236 52.775531 0 1 -24.19677,-7.454 19.989271,15.228236 52.775531 0 1 0.74438,-24.91308 19.989271,15.228236 52.775531 0 1 7.1348,-2.21143 z" /><path
   id="path8088-3"
   style="display:inline;mix-blend-mode:normal;fill:#ffffff;fill-opacity:1;fill-rule:evenodd;stroke:none;stroke-width:16.3956;stroke-linecap:square;stroke-miterlimit:4;stroke-dasharray:none;stroke-dashoffset:0;stroke-opacity:1"
   d="m 110.55199,669.10452 a 51.037554,51.037554 0 0 1 -50.20153,-49.51461 51.037554,51.037554 0 0 1 49.45843,-52.53045 51.037554,51.037554 0 0 1 52.56874,49.41759 l 0.005,0.15961 a 51.037554,51.037554 0 0 1 -49.54143,52.45256 51.037554,51.037554 0 0 1 -2.28932,0.0155 z M 88.50536,618.55569 a 15.228236,19.989271 37.224469 0 0 17.06197,-9.62841 l 0.037,-0.0511 a 15.228236,19.989271 37.224469 0 0 -0.78141,-24.89903 15.228236,19.989271 37.224469 0 0 -24.19677,7.454 15.228236,19.989271 37.224469 0 0 0.74438,24.91308 15.228236,19.989271 37.224469 0 0 7.1348,2.21143 z" /><path
   id="path8088-6"
   style="display:inline;mix-blend-mode:normal;fill:#ffffff;fill-opacity:1;fill-rule:evenodd;stroke:none;stroke-width:16.3956;stroke-linecap:square;stroke-miterlimit:4;stroke-dasharray:none;stroke-dashoffset:0;stroke-opacity:1"
   d="m 336.42329,827.63359 a 51.037554,51.037554 0 0 0 -50.20153,49.51461 51.037554,51.037554 0 0 0 49.45843,52.53045 51.037554,51.037554 0 0 0 52.56874,-49.41759 l 0.005,-0.15961 a 51.037554,51.037554 0 0 0 -49.54143,-52.45256 51.037554,51.037554 0 0 0 -2.28931,-0.0155 z m -22.04663,50.54883 a 19.989271,15.228236 52.775531 0 1 17.06197,9.62841 l 0.037,0.0511 a 19.989271,15.228236 52.775531 0 1 -0.7814,24.89903 19.989271,15.228236 52.775531 0 1 -24.19678,-7.454 19.989271,15.228236 52.775531 0 1 0.74438,-24.91308 19.989271,15.228236 52.775531 0 1 7.13481,-2.21143 z" /><path
   id="path8088-5"
   style="display:inline;mix-blend-mode:normal;fill:#ffffff;fill-opacity:1;fill-rule:evenodd;stroke:none;stroke-width:16.3956;stroke-linecap:square;stroke-miterlimit:4;stroke-dasharray:none;stroke-dashoffset:0;stroke-opacity:1"
   d="m 548.52613,212.70011 a 51.037554,51.037554 0 0 1 -50.20153,-49.51461 51.037554,51.037554 0 0 1 49.45843,-52.53045 51.037554,51.037554 0 0 1 52.56874,49.41759 l 0.005,0.15961 a 51.037554,51.037554 0 0 1 -49.54143,52.45256 51.037554,51.037554 0 0 1 -2.28932,0.0155 z M 526.4795,162.15128 a 15.228236,19.989271 37.224469 0 0 17.06197,-9.62841 l 0.037,-0.0511 a 15.228236,19.989271 37.224469 0 0 -0.78141,-24.89903 15.228236,19.989271 37.224469 0 0 -24.19677,7.454 15.228236,19.989271 37.224469 0 0 0.74438,24.91308 15.228236,19.989271 37.224469 0 0 7.1348,2.21143 z" /><path
   id="path8088-7"
   style="display:inline;mix-blend-mode:normal;fill:#ffffff;fill-opacity:1;fill-rule:evenodd;stroke:none;stroke-width:16.3956;stroke-linecap:square;stroke-miterlimit:4;stroke-dasharray:none;stroke-dashoffset:0;stroke-opacity:1"
   d="m 865.67009,806.90792 a 51.037554,51.037554 0 0 0 50.20153,-49.51461 51.037554,51.037554 0 0 0 -49.45843,-52.53045 51.037554,51.037554 0 0 0 -52.56874,49.41759 l -0.005,0.15961 a 51.037554,51.037554 0 0 0 49.54143,52.45256 51.037554,51.037554 0 0 0 2.28932,0.0155 z m 22.04663,-50.54883 a 19.989271,15.228236 52.775531 0 1 -17.06197,-9.62841 l -0.037,-0.0511 a 19.989271,15.228236 52.775531 0 1 0.78141,-24.89903 19.989271,15.228236 52.775531 0 1 24.19677,7.454 19.989271,15.228236 52.775531 0 1 -0.74438,24.91308 19.989271,15.228236 52.775531 0 1 -7.1348,2.21143 z" /></svg>
