<?xml version="1.0" encoding="UTF-8" standalone="no"?>
<!-- Svg Vector Icons : http://www.onlinewebfonts.com/icon -->

<svg
   version="1.1"
   x="0px"
   y="0px"
   viewBox="0 0 1000 1000"
   enable-background="new 0 0 1000 1000"
   xml:space="preserve"
   id="svg10"
   sodipodi:docname="icon_representation_balls_and_sticks.svg"
   inkscape:version="1.2.2 (732a01da63, 2022-12-09)"
   xmlns:inkscape="http://www.inkscape.org/namespaces/inkscape"
   xmlns:sodipodi="http://sodipodi.sourceforge.net/DTD/sodipodi-0.dtd"
   xmlns="http://www.w3.org/2000/svg"
   xmlns:svg="http://www.w3.org/2000/svg"><defs
   id="defs14" /><sodipodi:namedview
   id="namedview12"
   pagecolor="#171717"
   bordercolor="#000000"
   borderopacity="0.25"
   inkscape:showpageshadow="2"
   inkscape:pageopacity="0"
   inkscape:pagecheckerboard="0"
   inkscape:deskcolor="#424242"
   showgrid="false"
   inkscape:zoom="0.58619152"
   inkscape:cx="580.86818"
   inkscape:cy="402.59879"
   inkscape:window-width="1920"
   inkscape:window-height="1009"
   inkscape:window-x="-8"
   inkscape:window-y="-8"
   inkscape:window-maximized="1"
   inkscape:current-layer="svg10" />
<metadata
   id="metadata2"> Svg Vector Icons : http://www.onlinewebfonts.com/icon </metadata>
<g
   id="g8" />
<path
   id="path8088"
   style="display:inline;mix-blend-mode:normal;fill:#ffffff;fill-opacity:1;fill-rule:evenodd;stroke:none;stroke-width:36.8626;stroke-linecap:square;stroke-miterlimit:4;stroke-dasharray:none;stroke-dashoffset:0;stroke-opacity:1"
   d="M 492.03691,478.07464 A 114.74924,114.74924 0 0 0 379.16729,589.39983 114.74924,114.74924 0 0 0 490.36616,707.50556 114.74924,114.74924 0 0 0 608.55803,596.39855 l 0.0117,-0.35886 a 114.74924,114.74924 0 0 0 -111.38547,-117.93063 114.74924,114.74924 0 0 0 -5.14714,-0.0344 z m -49.56813,113.65044 a 44.942469,34.238093 52.775531 0 1 38.36097,21.64783 l 0.0833,0.11479 a 44.942469,34.238093 52.775531 0 1 -1.75685,55.98124 44.942469,34.238093 52.775531 0 1 -54.40236,-16.75908 44.942469,34.238093 52.775531 0 1 1.67361,-56.0128 44.942469,34.238093 52.775531 0 1 16.0414,-4.97203 z" /><path
   id="path421"
   style="display:inline;mix-blend-mode:normal;fill:#ffffff;fill-opacity:1;fill-rule:evenodd;stroke:none;stroke-width:26.4502;stroke-linecap:square;stroke-miterlimit:4;stroke-dasharray:none;stroke-dashoffset:0;stroke-opacity:1"
   d="m 385.08011,727.13599 a 82.336625,82.336625 0 0 0 -80.98793,79.87975 82.336625,82.336625 0 0 0 79.78911,84.74502 82.336625,82.336625 0 0 0 84.80683,-79.7232 l 0.008,-0.25749 a 82.336625,82.336625 0 0 0 -79.923,-84.61939 82.336625,82.336625 0 0 0 -3.69325,-0.0247 z m -35.56688,81.54819 a 32.247806,24.567039 52.775531 0 1 27.52535,15.53309 l 0.0598,0.0824 a 32.247806,24.567039 52.775531 0 1 -1.26061,40.16851 32.247806,24.567039 52.775531 0 1 -39.03561,-12.02523 32.247806,24.567039 52.775531 0 1 1.20088,-40.19116 32.247806,24.567039 52.775531 0 1 11.51027,-3.5676 z" /><path
   id="path423"
   style="display:inline;mix-blend-mode:normal;fill:#ffffff;fill-opacity:1;fill-rule:evenodd;stroke:none;stroke-width:25.3542;stroke-linecap:square;stroke-miterlimit:4;stroke-dasharray:none;stroke-dashoffset:0;stroke-opacity:1"
   d="m 161.65805,532.65987 a 78.924771,78.924771 0 0 0 -77.631969,76.5697 78.924771,78.924771 0 0 0 76.482819,81.23337 78.924771,78.924771 0 0 0 81.29262,-76.41964 l 0.008,-0.24682 a 78.924771,78.924771 0 0 0 -76.61116,-81.11295 78.924771,78.924771 0 0 0 -3.54021,-0.0237 z m -34.09307,78.169 a 30.911526,23.549033 52.775531 0 1 26.38476,14.88944 l 0.0573,0.079 a 30.911526,23.549033 52.775531 0 1 -1.20837,38.50401 30.911526,23.549033 52.775531 0 1 -37.41806,-11.52693 30.911526,23.549033 52.775531 0 1 1.15112,-38.52572 30.911526,23.549033 52.775531 0 1 11.03331,-3.41977 z" /><path
   id="path425"
   style="display:inline;mix-blend-mode:normal;fill:#ffffff;fill-opacity:1;fill-rule:evenodd;stroke:none;stroke-width:26.4502;stroke-linecap:square;stroke-miterlimit:4;stroke-dasharray:none;stroke-dashoffset:0;stroke-opacity:1"
   d="m 538.61355,111.2963 a 82.336625,82.336625 0 0 0 -80.98793,79.87975 82.336625,82.336625 0 0 0 79.78911,84.74502 82.336625,82.336625 0 0 0 84.80683,-79.7232 l 0.008,-0.25749 a 82.336625,82.336625 0 0 0 -79.923,-84.61939 82.336625,82.336625 0 0 0 -3.69325,-0.0247 z m -35.56688,81.54819 a 32.247806,24.567039 52.775531 0 1 27.52535,15.53309 l 0.0598,0.0824 a 32.247806,24.567039 52.775531 0 1 -1.26061,40.16851 32.247806,24.567039 52.775531 0 1 -39.03561,-12.02523 32.247806,24.567039 52.775531 0 1 1.20088,-40.19116 32.247806,24.567039 52.775531 0 1 11.51027,-3.5676 z" /><path
   id="path427"
   style="display:inline;mix-blend-mode:normal;fill:#ffffff;fill-opacity:1;fill-rule:evenodd;stroke:none;stroke-width:25.3542;stroke-linecap:square;stroke-miterlimit:4;stroke-dasharray:none;stroke-dashoffset:0;stroke-opacity:1"
   d="m 818.43997,662.31033 a 78.924771,78.924771 0 0 0 -77.63197,76.5697 78.924771,78.924771 0 0 0 76.48282,81.23337 78.924771,78.924771 0 0 0 81.29262,-76.41964 l 0.008,-0.24682 a 78.924771,78.924771 0 0 0 -76.61116,-81.11295 78.924771,78.924771 0 0 0 -3.54021,-0.0237 z m -34.09307,78.169 a 30.911526,23.549033 52.775531 0 1 26.38476,14.88944 l 0.0573,0.079 a 30.911526,23.549033 52.775531 0 1 -1.20837,38.50401 30.911526,23.549033 52.775531 0 1 -37.41806,-11.52693 30.911526,23.549033 52.775531 0 1 1.15112,-38.52572 30.911526,23.549033 52.775531 0 1 11.03331,-3.41977 z" /><rect
   style="fill:#ffffff;stroke:#ffffff;stroke-width:3.71845;stroke-dasharray:none"
   id="rect535"
   width="191.78529"
   height="43.176876"
   x="208.32309"
   y="584.69043"
   transform="matrix(0.99984435,0.01764281,-0.00954057,0.99995449,0,0)" /><rect
   style="fill:#ffffff;stroke:#ffffff;stroke-width:2.5512;stroke-dasharray:none"
   id="rect537"
   width="88.077225"
   height="44.255688"
   x="-483.09073"
   y="692.53137"
   transform="matrix(0.46146495,-0.88715844,0.87644565,0.4815008,0,0)" /><rect
   style="fill:#ffffff;stroke:#ffffff;stroke-width:4.15914;stroke-dasharray:none"
   id="rect539"
   width="242.79593"
   height="42.668495"
   x="-457.75018"
   y="530.15167"
   transform="matrix(0.09963469,-0.99502408,0.99605816,0.08870255,0,0)" /><rect
   style="fill:#ffffff;stroke:#ffffff;stroke-width:4.283;stroke-dasharray:none"
   id="rect1096"
   width="240.53572"
   height="49.471886"
   x="743.06244"
   y="349.39795"
   transform="rotate(21.937238)" /></svg>
