<?xml version="1.0" encoding="UTF-8" standalone="no"?>
<svg
   width="64mm"
   height="64mm"
   viewBox="0 0 64 64"
   version="1.1"
   id="svg6751"
   inkscape:version="1.2.2 (732a01da63, 2022-12-09)"
   sodipodi:docname="icon_atom_size.svg"
   xmlns:inkscape="http://www.inkscape.org/namespaces/inkscape"
   xmlns:sodipodi="http://sodipodi.sourceforge.net/DTD/sodipodi-0.dtd"
   xmlns="http://www.w3.org/2000/svg"
   xmlns:svg="http://www.w3.org/2000/svg"
   xmlns:rdf="http://www.w3.org/1999/02/22-rdf-syntax-ns#"
   xmlns:cc="http://creativecommons.org/ns#"
   xmlns:dc="http://purl.org/dc/elements/1.1/">
  <defs
     id="defs6745" />
  <sodipodi:namedview
     id="base"
     pagecolor="#303030"
     bordercolor="#666666"
     borderopacity="1.0"
     inkscape:pageopacity="0"
     inkscape:pageshadow="2"
     inkscape:zoom="2.6913087"
     inkscape:cx="119.45861"
     inkscape:cy="149.74128"
     inkscape:document-units="mm"
     inkscape:current-layer="layer1"
     inkscape:document-rotation="0"
     showgrid="false"
     inkscape:window-width="1920"
     inkscape:window-height="1009"
     inkscape:window-x="-8"
     inkscape:window-y="-8"
     inkscape:window-maximized="1"
     inkscape:showpageshadow="2"
     inkscape:pagecheckerboard="0"
     inkscape:deskcolor="#d1d1d1" />
  <metadata
     id="metadata6748">
    <rdf:RDF>
      <cc:Work
         rdf:about="">
        <dc:format>image/svg+xml</dc:format>
        <dc:type
           rdf:resource="http://purl.org/dc/dcmitype/StillImage" />
      </cc:Work>
    </rdf:RDF>
  </metadata>
  <g
     inkscape:label="Layer 1"
     inkscape:groupmode="layer"
     id="layer1">
    <path
       id="path8088"
       style="display:inline;opacity:1;mix-blend-mode:normal;fill:#ffffff;fill-opacity:1;fill-rule:evenodd;stroke:none;stroke-width:4.17932;stroke-linecap:square;stroke-miterlimit:4;stroke-dasharray:none;stroke-dashoffset:0;stroke-opacity:1"
       d="M 19.604724,18.760548 A 13.009749,13.009749 0 0 0 6.8080792,31.382093 13.009749,13.009749 0 0 0 19.415304,44.772387 13.009749,13.009749 0 0 0 32.815361,32.175577 l 0.0013,-0.04068 a 13.009749,13.009749 0 0 0 -12.628379,-13.370441 13.009749,13.009749 0 0 0 -0.58356,-0.0039 z M 13.984915,31.64572 a 5.0953735,3.8817597 52.775531 0 1 4.349193,2.454334 l 0.0094,0.01302 a 5.0953735,3.8817597 52.775531 0 1 -0.199185,6.346899 5.0953735,3.8817597 52.775531 0 1 -6.167893,-1.900066 5.0953735,3.8817597 52.775531 0 1 0.189746,-6.350479 5.0953735,3.8817597 52.775531 0 1 1.818701,-0.563706 z" />
    <path
       style="fill:#ffffff;stroke:#ffffff;stroke-width:1.133;stroke-dasharray:3.39900005, 1.13300002;stroke-dashoffset:0;stroke-opacity:0.48704663"
       d="m 6.348644,45.370199 c 0.5561272,0 51.302712,0 51.302712,0"
       id="path412" />
    <path
       style="fill:#ffffff;stroke:#ffffff;stroke-width:1.133;stroke-dasharray:3.39900005, 1.13300002;stroke-dashoffset:0;stroke-opacity:0.48704663"
       d="m 6.3486443,18.359447 c 0.556127,0 51.3027117,0 51.3027117,0"
       id="path412-7" />
    <path
       style="fill:#ffffff;stroke:#ffffff;stroke-width:1.07172;stroke-linecap:butt;stroke-dasharray:none;stroke-dashoffset:0;stroke-opacity:1"
       d="m 39.913979,20.476765 v 23.04647"
       id="path1044" />
    <g
       aria-label="##
nm"
       id="text1719"
       style="font-size:5.72179px;font-family:'Eras Demi ITC';-inkscape-font-specification:'Eras Demi ITC';text-align:center;text-anchor:middle;fill:#ffffff;stroke-width:0.179764">
      <path
         d="m 45.77702,29.10977 -0.645377,0.0056 q 0.05308,-0.231889 0.09499,-0.491716 l 0.645378,0.0056 0.08382,-0.469366 -0.14528,0.0028 -0.248652,0.0028 -0.254239,0.0028 q 0.0475,-0.192775 0.09778,-0.491717 l 0.63979,0.0056 0.206744,-1.165032 q 0.09779,0.0056 0.265416,0.0056 0.176012,0 0.265415,-0.0056 -0.0447,0.231889 -0.21792,1.167826 h 0.583913 l 0.206744,-1.167826 q 0.09778,0.0056 0.265415,0.0056 0.176012,0 0.265415,-0.0056 -0.05867,0.296147 -0.215125,1.165032 0.592294,-0.0056 0.63979,-0.0056 -0.06985,0.315705 -0.09499,0.491717 l -0.63979,-0.0084 -0.08382,0.469366 0.642583,-0.0056 q -0.0447,0.1816 -0.09778,0.491716 l -0.636996,-0.0056 -0.215126,1.220909 q -0.09778,-0.0056 -0.268209,-0.0056 -0.176012,0 -0.262621,0.0056 l 0.229095,-1.223703 -0.298941,-0.0028 -0.284972,0.0028 -0.21792,1.223703 q -0.09778,-0.0056 -0.268209,-0.0056 -0.176012,0 -0.262621,0.0056 z m 0.698461,-0.949907 -0.0894,0.47216 h 0.586707 l 0.08661,-0.47216 -0.296147,-0.0028 z"
         id="path1906" />
      <path
         d="m 49.26653,29.10977 -0.645378,0.0056 q 0.05308,-0.231889 0.09499,-0.491716 l 0.645377,0.0056 0.08382,-0.469366 -0.14528,0.0028 -0.248652,0.0028 -0.25424,0.0028 q 0.0475,-0.192775 0.09778,-0.491717 l 0.63979,0.0056 0.206744,-1.165032 q 0.09778,0.0056 0.265415,0.0056 0.176012,0 0.265415,-0.0056 -0.0447,0.231889 -0.21792,1.167826 h 0.583914 l 0.206744,-1.167826 q 0.09778,0.0056 0.265415,0.0056 0.176012,0 0.265415,-0.0056 -0.05867,0.296147 -0.215126,1.165032 0.592295,-0.0056 0.63979,-0.0056 -0.06985,0.315705 -0.09499,0.491717 l -0.63979,-0.0084 -0.08382,0.469366 0.642584,-0.0056 q -0.0447,0.1816 -0.09778,0.491716 l -0.636997,-0.0056 -0.215125,1.220909 q -0.09779,-0.0056 -0.268209,-0.0056 -0.176012,0 -0.262622,0.0056 l 0.229096,-1.223703 -0.298942,-0.0028 -0.284972,0.0028 -0.217919,1.223703 q -0.09778,-0.0056 -0.268209,-0.0056 -0.176012,0 -0.262621,0.0056 z m 0.69846,-0.949907 -0.0894,0.47216 h 0.586706 l 0.08661,-0.47216 -0.296148,-0.0028 z"
         id="path1908" />
      <path
         d="m 44.31165,37.482916 q 0.06426,-0.634202 0.106166,-1.42486 0.0447,-0.790657 0.05029,-1.416478 0.257033,0.0056 0.410695,0.0056 0.1816,0 0.38555,-0.0056 l -0.03073,0.474953 q 0.08661,-0.122929 0.150867,-0.195569 0.06705,-0.07264 0.167631,-0.142485 0.103372,-0.06985 0.21792,-0.111754 0.117341,-0.04191 0.259827,-0.06705 0.14528,-0.02515 0.301735,-0.02515 0.248652,0 0.474953,0.06426 0.229095,0.06146 0.368787,0.198363 0.139693,0.136898 0.184394,0.298941 0.0447,0.162043 0.0447,0.343643 0,0.07543 -0.0084,0.24027 l -0.05867,1.22091 q -0.01118,0.254239 -0.01397,0.542005 -0.220713,-0.0056 -0.377169,-0.0056 -0.212332,0 -0.427458,0.0056 0.02235,-0.243064 0.05588,-0.846534 0.03353,-0.606264 0.03353,-0.801833 0,-0.220714 -0.06985,-0.354818 -0.06985,-0.134104 -0.217919,-0.20395 -0.14528,-0.06985 -0.315705,-0.06985 -0.16763,0 -0.31291,0.06426 -0.14528,0.06426 -0.251446,0.187187 -0.111754,0.125723 -0.173218,0.310117 -0.06426,0.195569 -0.09499,0.645377 -0.02794,0.39952 -0.0447,1.070042 -0.215126,-0.0056 -0.388344,-0.0056 -0.176012,0 -0.427458,0.0056 z"
         id="path1910" />
      <path
         d="m 47.999522,37.482916 q 0.03911,-0.474953 0.08102,-1.419272 0.0447,-0.944319 0.0447,-1.422066 0.237477,0.0056 0.38555,0.0056 0.170425,0 0.368788,-0.0056 l -0.02235,0.449809 q 0.0894,-0.131311 0.162043,-0.212332 0.07543,-0.08382 0.192775,-0.153662 0.117341,-0.06985 0.273796,-0.108959 0.159249,-0.04191 0.32688,-0.04191 0.125723,0 0.243064,0.02515 0.117342,0.02235 0.212332,0.06705 0.09779,0.04191 0.164837,0.09778 0.06985,0.05588 0.117342,0.125723 0.0475,0.06705 0.103372,0.201157 0.06146,-0.09778 0.111753,-0.162043 0.05308,-0.06705 0.139693,-0.136898 0.08661,-0.06985 0.192775,-0.117342 0.106166,-0.04749 0.237476,-0.07264 0.134105,-0.02794 0.276591,-0.02794 0.243064,0 0.45819,0.08102 0.215126,0.07823 0.338055,0.251446 0.122929,0.170425 0.122929,0.424664 0,0.134105 -0.01956,0.393932 -0.01956,0.259828 -0.04749,0.849328 -0.02794,0.586707 -0.03073,0.907999 -0.20395,-0.0056 -0.360405,-0.0056 -0.184394,0 -0.433046,0.0056 0.02515,-0.360405 0.04749,-0.754337 l 0.03353,-0.63979 q 0.01397,-0.243065 0.01397,-0.410695 0,-0.198363 -0.06426,-0.298941 -0.06146,-0.103372 -0.159249,-0.14528 -0.09499,-0.0447 -0.215125,-0.0447 -0.125723,0 -0.229096,0.0475 -0.100578,0.0475 -0.189981,0.153661 -0.08661,0.106166 -0.134104,0.248652 -0.0475,0.139692 -0.06985,0.396726 -0.02235,0.254239 -0.03632,0.670522 l -0.01956,0.776688 q -0.231889,-0.0056 -0.385551,-0.0056 -0.153661,0 -0.410694,0.0056 0.01956,-0.215126 0.05588,-0.88006 0.03632,-0.664935 0.03632,-0.896824 0,-0.122929 -0.01956,-0.206744 -0.01956,-0.08661 -0.08102,-0.162043 -0.05867,-0.07823 -0.139692,-0.114548 -0.08102,-0.03632 -0.187188,-0.03632 -0.195569,0 -0.343642,0.128516 -0.148074,0.128517 -0.21792,0.343643 -0.06705,0.215126 -0.09778,0.838153 -0.02794,0.620233 -0.02794,0.986226 -0.257033,-0.0056 -0.388344,-0.0056 -0.148074,0 -0.410695,0.0056 z"
         id="path1912" />
    </g>
    <path
       sodipodi:type="star"
       style="fill:#ffffff;stroke:none;stroke-width:0.133;stroke-linecap:butt;stroke-dasharray:none;stroke-dashoffset:0;stroke-opacity:1"
       id="path4611"
       inkscape:flatsided="true"
       sodipodi:sides="3"
       sodipodi:cx="36.86636"
       sodipodi:cy="20.251919"
       sodipodi:r1="3.5446279"
       sodipodi:r2="1.772314"
       sodipodi:arg1="0.52359878"
       sodipodi:arg2="1.5707963"
       inkscape:rounded="0"
       inkscape:randomized="0"
       d="m 39.936098,22.024233 -6.139476,0 3.069738,-5.316942 z"
       inkscape:transform-center-y="-0.88615722"
       transform="translate(3.0476188,2.5560675)" />
    <path
       sodipodi:type="star"
       style="fill:#ffffff;stroke:none;stroke-width:0.133;stroke-linecap:butt;stroke-dasharray:none;stroke-dashoffset:0;stroke-opacity:1"
       id="path4611-0"
       inkscape:flatsided="true"
       sodipodi:sides="3"
       sodipodi:cx="36.86636"
       sodipodi:cy="20.251919"
       sodipodi:r1="3.5446279"
       sodipodi:r2="1.772314"
       sodipodi:arg1="0.52359878"
       sodipodi:arg2="1.5707963"
       inkscape:rounded="0"
       inkscape:randomized="0"
       d="m 39.936098,22.024233 -6.139476,0 3.069738,-5.316942 z"
       inkscape:transform-center-y="0.88615813"
       transform="rotate(180,38.390169,30.427717)" />
  </g>
</svg>
