<?xml version="1.0" encoding="UTF-8" standalone="no"?>
<!-- Svg Vector Icons : http://www.onlinewebfonts.com/icon -->

<svg
   version="1.1"
   x="0px"
   y="0px"
   viewBox="0 0 1000 1000"
   enable-background="new 0 0 1000 1000"
   xml:space="preserve"
   id="svg10"
   sodipodi:docname="icon_representation_balls.svg"
   inkscape:version="1.2.2 (732a01da63, 2022-12-09)"
   xmlns:inkscape="http://www.inkscape.org/namespaces/inkscape"
   xmlns:sodipodi="http://sodipodi.sourceforge.net/DTD/sodipodi-0.dtd"
   xmlns="http://www.w3.org/2000/svg"
   xmlns:svg="http://www.w3.org/2000/svg"><defs
   id="defs14" /><sodipodi:namedview
   id="namedview12"
   pagecolor="#171717"
   bordercolor="#000000"
   borderopacity="0.25"
   inkscape:showpageshadow="2"
   inkscape:pageopacity="0"
   inkscape:pagecheckerboard="0"
   inkscape:deskcolor="#424242"
   showgrid="false"
   inkscape:zoom="0.58619152"
   inkscape:cx="580.86818"
   inkscape:cy="402.59879"
   inkscape:window-width="1920"
   inkscape:window-height="1009"
   inkscape:window-x="-8"
   inkscape:window-y="-8"
   inkscape:window-maximized="1"
   inkscape:current-layer="svg10" />
<metadata
   id="metadata2"> Svg Vector Icons : http://www.onlinewebfonts.com/icon </metadata>
<g
   id="g8" />
<path
   id="path8088"
   style="display:inline;mix-blend-mode:normal;fill:#ffffff;fill-opacity:1;fill-rule:evenodd;stroke:none;stroke-width:86.1844;stroke-linecap:square;stroke-miterlimit:4;stroke-dasharray:none;stroke-dashoffset:0;stroke-opacity:1"
   d="M 489.58974,324.56023 A 268.28266,268.28266 0 0 0 225.70162,584.83749 268.28266,268.28266 0 0 0 485.68354,860.9676 268.28266,268.28266 0 0 0 762.01505,601.20043 l 0.0273,-0.83901 A 268.28266,268.28266 0 0 0 501.6242,324.6407 268.28266,268.28266 0 0 0 489.59023,324.56032 Z M 373.69991,590.2739 a 105.07508,80.048346 52.775531 0 1 89.68759,50.61243 l 0.19476,0.26838 a 105.07508,80.048346 52.775531 0 1 -4.10751,130.88362 105.07508,80.048346 52.775531 0 1 -127.1922,-39.18258 105.07508,80.048346 52.775531 0 1 3.91288,-130.9574 105.07508,80.048346 52.775531 0 1 37.50465,-11.62457 z" /><path
   id="path421"
   style="display:inline;mix-blend-mode:normal;fill:#ffffff;fill-opacity:1;fill-rule:evenodd;stroke:none;stroke-width:57.6874;stroke-linecap:square;stroke-miterlimit:4;stroke-dasharray:none;stroke-dashoffset:0;stroke-opacity:1"
   d="M 383.53047,629.9101 A 179.57457,179.57457 0 0 0 206.89738,804.12626 179.57457,179.57457 0 0 0 380.91587,988.9535 179.57457,179.57457 0 0 0 565.87792,815.07876 l 0.0174,-0.56159 A 179.57457,179.57457 0 0 0 391.5848,629.96394 a 179.57457,179.57457 0 0 0 -8.05491,-0.0538 z m -77.57066,177.85501 a 70.331836,53.580233 52.775531 0 1 60.03224,33.87736 l 0.13044,0.17971 a 70.331836,53.580233 52.775531 0 1 -2.74937,87.60673 70.331836,53.580233 52.775531 0 1 -85.1359,-26.22678 70.331836,53.580233 52.775531 0 1 2.6191,-87.65614 70.331836,53.580233 52.775531 0 1 25.10367,-7.78087 z" /><path
   id="path423"
   style="display:inline;mix-blend-mode:normal;fill:#ffffff;fill-opacity:1;fill-rule:evenodd;stroke:none;stroke-width:51.6592;stroke-linecap:square;stroke-miterlimit:4;stroke-dasharray:none;stroke-dashoffset:0;stroke-opacity:1"
   d="M 160.35292,450.78555 C 74.405171,452.15562 4.7317864,520.87563 2.1777513,606.79635 -0.45992251,695.52047 69.289503,769.60221 158.01153,772.30937 c 88.7219,2.70644 113.38573,-66.98531 116.16186,-155.70505 l 0.0163,-0.50289 C 276.68778,527.37277 256.293,453.40063 167.5663,450.83376 c -2.40373,-0.07 -4.80873,-0.0861 -7.21318,-0.0483 z M 90.888277,610.05492 c 19.307873,-0.27221 40.009753,11.41027 53.758963,30.33724 l 0.11675,0.16096 c 20.35827,28.16891 19.25631,63.28197 -2.46206,78.45194 -21.71946,15.17161 -55.843423,4.65945 -76.239312,-23.48613 -20.396857,-28.14822 -19.347035,-63.28374 2.345406,-78.49617 6.357603,-4.45845 14.071721,-6.84944 22.480374,-6.96778 z"
   sodipodi:nodetypes="scccccsscccccscc" /><path
   id="path425"
   style="display:inline;mix-blend-mode:normal;fill:#ffffff;fill-opacity:1;fill-rule:evenodd;stroke:none;stroke-width:56.0433;stroke-linecap:square;stroke-miterlimit:4;stroke-dasharray:none;stroke-dashoffset:0;stroke-opacity:1"
   d="M 532.02769,51.600278 A 174.45668,174.45668 0 0 0 360.42865,220.85128 174.45668,174.45668 0 0 0 529.4876,400.41091 174.45668,174.45668 0 0 0 709.17821,231.49162 l 0.0169,-0.54558 A 174.45668,174.45668 0 0 0 539.85252,51.652591 174.45668,174.45668 0 0 0 532.02718,51.600257 Z M 456.6678,224.3864 a 68.327372,52.053191 52.775531 0 1 58.32132,32.91186 l 0.1267,0.17458 a 68.327372,52.053191 52.775531 0 1 -2.67101,85.10994 68.327372,52.053191 52.775531 0 1 -82.70951,-25.47932 68.327372,52.053191 52.775531 0 1 2.54444,-85.15793 68.327372,52.053191 52.775531 0 1 24.38823,-7.55911 z" /><path
   id="path427"
   style="display:inline;mix-blend-mode:normal;fill:#ffffff;fill-opacity:1;fill-rule:evenodd;stroke:none;stroke-width:54.3993;stroke-linecap:square;stroke-miterlimit:4;stroke-dasharray:none;stroke-dashoffset:0;stroke-opacity:1"
   d="M 816.99889,571.90743 A 169.33889,169.33889 0 0 0 650.43381,736.19335 169.33889,169.33889 0 0 0 814.53331,910.4855 169.33889,169.33889 0 0 0 988.95259,746.52156 l 0.0171,-0.52957 A 169.33889,169.33889 0 0 0 824.59486,571.9582 a 169.33889,169.33889 0 0 0 -7.59578,-0.0509 z m -73.14918,167.71733 a 66.322948,50.526179 52.775531 0 1 56.61044,31.94638 l 0.12294,0.16951 a 66.322948,50.526179 52.775531 0 1 -2.59265,82.61318 66.322948,50.526179 52.775531 0 1 -80.28319,-24.73188 66.322948,50.526179 52.775531 0 1 2.46981,-82.65976 66.322948,50.526179 52.775531 0 1 23.67278,-7.33737 z" /></svg>
