<?xml version="1.0" encoding="utf-8"?>
<!-- Svg Vector Icons : http://www.onlinewebfonts.com/icon -->
<!DOCTYPE svg PUBLIC "-//W3C//DTD SVG 1.1//EN" "http://www.w3.org/Graphics/SVG/1.1/DTD/svg11.dtd">
<svg version="1.1" xmlns="http://www.w3.org/2000/svg" xmlns:xlink="http://www.w3.org/1999/xlink" x="0px" y="0px" viewBox="0 0 1000 1000" enable-background="new 0 0 1000 1000" xml:space="preserve">
<metadata> Svg Vector Icons : http://www.onlinewebfonts.com/icon </metadata>
<g><path fill="white" d="M10,483.6c2.5-0.2,2.8-2.4,3.6-4.1c11.9-27.3,26.6-53,42.4-78.1c15.1-24.1,32-46.9,50-68.9c8.4-10.3,17.3-20.3,26.4-30c8.7-9.2,17.6-18.1,26.7-26.8c18.6-17.7,38.3-33.9,59.1-48.8c23.5-16.8,48.1-31.6,74.2-43.9c36.3-17.2,74-30.1,113.5-37.4c20.1-3.7,40.3-6.6,60.8-7.6c11.9-0.6,23.9-2.1,35.6-1.6c23.7,1,47.4,2,71,5.7c28.8,4.5,57,11.2,84.5,20.5c17.5,5.9,34.4,13.2,51.1,20.9c4,1.9,5.1,3.2,1.4,6.9c-35.9,35.7-71.8,71.6-107.5,107.5c-2.8,2.8-4.8,3-8.6,1.2c-19.1-9.3-39.1-16.2-60.3-19.4c-12.5-1.9-25-3.4-37.6-3c-29.1,1-57.2,6.9-83.8,19.2c-27.1,12.5-50.2,30.1-69.9,52.2c-17.2,19.3-30.3,41.2-39.1,65.6c-7.3,20.2-11.4,40.9-12.8,62.4c-2.1,34.9,5.5,67.7,19.4,99.4c1.5,3.3,5.4,6.5,4.3,9.7c-1.1,3.3-4.9,5.8-7.6,8.5c-40.2,40.2-80.4,80.4-120.5,120.7c-3.1,3.2-4.7,3.5-8.3,0.2c-13.1-12-26.2-23.9-38.5-36.7c-17.2-18-33.3-36.9-48.6-56.6c-20.6-26.5-38.7-54.6-55.3-83.7c-8-14-15.4-28.4-21.8-43.3c-0.8-1.8-1-4.3-3.8-4.6C10,487.9,10,485.7,10,483.6z"/><path fill="white" d="M990,490c-3.1,0.5-3.3,3.4-4.3,5.5c-12.3,27.3-27.2,53-43.1,78.3c-15.3,24.4-32.6,47.3-50.8,69.5c-16.2,19.8-33.9,38.5-52.7,56c-27.4,25.4-56.9,48.4-88.9,67.7c-37.3,22.5-76.8,39.9-118.8,51.6c-20.8,5.8-41.8,10.2-63,13.3c-13.1,1.9-26.4,2.7-39.7,3.7c-13.9,1-27.7,1.1-41.6,0.7c-21.1-0.6-42.2-2.4-63.1-5.8c-14.9-2.4-29.6-5.3-44.2-8.8c-2.4-0.6-4.6-1.4-7-2.1c0.6-2.5,2.4-3.5,3.7-4.8c38.2-38.2,76.4-76.4,114.5-114.7c3-3,6-4.2,10.2-4.2c47.7,0.1,90.3-15,127.7-44.1c39.2-30.5,64-70.6,75.5-118.9c3.5-14.9,5.2-30,4.6-45.3c-0.2-3.8,1-6.5,3.7-9.3c53.7-53.6,107.4-107.2,160.9-160.9c3.6-3.6,5.3-2.9,8.1,0.4c15.4,18.2,30.2,36.8,44,56.2c17.9,25.2,33.7,51.7,48.1,79.1c4.6,8.7,8.7,17.6,12.7,26.6c0.7,1.6,1,3.9,3.6,4.1C990,485.7,990,487.9,990,490z"/><path fill="white" d="M873.8,129.9c0.1,1.6,1.2,1.8,2.4,2.2c17.1,5.7,28.7,17,31.8,35.1c2.5,14.6-0.2,28.4-11.2,39.4C808.5,295,720.1,383.5,631.6,471.8c-4.1,4.1-5.9,7.6-5.2,14c2,19-0.7,37.7-8,55.7c-11.3,27.8-30.6,48.4-56.7,62.6c-12.7,6.9-26.4,11-40.9,12.6c-9.8,1.1-19.5,1.6-29.3-0.1c-3.8-0.7-6.2,1.4-8.6,3.9C405,698.5,327.1,776.4,249.3,854.3c-5.9,6-12.2,11-20.4,13.5c-1.3,0.4-2.4,0.8-2.4,2.3c-7.7,0-15.5,0-23.2,0c-0.3-2.7-2.7-2.4-4.4-3c-30.3-10.8-39.5-50.8-16.8-73.5C399,576.7,616,359.7,832.9,142.7c5.3-5.3,11.5-8.4,18.4-10.7c1.3-0.4,2.4-0.6,2.4-2.2C860.5,129.9,867.1,129.9,873.8,129.9z"/><path fill="white" d="M500,365.4c8.7-0.8,17.1,0.6,25.5,2.4c1.5,0.3,4-0.2,4.5,1.9c0.4,1.6-1.6,2.5-2.7,3.6c-3.8,3.9-7.7,7.7-11.5,11.6c-42.8,42.8-85.6,85.6-128.4,128.3c-1.3,1.3-2.4,3.8-4.4,3.3c-2.2-0.5-1.7-3.3-2-5.1c-7-36.6,0.4-70.1,23.3-99.5c20-25.8,46.4-41,78.9-45.8C488.9,365.4,494.5,365.7,500,365.4z"/></g>
</svg>