<?xml version="1.0" encoding="utf-8"?>
<!-- Svg Vector Icons : http://www.onlinewebfonts.com/icon -->
<!DOCTYPE svg PUBLIC "-//W3C//DTD SVG 1.1//EN" "http://www.w3.org/Graphics/SVG/1.1/DTD/svg11.dtd">
<svg version="1.1" xmlns="http://www.w3.org/2000/svg" xmlns:xlink="http://www.w3.org/1999/xlink" x="0px" y="0px" viewBox="0 0 1000 1000" enable-background="new 0 0 1000 1000" xml:space="preserve">
<metadata> Svg Vector Icons : http://www.onlinewebfonts.com/icon </metadata>
<g><path fill="white" d="M950.8,459.2h-44.5C887.2,266.3,733.7,112.9,540.8,93.7V49.2c0-21.6-17.5-39.2-39.2-39.2h-3.3c-21.6,0-39.2,17.5-39.2,39.2v44.5C266.3,112.9,112.8,266.3,93.7,459.2H49.2c-21.6,0-39.2,17.5-39.2,39.2v3.3c0,21.6,17.5,39.2,39.2,39.2h44.5c19.2,192.9,172.6,346.3,365.5,365.5v44.5c0,21.6,17.5,39.2,39.2,39.2h3.3c21.7,0,39.2-17.5,39.2-39.2v-44.5c192.9-19.2,346.3-172.6,365.5-365.5h44.5c21.7,0,39.2-17.5,39.2-39.2v-3.3C990,476.7,972.5,459.2,950.8,459.2z M804,628.4c-16.6,39.3-40.4,74.6-70.7,104.9c-30.3,30.3-65.6,54.1-104.9,70.7c-28.1,11.9-57.4,19.7-87.6,23.4V663.9c0-21.6-17.5-39.2-39.2-39.2h-3.3c-21.6,0-39.2,17.5-39.2,39.2v163.6c-30.2-3.7-59.5-11.5-87.6-23.4c-39.3-16.6-74.6-40.4-104.9-70.7c-30.3-30.3-54.1-65.6-70.7-104.9c-11.9-28.1-19.7-57.4-23.4-87.6h163.6c21.6,0,39.2-17.5,39.2-39.2v-3.3c0-21.6-17.5-39.2-39.2-39.2H172.5c3.7-30.2,11.5-59.5,23.4-87.6c16.6-39.3,40.4-74.6,70.7-104.9c30.3-30.3,65.6-54.1,104.9-70.7c28.1-11.9,57.4-19.7,87.6-23.4v163.6c0,21.6,17.5,39.2,39.2,39.2h3.3c21.6,0,39.2-17.5,39.2-39.2V172.6c30.2,3.7,59.5,11.5,87.6,23.4c39.3,16.6,74.6,40.4,104.9,70.7c30.3,30.3,54.1,65.6,70.7,104.9c11.9,28.1,19.7,57.4,23.4,87.6H663.9c-21.6,0-39.2,17.5-39.2,39.2v3.3c0,21.6,17.6,39.2,39.2,39.2h163.6C823.7,571,815.9,600.3,804,628.4z"/></g>
</svg>