<?xml version="1.0" encoding="utf-8"?>
<!-- Svg Vector Icons : http://www.onlinewebfonts.com/icon -->
<!DOCTYPE svg PUBLIC "-//W3C//DTD SVG 1.1//EN" "http://www.w3.org/Graphics/SVG/1.1/DTD/svg11.dtd">
<svg version="1.1" xmlns="http://www.w3.org/2000/svg" xmlns:xlink="http://www.w3.org/1999/xlink" x="0px" y="0px" viewBox="0 0 1000 1000" enable-background="new 0 0 1000 1000" xml:space="preserve">
<metadata> Svg Vector Icons : http://www.onlinewebfonts.com/icon </metadata>
<g><g><path fill="white"  stroke-opacity="0.5" stroke="black"  stroke-width="100.0" d="M869.3,871.4c0-30.3-24.6-54.9-54.9-54.9H185.6c-30.3,0-54.9,24.6-54.9,54.9c0,30.3,24.6,54.9,54.9,54.9h628.9C844.8,926.3,869.3,901.6,869.3,871.4z"/><path fill="white"  stroke-opacity="0.5" stroke="black"  stroke-width="100.0" d="M75.3,427c0.9,0,1.7,0,2.6-0.1l87,315H500h335.1l87-315c0.9,0,1.7,0.1,2.6,0.1c36,0,65.3-29.2,65.3-65.3c0-36-29.2-65.3-65.3-65.3c-36,0-65.3,29.2-65.3,65.3c0,7,1.1,13.8,3.2,20.1l-157.4,92L536.1,193.4c17.6-11.7,29.2-31.7,29.2-54.4c0-36-29.2-65.3-65.3-65.3c-36,0-65.3,29.2-65.3,65.3c0,22.8,11.6,42.7,29.2,54.4L294.8,473.9l-157.4-92c2-6.3,3.2-13.1,3.2-20.1c0-36-29.2-65.3-65.3-65.3c-36.1,0-65.4,29.2-65.4,65.3C10,397.8,39.2,427,75.3,427z"/></g><g></g><g></g><g></g><g></g><g></g><g></g><g></g><g></g><g></g><g></g><g></g><g></g><g></g><g></g><g></g></g>
</svg>