<?xml version="1.0" encoding="utf-8"?>
<!-- Svg Vector Icons : http://www.onlinewebfonts.com/icon -->
<!DOCTYPE svg PUBLIC "-//W3C//DTD SVG 1.1//EN" "http://www.w3.org/Graphics/SVG/1.1/DTD/svg11.dtd">
<svg version="1.1" xmlns="http://www.w3.org/2000/svg" xmlns:xlink="http://www.w3.org/1999/xlink" x="0px" y="0px" viewBox="0 0 1000 1000" enable-background="new 0 0 1000 1000" xml:space="preserve">
<metadata> Svg Vector Icons : http://www.onlinewebfonts.com/icon </metadata>
<g><path fill="white" d="M651.6,856.2H509.1c-5.2,0-9.5,1.7-12.8,5c-3.3,3.3-5,7.6-5,12.8v106.9c0,5.2,1.7,9.5,5,12.8c3.3,3.3,7.6,5,12.8,5h142.5c5.2,0,9.5-1.7,12.8-5c3.3-3.3,5-7.6,5-12.8V874c0-5.2-1.7-9.5-5-12.8C661.1,857.9,656.8,856.2,651.6,856.2z"/><path fill="white" d="M384.5,785H277.6V19.1c0-5.2-1.7-9.5-5-12.8c-3.3-3.3-7.6-5-12.8-5H152.9c-5.2,0-9.5,1.7-12.8,5c-3.3,3.3-5,7.6-5,12.8V785H28.2c-8.2,0-13.7,3.7-16.7,11.1c-3,7.1-1.7,13.5,3.9,19.5l178.1,178.1c4.1,3.3,8.3,5,12.8,5c4.8,0,9.1-1.7,12.8-5l177.5-177.5c3.7-4.4,5.6-8.9,5.6-13.3c0-5.2-1.7-9.5-5-12.8C393.9,786.6,389.7,785,384.5,785z"/><path fill="white" d="M758.5,571.3H509.1c-5.2,0-9.5,1.7-12.8,5c-3.3,3.3-5,7.6-5,12.8v106.9c0,5.2,1.7,9.5,5,12.8c3.3,3.3,7.6,5,12.8,5h249.3c5.2,0,9.5-1.7,12.8-5c3.3-3.3,5-7.6,5-12.8V589c0-5.2-1.7-9.5-5-12.8C767.9,572.9,763.7,571.3,758.5,571.3z"/><path fill="white" d="M985,6.3c-3.3-3.3-7.6-5-12.8-5H509.1c-5.2,0-9.5,1.7-12.8,5c-3.3,3.3-5,7.6-5,12.8V126c0,5.2,1.7,9.5,5,12.8c3.3,3.3,7.6,5,12.8,5h463.1c5.2,0,9.5-1.7,12.8-5c3.3-3.3,5-7.6,5-12.8l0-106.9C990,13.9,988.3,9.7,985,6.3z"/><path fill="white" d="M865.3,286.3H509.1c-5.2,0-9.5,1.7-12.8,5c-3.3,3.3-5,7.6-5,12.8V411c0,5.2,1.7,9.5,5,12.8c3.3,3.3,7.6,5,12.8,5h356.2c5.2,0,9.5-1.7,12.8-5c3.3-3.3,5-7.6,5-12.8V304.1c0-5.2-1.7-9.5-5-12.8C874.8,288,870.5,286.3,865.3,286.3z"/></g>
</svg>