<?xml version="1.0" encoding="utf-8"?>
<!-- Svg Vector Icons : http://www.onlinewebfonts.com/icon -->
<!DOCTYPE svg PUBLIC "-//W3C//DTD SVG 1.1//EN" "http://www.w3.org/Graphics/SVG/1.1/DTD/svg11.dtd">
<svg version="1.1" xmlns="http://www.w3.org/2000/svg" xmlns:xlink="http://www.w3.org/1999/xlink" x="0px" y="0px" viewBox="0 0 1000 1000" enable-background="new 0 0 1000 1000" xml:space="preserve">
<metadata> Svg Vector Icons : http://www.onlinewebfonts.com/icon </metadata>
<g><path fill="white" d="M825.8,91.7l-285,367.5v408.3c0,0-81.7-45.8-81.7-122.5V500v-40.8l-285-367.5H825.8 M890.2,10H109.8c0,0-10.5,0-14.9,0c-24.3,0-44,19.7-44,44c0,4.3,1.3,8.2,2.5,12.2c0,0,10.2,18.5,11.3,19.6l312.9,373.4V745c0,55.3,17.2,95.1,41.3,123.1l88.9,90.7c17.2,16.6,28.7,31.2,51,31.2c32.3,0,58.6-26.2,58.6-58.5l0.6-0.2V480.1L935.4,85.7c1.1-1.1,1.9-2.4,3-3.7l10.8-13.4l-2.4-2.5c1.1-3.9,2.4-7.8,2.4-12.2c0-24.3-19.7-44-44-44c-4.4,0-8.4,1.3-12.4,2.5L890.2,10L890.2,10z"/></g>
</svg>