<?xml version="1.0" encoding="utf-8"?>
<!-- Svg Vector Icons : http://www.onlinewebfonts.com/icon -->
<!DOCTYPE svg PUBLIC "-//W3C//DTD SVG 1.1//EN" "http://www.w3.org/Graphics/SVG/1.1/DTD/svg11.dtd">
<svg version="1.1" xmlns="http://www.w3.org/2000/svg" xmlns:xlink="http://www.w3.org/1999/xlink" x="0px" y="0px" viewBox="0 0 1000 1000" enable-background="new 0 0 1000 1000" xml:space="preserve">
<metadata> Svg Vector Icons : http://www.onlinewebfonts.com/icon </metadata>
<g><path fill="white" d="M753,473.3L753,473.3c-0.5-0.5-1.1-1-1.6-1.5L300.6,21c-14.7-14.7-38.7-14.7-53.3,0l0,0c-14.7,14.7-14.7,38.7,0,53.3L673,500.1L247.2,925.7c-14.7,14.7-14.7,38.7,0,53.3l0,0c14.7,14.7,38.7,14.7,53.3,0l450.8-450.8c0.5-0.5,1.1-1,1.6-1.5l0,0c7.3-7.3,11.1-17,10.9-26.8C763.9,490.4,760.3,480.7,753,473.3z"/></g>
</svg>
