<?xml version="1.0" encoding="UTF-8" standalone="no"?>
<svg
   version="1.1"
   x="0px"
   y="0px"
   viewBox="0 0 1000 1000"
   enable-background="new 0 0 1000 1000"
   xml:space="preserve"
   id="svg2501"
   sodipodi:docname="sprite_BusyAnimationGear10T.svg"
   inkscape:version="1.2.2 (732a01da63, 2022-12-09)"
   xmlns:inkscape="http://www.inkscape.org/namespaces/inkscape"
   xmlns:sodipodi="http://sodipodi.sourceforge.net/DTD/sodipodi-0.dtd"
   xmlns="http://www.w3.org/2000/svg"
   xmlns:svg="http://www.w3.org/2000/svg"
   xmlns:rdf="http://www.w3.org/1999/02/22-rdf-syntax-ns#"
   xmlns:cc="http://creativecommons.org/ns#"
   xmlns:dc="http://purl.org/dc/elements/1.1/"><defs
   id="defs2505" /><sodipodi:namedview
   pagecolor="#555555"
   bordercolor="#666666"
   borderopacity="1"
   objecttolerance="10"
   gridtolerance="10"
   guidetolerance="10"
   inkscape:pageopacity="0"
   inkscape:pageshadow="2"
   inkscape:window-width="1920"
   inkscape:window-height="1009"
   id="namedview2503"
   showgrid="false"
   inkscape:zoom="0.612"
   inkscape:cx="908.49673"
   inkscape:cy="501.63399"
   inkscape:window-x="-8"
   inkscape:window-y="-8"
   inkscape:window-maximized="1"
   inkscape:current-layer="layer9"
   showguides="false"
   inkscape:document-rotation="0"
   inkscape:showpageshadow="2"
   inkscape:pagecheckerboard="0"
   inkscape:deskcolor="#d1d1d1" />
<metadata
   id="metadata2495"> Svg Vector Icons : http://www.onlinewebfonts.com/icon <rdf:RDF><cc:Work
     rdf:about=""><dc:format>image/svg+xml</dc:format><dc:type
       rdf:resource="http://purl.org/dc/dcmitype/StillImage" /></cc:Work></rdf:RDF></metadata>

<g
   inkscape:groupmode="layer"
   id="layer9"
   inkscape:label="Icon"
   style="display:inline"><path
     id="path715"
     style="fill:#ffffff;stroke-width:40"
     d="M 491.93359 74.232422 A 426.34378 426.34378 0 0 0 454.85352 76.884766 L 434.47656 100.28125 A 405.54654 405.54654 0 0 0 389.2168 110.125 L 361.36914 97.832031 A 426.34378 426.34378 0 0 0 326.63672 110.78711 L 313.89062 140.73242 A 405.54654 405.54654 0 0 0 274.53516 163.47852 L 244.06836 160.375 A 426.34378 426.34378 0 0 0 214.81641 183.7793 L 211.96875 215.96289 A 405.54654 405.54654 0 0 0 182.23633 249.48047 L 151.32812 256.1543 A 426.34378 426.34378 0 0 0 131.20898 288.04883 L 138.21094 318.50977 A 405.54654 405.54654 0 0 0 120.54297 359.83789 L 92.269531 376.28125 A 426.34378 426.34378 0 0 0 83.830078 412.50195 L 99.408203 438.48438 A 405.54654 405.54654 0 0 0 95.583984 484.20117 L 74.232422 508.06641 A 426.34378 426.34378 0 0 0 76.884766 545.14648 L 100.28125 565.52344 A 405.54654 405.54654 0 0 0 110.125 610.7832 L 97.832031 638.63086 A 426.34378 426.34378 0 0 0 110.78711 673.36328 L 140.73242 686.10938 A 405.54654 405.54654 0 0 0 163.47852 725.46484 L 160.375 755.93164 A 426.34378 426.34378 0 0 0 183.7793 785.18359 L 215.96289 788.03125 A 405.54654 405.54654 0 0 0 249.48047 817.76367 L 256.1543 848.67188 A 426.34378 426.34378 0 0 0 288.04883 868.79102 L 318.50977 861.78906 A 405.54654 405.54654 0 0 0 359.83789 879.45703 L 376.28125 907.73047 A 426.34378 426.34378 0 0 0 412.50195 916.16992 L 438.48438 900.5918 A 405.54654 405.54654 0 0 0 484.20117 904.41602 L 508.06641 925.76758 A 426.34378 426.34378 0 0 0 545.14648 923.11523 L 565.52344 899.71875 A 405.54654 405.54654 0 0 0 610.7832 889.875 L 638.63086 902.16797 A 426.34378 426.34378 0 0 0 673.36328 889.21289 L 686.10938 859.26758 A 405.54654 405.54654 0 0 0 725.46484 836.52148 L 755.93164 839.625 A 426.34378 426.34378 0 0 0 785.18359 816.2207 L 788.03125 784.03711 A 405.54654 405.54654 0 0 0 817.76367 750.51953 L 848.67188 743.8457 A 426.34378 426.34378 0 0 0 868.79102 711.95117 L 861.78906 681.49023 A 405.54654 405.54654 0 0 0 879.45703 640.16211 L 907.73047 623.71875 A 426.34378 426.34378 0 0 0 916.16992 587.49805 L 900.5918 561.51562 A 405.54654 405.54654 0 0 0 904.41602 515.79883 L 926.13477 491.52148 A 426.34378 426.34378 0 0 0 923.96875 455.59766 L 900.18164 434.88086 A 405.54654 405.54654 0 0 0 889.95508 389.03516 L 902.68555 360.19531 A 426.34378 426.34378 0 0 0 889.40039 326.7168 L 860.4668 314.40234 A 405.54654 405.54654 0 0 0 836.5918 273.82812 L 839.77344 242.60547 A 426.34378 426.34378 0 0 0 816.92969 214.87891 L 785.58008 212.10547 A 405.54654 405.54654 0 0 0 750.25977 181.0332 L 743.61523 150.26367 A 426.34378 426.34378 0 0 0 713.19922 130.92188 L 682.50586 137.97656 A 405.54654 405.54654 0 0 0 639.39844 119.23047 L 623.53125 91.949219 A 426.34378 426.34378 0 0 0 588.72656 83.09375 L 561.79688 99.240234 A 405.54654 405.54654 0 0 0 514.94531 94.820312 L 491.93359 74.232422 z M 500 410.13086 A 89.869278 89.869278 0 0 1 589.86914 500 A 89.869278 89.869278 0 0 1 500 589.86914 A 89.869278 89.869278 0 0 1 410.13086 500 A 89.869278 89.869278 0 0 1 500 410.13086 z " /></g></svg>
