<?xml version="1.0" encoding="UTF-8" standalone="no"?>
<svg
   version="1.1"
   x="0px"
   y="0px"
   viewBox="0 0 1000 1000"
   enable-background="new 0 0 1000 1000"
   xml:space="preserve"
   id="svg2501"
   sodipodi:docname="sprite_BusyAnimationGear20T.svg"
   inkscape:version="1.2.2 (732a01da63, 2022-12-09)"
   xmlns:inkscape="http://www.inkscape.org/namespaces/inkscape"
   xmlns:sodipodi="http://sodipodi.sourceforge.net/DTD/sodipodi-0.dtd"
   xmlns="http://www.w3.org/2000/svg"
   xmlns:svg="http://www.w3.org/2000/svg"
   xmlns:rdf="http://www.w3.org/1999/02/22-rdf-syntax-ns#"
   xmlns:cc="http://creativecommons.org/ns#"
   xmlns:dc="http://purl.org/dc/elements/1.1/"><defs
   id="defs2505" /><sodipodi:namedview
   pagecolor="#555555"
   bordercolor="#666666"
   borderopacity="1"
   objecttolerance="10"
   gridtolerance="10"
   guidetolerance="10"
   inkscape:pageopacity="0"
   inkscape:pageshadow="2"
   inkscape:window-width="1920"
   inkscape:window-height="1009"
   id="namedview2503"
   showgrid="false"
   inkscape:zoom="0.612"
   inkscape:cx="908.49673"
   inkscape:cy="501.63399"
   inkscape:window-x="-8"
   inkscape:window-y="-8"
   inkscape:window-maximized="1"
   inkscape:current-layer="layer9"
   showguides="false"
   inkscape:document-rotation="0"
   inkscape:showpageshadow="2"
   inkscape:pagecheckerboard="0"
   inkscape:deskcolor="#d1d1d1" />
<metadata
   id="metadata2495"> Svg Vector Icons : http://www.onlinewebfonts.com/icon <rdf:RDF><cc:Work
     rdf:about=""><dc:format>image/svg+xml</dc:format><dc:type
       rdf:resource="http://purl.org/dc/dcmitype/StillImage" /></cc:Work></rdf:RDF></metadata>

<g
   inkscape:groupmode="layer"
   id="layer9"
   inkscape:label="Icon"
   style="display:inline"><path
     id="path1024"
     style="fill:#ffffff;stroke-width:37.5879"
     d="M 482.32812 195.70898 A 305.55554 305.55554 0 0 0 422.82227 204.88477 L 413.49414 257.42383 A 258.16992 258.16992 0 0 0 354.39062 287.33008 L 306.57812 264.08008 A 305.55554 305.55554 0 0 0 264.08008 306.57812 L 287.33008 354.39062 A 258.16992 258.16992 0 0 0 257.42383 413.49414 L 204.88477 422.82227 A 305.55554 305.55554 0 0 0 195.70898 482.32812 L 242.34375 507.19727 A 258.16992 258.16992 0 0 0 252.42188 573.0957 L 216.05664 610.84375 A 305.55554 305.55554 0 0 0 242.66406 664.66797 L 296.03125 657.23242 A 258.16992 258.16992 0 0 0 342.76758 703.96875 L 335.33203 757.33594 A 305.55554 305.55554 0 0 0 389.15625 783.94336 L 426.9043 747.57812 A 258.16992 258.16992 0 0 0 492.80273 757.65625 L 517.67188 804.29102 A 305.55554 305.55554 0 0 0 577.17773 795.11523 L 586.50586 742.57617 A 258.16992 258.16992 0 0 0 645.60938 712.66992 L 693.42188 735.91992 A 305.55554 305.55554 0 0 0 735.91992 693.42188 L 712.66992 645.60938 A 258.16992 258.16992 0 0 0 742.57617 586.50586 L 795.11523 577.17773 A 305.55554 305.55554 0 0 0 804.29102 517.67188 L 757.99805 492.98633 A 258.16992 258.16992 0 0 0 747.56641 426.91406 L 784.44336 388.63672 A 305.55554 305.55554 0 0 0 757.28711 335.33789 L 704.60742 342.67773 A 258.16992 258.16992 0 0 0 657.32227 295.39258 L 664.66211 242.71289 A 305.55554 305.55554 0 0 0 611.36328 215.55664 L 573.08594 252.43359 A 258.16992 258.16992 0 0 0 507.01367 242.00195 L 482.32812 195.70898 z M 500 411.76562 A 88.235291 88.235291 0 0 1 588.23438 500 A 88.235291 88.235291 0 0 1 500 588.23438 A 88.235291 88.235291 0 0 1 411.76562 500 A 88.235291 88.235291 0 0 1 500 411.76562 z " /></g></svg>
