<?xml version="1.0" encoding="UTF-8" standalone="no"?>
<!-- Created with Inkscape (http://www.inkscape.org/) -->

<svg
   width="57mm"
   height="57mm"
   viewBox="0 0 57 57"
   version="1.1"
   id="svg86081"
   xmlns="http://www.w3.org/2000/svg"
   xmlns:svg="http://www.w3.org/2000/svg">
  <defs
     id="defs86078" />
  <path
     style="display:inline;fill:#20abdd;fill-opacity:1;fill-rule:evenodd;stroke:none;stroke-width:0.35359;stroke-opacity:1"
     id="path12173"
     d="M 56.140638,28.419744 A 27.487947,27.487947 0 0 1 28.867619,55.906852 27.487947,27.487947 0 0 1 1.1681045,28.849588 27.487947,27.487947 0 0 1 28.007959,0.93935919 27.487947,27.487947 0 0 1 56.127195,27.560163" />
  <path
     style="display:inline;fill:#008aa6;fill-opacity:1;fill-rule:evenodd;stroke:none;stroke-width:0.505725;stroke-opacity:0.976109"
     id="path12175"
     d="M 53.646305,28.374517 A 25.193169,25.193169 0 0 1 28.650122,53.566916 25.193169,25.193169 0 0 1 3.2630483,28.768476 25.193169,25.193169 0 0 1 27.862229,3.1882796 25.193169,25.193169 0 0 1 53.633984,27.586697" />
  <path
     style="display:inline;fill:#000000;fill-opacity:1;stroke:#ffffce;stroke-width:0.239629px;stroke-linecap:butt;stroke-linejoin:miter;stroke-opacity:0"
     d="m 17.897663,11.901422 c 3.1589,-2.9461605 5.83904,-5.3021705 9.75073,-7.2925405 3.84892,2.04038 6.31088,4.67516 8.89156,7.2590505 l -4.83762,0.27861 0.1458,8.75095 c 1.27391,0.85986 1.67844,1.30352 2.84581,2.92652 l 8.96706,0.6405 0.2135,-4.91054 c 2.48054,2.81843 5.0441,5.52061 6.61856,9.60755 -1.77732,3.72254 -4.50598,6.49372 -7.39446,9.10507 l -0.0781,-3.91333 -8.32654,0.3593 c -0.55281,0.94687 -1.33235,1.89374 -2.63231,2.84062 l 0.003,7.26166 4.97823,-0.0678 c -2.54005,2.29021 -5.43858,3.98301 -8.54005,5.33753 -3.64471,-1.29381 -7.0668,-3.41361 -9.96166,-5.83222 l 3.77013,0.0676 -1.06749,-6.19154 c -1.26876,-1.06115 -2.51288,-2.15926 -3.41344,-3.77272 l -6.69664,-0.78371 0.6483,4.05394 c -2.48586,-2.86041 -4.39988,-5.72948 -6.05614,-8.95668 1.52653,-4.18961 2.63758,-6.4938 4.84283,-9.32894 l 0.0756,4.48352 7.25386,-0.4244 c 0.81137,-1.06751 1.42061,-1.99442 3.13222,-3.06192 0.13155,-3.08852 0.56448,-5.72496 1.06751,-8.25624 z"
     id="path12177" />
  <path
     style="display:inline;fill:#00cdf9;fill-opacity:1;fill-rule:evenodd;stroke:none;stroke-width:0.341603;stroke-opacity:0"
     id="path12179"
     d="m 34.12313,29.355566 a 7.8730273,7.8730273 0 0 1 -7.811468,7.872787 7.8730273,7.8730273 0 0 1 -7.933624,-7.749672 7.8730273,7.8730273 0 0 1 7.687403,-7.993976 7.8730273,7.8730273 0 0 1 8.053839,7.624662" />
</svg>
