<?xml version="1.0" encoding="utf-8"?>
<!-- Svg Vector Icons : http://www.onlinewebfonts.com/icon -->
<!DOCTYPE svg PUBLIC "-//W3C//DTD SVG 1.1//EN" "http://www.w3.org/Graphics/SVG/1.1/DTD/svg11.dtd">
<svg version="1.1" xmlns="http://www.w3.org/2000/svg" xmlns:xlink="http://www.w3.org/1999/xlink" x="0px" y="0px" viewBox="0 0 1000 1000" enable-background="new 0 0 1000 1000" xml:space="preserve">
<metadata> Svg Vector Icons : http://www.onlinewebfonts.com/icon </metadata>
<g><path fill="gray" stroke="black" stroke-width="10"  d="M928.8,224.4H71.3c-33.8,0-61.3,27.4-61.3,61.3v428.8c0,33.8,27.4,61.3,61.3,61.3h857.5c33.8,0,61.3-27.4,61.3-61.3V285.6C990,251.8,962.6,224.4,928.8,224.4z M944.1,683.8c0,33.8-12.1,45.9-45.9,45.9H101.9c-33.8,0-45.9-12.1-45.9-45.9V316.3c0-33.8,12.1-45.9,45.9-45.9h796.3c33.8,0,45.9,12.1,45.9,45.9V683.8z"/><path fill="gray" stroke="black" stroke-width="20"  d="M852.2,300.9H576.6c-33.8,0-61.3,27.4-61.3,61.3v275.6c0,33.8,27.4,61.3,61.3,61.3h275.6c33.8,0,61.3-27.4,61.3-61.3V362.2C913.4,328.4,886,300.9,852.2,300.9z"/><path fill="black" stroke="black" stroke-width="10"  d="M214.7,437.7c-6.4-7-14.3-12.4-23.5-16.2s-19.6-5.7-31.2-5.7c-11.2,0-21.5,1.9-30.9,5.6c-9.4,3.8-17.4,9.2-23.7,16.3c-6.7,7.5-11.7,16.4-15.2,26.9c-3.5,10.5-5.2,22.3-5.2,35.4c0,13.4,1.7,25.3,5.3,35.7c3.5,10.4,8.5,19.2,15,26.4c6.5,7.2,14.4,12.6,23.7,16.4c9.3,3.8,19.6,5.7,31,5.7c11.7,0,22-1.8,31.1-5.5c9.1-3.7,17-9.2,23.6-16.5c6.4-7,11.5-15.8,15-26.3c3.6-10.5,5.4-22.5,5.4-35.8c0-13.3-1.7-25.2-5.3-35.7C226.3,453.8,221.2,445,214.7,437.7z M198.4,548.8c-9.5,11.3-22.3,16.9-38.4,16.9c-16.1,0-28.9-5.6-38.4-16.9c-9.6-11.2-14.3-27.5-14.3-48.7c0-21,4.7-37.2,14.1-48.6c9.4-11.4,22.3-17.1,38.7-17.1c16.3,0,29.1,5.7,38.6,17.1c9.4,11.4,14.1,27.6,14.1,48.6C212.7,521.3,207.9,537.5,198.4,548.8z"/><path fill="black" stroke="black" stroke-width="10"  d="M255.3,580.8h21.5V503H347v-19.1h-70.3v-45.6h81.8v-19.1H255.3V580.8z"/><path fill="black" stroke="black" stroke-width="10"  d="M383.1,580.8h21.5V503h70.3v-19.1h-70.3v-45.6h81.8v-19.1H383.1V580.8z"/></g>
</svg>