<?xml version="1.0" encoding="utf-8"?>
<!-- Svg Vector Icons : http://www.onlinewebfonts.com/icon -->
<!DOCTYPE svg PUBLIC "-//W3C//DTD SVG 1.1//EN" "http://www.w3.org/Graphics/SVG/1.1/DTD/svg11.dtd">
<svg version="1.1" xmlns="http://www.w3.org/2000/svg" xmlns:xlink="http://www.w3.org/1999/xlink" x="0px" y="0px" viewBox="0 0 1000 1000" enable-background="new 0 0 1000 1000" xml:space="preserve">
<metadata> Svg Vector Icons : http://www.onlinewebfonts.com/icon </metadata>
<g><path fill="white" d="M500,990c270.6,0,490-219.4,490-490c0-270.7-219.4-490-490-490C229.4,10,10,229.3,10,500C10,770.6,229.4,990,500,990z M171.1,425.4c0-9.2,7.5-16.8,16.8-16.8h296.4c9.2,0,16.8-7.5,16.8-16.8v-64.5c0-9.2,6.5-13,14.5-8.4l298.8,172.6c8,4.6,8,12.2,0,16.8L515.5,681c-8,4.6-14.5,0.8-14.5-8.4v-64.5c0-9.2-7.5-16.8-16.8-16.8H187.9c-9.2,0-16.8-7.5-16.8-16.8V425.4z"/></g>
</svg>