<?xml version="1.0" encoding="UTF-8" standalone="no"?>
<!-- Created with Inkscape (http://www.inkscape.org/) -->

<svg
   width="57mm"
   height="57mm"
   viewBox="0 0 57 57"
   version="1.1"
   id="svg86081"
   sodipodi:docname="UI_transformGizmo_Z_control_default.svg"
   inkscape:version="1.2.2 (b0a8486, 2022-12-01)"
   xml:space="preserve"
   xmlns:inkscape="http://www.inkscape.org/namespaces/inkscape"
   xmlns:sodipodi="http://sodipodi.sourceforge.net/DTD/sodipodi-0.dtd"
   xmlns="http://www.w3.org/2000/svg"
   xmlns:svg="http://www.w3.org/2000/svg"><sodipodi:namedview
     id="namedview47070"
     pagecolor="#ffffff"
     bordercolor="#666666"
     borderopacity="1.0"
     inkscape:showpageshadow="2"
     inkscape:pageopacity="0.0"
     inkscape:pagecheckerboard="true"
     inkscape:deskcolor="#d1d1d1"
     inkscape:document-units="mm"
     showgrid="false"
     inkscape:zoom="1.984839"
     inkscape:cx="115.6265"
     inkscape:cy="44.839908"
     inkscape:window-width="1512"
     inkscape:window-height="882"
     inkscape:window-x="0"
     inkscape:window-y="38"
     inkscape:window-maximized="1"
     inkscape:current-layer="svg86081" /><defs
     id="defs86078" /><path
     style="display:inline;fill:#000000;fill-opacity:1;stroke:none;stroke-width:0.31362px;stroke-linecap:round;stroke-linejoin:round;stroke-opacity:1"
     d="m 52.839483,28.374883 -11.653624,10.693377 -0.0057,-6.798134 -8.254877,0.0057 -0.0069,-7.769287 8.426822,-0.0086 0.03859,-7.184786 z"
     id="path1238" /><path
     style="display:inline;fill:#000000;fill-opacity:1;stroke:none;stroke-width:0.31362px;stroke-linecap:round;stroke-linejoin:round;stroke-opacity:1"
     d="m 4.7196544,28.374883 11.6536286,10.693377 0.0057,-6.798134 8.254873,0.0057 0.0069,-7.769287 -8.426818,-0.0086 -0.03859,-7.184786 z"
     id="path1240" /><path
     style="display:inline;fill:#000000;fill-opacity:1;stroke:none;stroke-width:0.31362px;stroke-linecap:round;stroke-linejoin:round;stroke-opacity:1"
     d="m 28.845667,4.1529827 10.74536,11.6056923 -6.798034,0.03638 0.04245,8.254765 -7.769166,0.04154 -0.04597,-8.426664 -7.18487,-0.0057 z"
     id="path1242" /><path
     style="display:inline;fill:#000000;fill-opacity:1;stroke:none;stroke-width:0.31362px;stroke-linecap:round;stroke-linejoin:round;stroke-opacity:1"
     d="m 28.814043,52.501165 10.641163,-11.701339 -6.798082,0.02579 -0.03134,-8.254822 -7.769227,0.02865 0.02935,8.426779 -7.184523,0.07076 z"
     id="path1244" /><path
     style="font-variation-settings:'wght' 1.93;fill:#2f31f5;fill-opacity:1;stroke:none;stroke-width:0.799999;stroke-linecap:round;stroke-linejoin:round;stroke-opacity:1;paint-order:markers stroke fill"
     id="path61228"
     sodipodi:type="arc"
     sodipodi:cx="28.617977"
     sodipodi:cy="28.331161"
     sodipodi:rx="26.001186"
     sodipodi:ry="26.06872"
     sodipodi:start="0"
     sodipodi:end="6.251909"
     sodipodi:open="true"
     sodipodi:arc-type="arc"
     d="M 54.619164,28.331161 A 26.001186,26.06872 0 0 1 28.82128,54.399084 26.001186,26.06872 0 0 1 2.61997,28.738812 26.001186,26.06872 0 0 1 28.008117,2.2696134 26.001186,26.06872 0 0 1 54.606447,27.515961" /><path
     style="font-variation-settings:'wght' 1.93;fill:#6c70f6;fill-opacity:1;stroke:none;stroke-width:0.799999;stroke-linecap:round;stroke-linejoin:round;stroke-opacity:1;paint-order:markers stroke fill"
     id="path61697"
     sodipodi:type="arc"
     sodipodi:cx="28.753052"
     sodipodi:cy="26.744078"
     sodipodi:rx="20.058058"
     sodipodi:ry="19.517773"
     sodipodi:start="0"
     sodipodi:end="6.251909"
     sodipodi:open="true"
     sodipodi:arc-type="arc"
     d="M 48.81111,26.744078 A 20.058058,19.517773 0 0 1 28.909886,46.261254 20.058058,19.517773 0 0 1 8.6974465,27.049287 20.058058,19.517773 0 0 1 28.282588,7.2316745 20.058058,19.517773 0 0 1 48.8013,26.133733" /><path
     id="path62527"
     style="fill:#000000;fill-opacity:1;stroke:none;stroke-width:0.271948px;stroke-linecap:butt;stroke-linejoin:miter;stroke-opacity:1"
     d="m 28.551298,8.4031708 -9.479008,6.1613812 6.141744,0.02532 -4.681884,15.919959 H 6.1630004 L 28.27638,47.552203 51.04915,30.509832 H 36.680518 l -4.674133,-15.892054 6.261116,0.02584 z" /></svg>
