<?xml version="1.0" encoding="UTF-8" standalone="no"?>
<!-- Created with Inkscape (http://www.inkscape.org/) -->

<svg
   width="1000mm"
   height="1000mm"
   viewBox="0 0 1000 999.99995"
   version="1.1"
   id="svg5"
   inkscape:version="1.1.2 (0a00cf5339, 2022-02-04)"
   sodipodi:docname="theme1.svg"
   xmlns:inkscape="http://www.inkscape.org/namespaces/inkscape"
   xmlns:sodipodi="http://sodipodi.sourceforge.net/DTD/sodipodi-0.dtd"
   xmlns="http://www.w3.org/2000/svg"
   xmlns:svg="http://www.w3.org/2000/svg">
  <sodipodi:namedview
     id="namedview7"
     pagecolor="#ffffff"
     bordercolor="#000000"
     borderopacity="0.25"
     inkscape:pageshadow="2"
     inkscape:pageopacity="0.0"
     inkscape:pagecheckerboard="0"
     inkscape:document-units="mm"
     showgrid="false"
     inkscape:zoom="0.28685466"
     inkscape:cx="2002.7564"
     inkscape:cy="1938.2638"
     inkscape:window-width="2560"
     inkscape:window-height="1361"
     inkscape:window-x="0"
     inkscape:window-y="0"
     inkscape:window-maximized="1"
     inkscape:current-layer="layer1" />
  <defs
     id="defs2" />
  <g
     inkscape:label="Warstwa 1"
     inkscape:groupmode="layer"
     id="layer1">
    <path
       id="path6867-3"
       style="fill:#ffffff;fill-opacity:1;stroke-width:11.8843;stroke-linecap:square;stroke-linejoin:round"
       d="M 455.31177,58.437624 C 419.5501,58.033898 384.08139,61.309491 350.44769,68.090678 115.94013,115.38479 -35.821885,343.82681 11.472225,578.33494 42.49012,732.13783 135.13378,825.6615 261.38693,858.47749 c 66.24844,17.21966 150.42931,21.81407 192.23286,-27.61375 38.25292,-45.23017 0.59981,-94.76759 -4.2732,-177.66476 C 441.6208,521.78453 532.39025,522.03481 641.5287,512.97978 861.35051,494.74111 833.68197,258.11485 743.49093,166.28027 672.52468,94.019951 562.59676,59.658456 455.31118,58.437624 Z M 601.84215,178.95397 A 107.80182,107.80182 0 0 1 704.78646,265.4087 107.80182,107.80182 0 0 1 620.42105,392.39596 107.80182,107.80182 0 0 1 493.4332,308.03113 107.80182,107.80182 0 0 1 577.79862,181.04328 107.80182,107.80182 0 0 1 601.84215,178.9557 Z m -298.39967,14.24688 a 83.231836,83.231836 0 0 1 79.47517,66.75073 83.231836,83.231836 0 0 1 -65.13486,98.04541 83.231836,83.231836 0 0 1 -98.03735,-65.13486 83.231836,83.231836 0 0 1 65.13544,-98.04541 83.231836,83.231836 0 0 1 18.5616,-1.61472 z M 156.79331,445.39114 a 70.276142,70.276142 0 0 1 67.10653,56.36183 70.276142,70.276142 0 0 1 -55.00028,82.783 70.276142,70.276142 0 0 1 -82.783013,-54.99971 70.276142,70.276142 0 0 1 54.999713,-82.78301 70.276142,70.276142 0 0 1 15.67705,-1.36089 z m 134.60176,209.67743 a 57.312778,57.312778 0 0 1 54.72924,45.96486 57.312778,57.312778 0 0 1 -44.84783,67.51194 57.312778,57.312778 0 0 1 -67.51253,-44.8559 57.312778,57.312778 0 0 1 44.84785,-67.51253 57.312778,57.312778 0 0 1 12.78327,-1.1072 z" />
    <path
       id="path6869-6"
       style="fill:#ffffff;fill-opacity:1;stroke-width:7.23526;stroke-linecap:square;stroke-linejoin:round"
       d="m 972.58921,324.21796 17.74964,15.91003 c 6.40691,4.89601 5.63417,5.14399 1.22257,11.26025 -68.58687,112.03972 -145.36433,214.8589 -225.90751,313.43833 -11.14319,16.95556 -8.43106,12.11893 -13.65982,-1.32639 -19.40586,-49.70003 -47.52882,-58.78734 -75.85419,-66.92951 -16.5536,-4.53845 -14.94467,-3.04486 -1.92611,-14.78491 85.64852,-88.43159 183.50249,-172.58306 283.80619,-255.87585 7.2385,-7.22292 7.28116,-8.2177 14.56349,-1.68967 z"
       sodipodi:nodetypes="ccccccccc" />
    <path
       id="path6871-7"
       style="fill:#ffffff;fill-opacity:1;stroke-width:6.44066;stroke-linecap:square;stroke-linejoin:round"
       d="m 655.63314,617.89461 c -33.69139,0.34596 -70.70445,17.35232 -98.89949,48.80733 -15.84314,17.67408 -28.13565,42.41424 -37.32677,71.44605 6.7385,-0.60551 13.26883,-0.34596 18.08007,1.50507 25.61786,9.95465 26.34794,66.67807 52.07191,63.93363 34.90125,-3.72534 63.60493,-5.94844 86.69231,8.37571 8.42012,-4.60766 16.99016,-9.57865 25.71879,-15.07615 58.65413,-36.94501 51.26571,-122.60162 11.15934,-158.553 -15.66724,-14.04331 -35.89834,-20.6636 -57.49616,-20.43985 z m -155.14311,219.5871 c -2.99873,31.41292 -3.85222,64.0092 -2.89492,95.76697 39.62887,-67.51425 99.83543,-79.39271 172.41062,-117.9011 -13.23365,-6.73101 -31.86792,-9.35317 -54.51761,-3.67923 -30.50638,7.64044 -39.7517,14.05658 -51.86084,-0.0332 -41.48464,-47.53401 -61.70246,4.82105 -63.13839,25.8497 z"
       sodipodi:nodetypes="ssccscssscccscc" />
  </g>
</svg>
