<?xml version="1.0" encoding="utf-8"?>
<!-- Svg Vector Icons : http://www.onlinewebfonts.com/icon -->
<!DOCTYPE svg PUBLIC "-//W3C//DTD SVG 1.1//EN" "http://www.w3.org/Graphics/SVG/1.1/DTD/svg11.dtd">
<svg version="1.1" xmlns="http://www.w3.org/2000/svg" xmlns:xlink="http://www.w3.org/1999/xlink" x="0px" y="0px" viewBox="0 0 1000 1000" enable-background="new 0 0 1000 1000" xml:space="preserve">
<metadata> Svg Vector Icons : http://www.onlinewebfonts.com/icon </metadata>
<g><g transform="translate(0.000000,511.000000) scale(0.100000,-0.100000)"><path fill="white" d="M512.4,4988.2C344.3,4941,170,4764.6,122.8,4592.4c-16.4-59.5-22.6-1086.9-22.6-3570.3c0-3890.2-12.3-3590.8,145.6-3769.3c45.1-49.2,129.2-114.8,186.6-143.6l106.6-53.3h1817h1819l121,61.5c102.5,51.3,278.9,219.4,1109.4,1050c791.6,793.6,996.7,1011,1031.5,1088.9l43.1,98.4l-2,2616.7c0,2186.1-6.2,2627-30.8,2682.4c-39,94.3-186.6,250.2-287.1,303.5l-82,45.1l-2748,4.1C1562.4,5008.7,557.5,5002.5,512.4,4988.2z M6090.4,4604.7c36.9-47.2,39-114.8,39-2444.5V-237.1H4950.2H3771v-1179.2v-1179.2H2163.3c-1552.4,0-1609.8,2.1-1654.9,39l-49.2,39l-6.1,3515c-2.1,2487.5,2,3529.3,18.5,3566.2c12.3,30.8,41,63.6,65.6,75.9c30.8,14.4,888,20.5,2778.7,18.5l2735.7-4.1L6090.4,4604.7z M6129.4-600.1c0-26.7-1956.4-1974.9-1983.1-1974.9c-20.5,0-26.7,207.1-26.7,994.6v994.6h1004.9C5678.2-585.7,6129.4-591.9,6129.4-600.1z"/><path fill="white" d="M6847.1,2992.8v-174.3h1300.2c1248.9,0,1302.2-2.1,1347.3-39l49.2-39V333v-2405.5l-1173-6.1l-1175.1-4.1l-4.1-1175.1l-6.1-1173l-1538.1-6.1c-844.9-4.1-1577,0-1626.2,6.1c-164.1,24.6-160,4.1-166.1,980.3l-2.1,160l-168.2-6.2l-170.2-6.2v-522.9c0-506.5,2.1-527.1,47.2-619.3c67.7-135.3,227.6-274.8,360.9-313.8c94.3-26.7,346.6-30.8,1890.8-26.7l1782.1,6.2l102.5,47.1c82,36.9,299.4,244.1,1093,1035.6c808,805.9,1000.8,1009,1045.9,1101.2l55.4,112.8L9898.6,89c4.1,2235.3,0,2588-26.7,2678.2c-39,137.4-172.3,289.2-307.6,350.7l-102.5,49.2H8155.5H6847.1V2992.8z M9533.6-2445.8c0-20.5-1907.2-1931.8-1952.3-1956.4c-34.9-18.5-36.9,32.8-36.9,976.1v994.6H8539C9086.5-2431.4,9533.6-2437.5,9533.6-2445.8z"/></g></g>
</svg>
