<?xml version="1.0" encoding="utf-8"?>
<!-- Svg Vector Icons : http://www.onlinewebfonts.com/icon -->
<!DOCTYPE svg PUBLIC "-//W3C//DTD SVG 1.1//EN" "http://www.w3.org/Graphics/SVG/1.1/DTD/svg11.dtd">
<svg version="1.1" xmlns="http://www.w3.org/2000/svg" xmlns:xlink="http://www.w3.org/1999/xlink" x="0px" y="0px" viewBox="0 0 1000 1000" enable-background="new 0 0 1000 1000" xml:space="preserve">
<metadata> Svg Vector Icons : http://www.onlinewebfonts.com/icon </metadata>
<g><g transform="translate(0.000000,511.000000) scale(0.100000,-0.100000)"><path fill="white" d="M4348,4809.3c-61.4-38.9-470.5-298.7-910.3-578.9C2999.8,3948.1,2079.3,3361,1396,2923.2c-941-599.4-1252-810.1-1274.5-855.1c-34.8-63.4-26.6-163.7,18.4-220.9c36.8-49.1,4291.9-2945.8,4353.3-2964.2c81.8-24.6,157.5-2,212.8,65.5l51.1,61.4v836.7v838.7l98.2-14.3c53.2-6.1,216.9-43,364.1-81.8c1599.7-405,2886.5-1595.6,3402-3148.3c180-542.1,247.5-975.8,247.5-1595.7v-382.5l59.3-59.3c75.7-75.7,192.3-81.8,278.2-14.3c100.2,79.8,364.1,677.1,491,1112.9c143.2,491,202.5,932.9,202.5,1481.1c-2.1,607.6-77.8,1082.2-263.9,1648.8c-673,2031.4-2512.1,3447-4676.5,3600.4l-196.4,14.3l-14.3,135c-6.1,73.7-12.3,413.2-12.3,754.9v621.9l-59.3,59.3C4593.4,4901.4,4495.3,4897.3,4348,4809.3z"/></g></g>
</svg>
