<?xml version="1.0" encoding="utf-8"?>
<!-- Svg Vector Icons : http://www.onlinewebfonts.com/icon -->
<!DOCTYPE svg PUBLIC "-//W3C//DTD SVG 1.1//EN" "http://www.w3.org/Graphics/SVG/1.1/DTD/svg11.dtd">
<svg version="1.1" xmlns="http://www.w3.org/2000/svg" xmlns:xlink="http://www.w3.org/1999/xlink" x="0px" y="0px" viewBox="0 0 1000 1000" enable-background="new 0 0 1000 1000" xml:space="preserve">
<metadata> Svg Vector Icons : http://www.onlinewebfonts.com/icon </metadata>
<g><g><path fill="white" d="M775.6,316.3V163.1c0-16.8-13.8-30.6-30.6-30.6H530.6V71.2c0-33.7-27.6-61.2-61.3-61.2H346.9c-33.7,0-61.3,27.6-61.3,61.2v61.3H71.3c-16.8,0-30.6,13.8-30.6,30.6v612.5c0,16.8,13.8,30.6,30.6,30.6h275.6V990h428.8l183.8-183.8v-490H775.6z M346.9,71.4c0,0,0.1-0.1,0.1-0.1h122.3c0,0,0.1,0.1,0.1,0.1v61.1H346.9L346.9,71.4L346.9,71.4z M163.1,255v-61.2h490V255H163.1z M775.6,903.4v-97.1h97.1L775.6,903.4z M898.1,745H714.4v183.8H408.1V377.5h490V745L898.1,745z"/></g><g></g><g></g><g></g><g></g><g></g><g></g><g></g><g></g><g></g><g></g><g></g><g></g><g></g><g></g><g></g></g>
</svg>
