<?xml version="1.0" encoding="utf-8"?>
<!-- Svg Vector Icons : http://www.onlinewebfonts.com/icon -->
<!DOCTYPE svg PUBLIC "-//W3C//DTD SVG 1.1//EN" "http://www.w3.org/Graphics/SVG/1.1/DTD/svg11.dtd">
<svg version="1.1" xmlns="http://www.w3.org/2000/svg" xmlns:xlink="http://www.w3.org/1999/xlink" x="0px" y="0px" viewBox="0 0 1000 1000" enable-background="new 0 0 1000 1000" xml:space="preserve">
<metadata> Svg Vector Icons : http://www.onlinewebfonts.com/icon </metadata>
<g><path fill="white" d="M396.6,581.9l84.7,48h268.3L542.1,512.5l412.4-196.7c-14.6-30.5-40.8-55.5-75.3-67.7c-34.5-12.1-70.5-9.3-101.1,5.3L401.7,433l-75.1-42.5c-5.1-2.9-6.2-10.4-2.4-16.9l-1.8,1.3c4.3-5.7,8.8-11.4,12.3-17.7c45-79.5,17-180.1-62.4-225.1c-79.4-45-180.2-16.9-225,62.4c-45,79.5-17.1,180.2,62.4,225.1l146.5,82.9l-152,72.5c-82.5,39.3-117.3,137.9-78,220.3c39.3,82.3,137.8,117.3,220.1,78c82.5-39.5,117.2-138,78-220.3c-3.1-6.7-7.3-12.7-11.2-18.6l1.7,1.3c-3.2-6.6-1.6-14,3.6-16.6L396.6,581.9z M219.8,817.3c-51.5,24.6-113.1,2.7-137.7-48.8c-24.6-51.4-2.7-113,48.7-137.7c51.5-24.5,113-2.7,137.6,48.8C293.1,731.1,271.2,792.6,219.8,817.3z M280.8,326.6c-28,49.8-90.9,67.2-140.7,39.1c-49.5-28.1-67.1-91-39-140.6c28.1-49.7,91-67.2,140.8-39.1C291.5,214.1,309,277,280.8,326.6z"/><path fill="white" d="M461.4,695.9h132.2V828H461.4V695.9L461.4,695.9z"/><path fill="white" d="M659.6,695.9h132.2V828H659.6V695.9z"/><path fill="white" d="M857.8,695.9H990V828H857.8V695.9z"/></g>
</svg>
