<?xml version="1.0" encoding="UTF-8" standalone="no"?>
<!-- Svg Vector Icons : http://www.onlinewebfonts.com/icon -->

<svg
   version="1.1"
   x="0px"
   y="0px"
   viewBox="0 0 1000 1000"
   enable-background="new 0 0 1000 1000"
   xml:space="preserve"
   id="svg40"
   sodipodi:docname="icon_bonded_paste_x96.svg"
   inkscape:version="1.1.2 (0a00cf5339, 2022-02-04)"
   xmlns:inkscape="http://www.inkscape.org/namespaces/inkscape"
   xmlns:sodipodi="http://sodipodi.sourceforge.net/DTD/sodipodi-0.dtd"
   xmlns="http://www.w3.org/2000/svg"
   xmlns:svg="http://www.w3.org/2000/svg"><defs
   id="defs44" /><sodipodi:namedview
   id="namedview42"
   pagecolor="#ffffff"
   bordercolor="#000000"
   borderopacity="0.25"
   inkscape:pageshadow="2"
   inkscape:pageopacity="0.0"
   inkscape:pagecheckerboard="0"
   showgrid="false"
   inkscape:zoom="0.45537677"
   inkscape:cx="578.64173"
   inkscape:cy="1003.5646"
   inkscape:window-width="2560"
   inkscape:window-height="1361"
   inkscape:window-x="0"
   inkscape:window-y="0"
   inkscape:window-maximized="1"
   inkscape:current-layer="layer1" />
<metadata
   id="metadata2"> Svg Vector Icons : http://www.onlinewebfonts.com/icon </metadata>

<g
   inkscape:groupmode="layer"
   id="layer1"
   inkscape:label="Layer 1"><g
     id="g38"><g
       id="g6"><path
         fill="#ffffff"
         d="M 775.6,316.3 V 163.1 c 0,-16.8 -13.8,-30.6 -30.6,-30.6 H 530.6 V 71.2 C 530.6,37.5 503,10 469.3,10 H 346.9 c -33.7,0 -61.3,27.6 -61.3,61.2 v 61.3 H 71.3 c -16.8,0 -30.6,13.8 -30.6,30.6 v 612.5 c 0,16.8 13.8,30.6 30.6,30.6 H 346.9 V 990 H 775.7 L 959.5,806.2 v -490 H 775.6 Z M 346.9,71.4 c 0,0 0.1,-0.1 0.1,-0.1 h 122.3 c 0,0 0.1,0.1 0.1,0.1 v 61.1 H 346.9 Z M 163.1,255 v -61.2 h 490 V 255 Z m 612.5,648.4 v -97.1 h 97.1 z M 898.1,745 H 714.4 V 928.8 H 408.1 V 377.5 h 490 z"
         id="path4" /></g><g
       id="g8" /><g
       id="g10" /><g
       id="g12" /><g
       id="g14" /><g
       id="g16" /><g
       id="g18" /><g
       id="g20" /><g
       id="g22" /><g
       id="g24" /><g
       id="g26" /><g
       id="g28" /><g
       id="g30" /><g
       id="g32" /><g
       id="g34" /><g
       id="g36" /></g><path
     id="rect1106"
     style="fill:none;stroke:#ffffff;stroke-width:38.6393;stroke-linecap:round;stroke-linejoin:round;stroke-opacity:1"
     d="m 628.68332,647.93122 2.54132,2.26388 c 25.23503,22.48027 63.64898,20.25995 86.12929,-4.97455 l 81.58752,-91.58541 c 22.48022,-25.23498 20.26256,-63.64655 -4.97247,-86.12681 l -2.5413,-2.26389 c -25.23504,-22.48026 -63.6466,-20.26264 -86.12682,4.97236 l -63.59959,71.39318"
     sodipodi:nodetypes="cssssssc" /><path
     id="path2417"
     style="fill:none;stroke:#ffffff;stroke-width:38.6393;stroke-linecap:round;stroke-linejoin:round;stroke-opacity:1"
     d="m 665.16545,612.09512 -2.5413,-2.26389 c -25.23505,-22.48026 -63.64912,-20.25982 -86.12928,4.97455 l -81.58767,91.58558 c -22.48013,25.23489 -20.2625,63.64645 4.97253,86.12672 l 2.54132,2.26388 c 25.23504,22.48027 63.6466,20.26263 86.12673,-4.97225 l 61.09337,-68.57985"
     sodipodi:nodetypes="cssssssc" /></g></svg>
