<?xml version="1.0" encoding="utf-8"?>
<!-- Svg Vector Icons : http://www.onlinewebfonts.com/icon -->
<!DOCTYPE svg PUBLIC "-//W3C//DTD SVG 1.1//EN" "http://www.w3.org/Graphics/SVG/1.1/DTD/svg11.dtd">
<svg version="1.1" xmlns="http://www.w3.org/2000/svg" xmlns:xlink="http://www.w3.org/1999/xlink" x="0px" y="0px" viewBox="0 0 1000 1000" enable-background="new 0 0 1000 1000" xml:space="preserve">
<metadata> Svg Vector Icons : http://www.onlinewebfonts.com/icon </metadata>
<g><path fill="white" d="M741.7,149.6c45.2,6.4,92.2-1.8,129.1,4.5c59.8,10.2,90.1,61,83.5,135.8c-24.1,0-48.2,0-72.4,0c-2,132.7-1.1,264.2-1.1,397.4c0,67.2,5.6,137.9-1.1,198.2c-6.3,57-48.1,91.7-99.1,100.2c-50.3,8.4-117,2.2-172.5,2.2c-116.4,0-234.3,2.3-348.4,0c-55.6-1.1-96.5-18.7-121.3-52.3c-24.8-33.6-22.3-84.4-22.3-144.7c0-168,0-334.6,0-500.9c-23,0-46,0-69,0c-11.2-68.8,18.6-118.3,69-134.7c37.1-12.1,86.5-2.3,139.1-5.6c-4.3-74.1-0.2-130.4,63.5-138c28.5-3.4,66.5,0,101.3,0c62.8,0,135.5,0,202.6,0c38.6,0,78.2-3.7,98,13.4C748,48.5,740.8,103.1,741.7,149.6z M324.3,85c0,22.3,0,44.5,0,66.8c116.1,0,232.3,0,348.4,0c0-23.4,0-46.8,0-70.1c-115.8,0-231.5,0-347.3,0C324.1,81.8,324.2,83.4,324.3,85z M256.4,297.6c0,140.9,0,281.2,0,424.1c0,36.2-8.3,113.4,13.4,129.1c8.6,6.3,30.9,7.2,41.2,0c22.4-15.6,14.5-90.6,14.5-128c0-144.8,0-291.5,0-428.6c-22.6,0-45.3,0-67.9,0C256.2,294.5,256.3,296,256.4,297.6z M463.4,297.6c0,126.8,0,274.9,0,410.8c0,32.4-7.5,109.1,5.6,131.4c8.7,14.7,37.8,21.4,52.3,10c19.7-15.4,11.1-96.6,11.1-130.2c0-145.2,0-284.4,0-425.2c-22.6,0-45.3,0-67.9,0C463.3,294.5,463.3,296,463.4,297.6z M672.7,297.6c0,136.5,0,288.4,0,429.7c0,44-8.6,111.5,20,123.6c12.5,5.3,34.6,1.2,40.1-3.3c18.7-15.4,10-97.8,10-130.2c0-144.4,0-282.9,0-423c-23,0-46,0-69,0C672.5,294.5,672.6,296,672.7,297.6z"/></g>
</svg>