<?xml version="1.0" encoding="utf-8"?>
<!-- Svg Vector Icons : http://www.onlinewebfonts.com/icon -->
<!DOCTYPE svg PUBLIC "-//W3C//DTD SVG 1.1//EN" "http://www.w3.org/Graphics/SVG/1.1/DTD/svg11.dtd">
<svg version="1.1" xmlns="http://www.w3.org/2000/svg" xmlns:xlink="http://www.w3.org/1999/xlink" x="0px" y="0px" viewBox="0 0 1000 1000" enable-background="new 0 0 1000 1000" xml:space="preserve">
<metadata> Svg Vector Icons : http://www.onlinewebfonts.com/icon </metadata>
<g><g transform="translate(0.000000,511.000000) scale(0.100000,-0.100000)"><path fill="white" d="M5325.1,4813.2l-59.3-59.3v-541.7c0-296.4-6.1-635.8-12.3-754.3l-14.3-214.6l-196.3-14.3c-903.6-63.4-1790.8-357.7-2547.1-846.3c-412.9-265.8-915.8-717.5-1222.5-1097.8c-1118.2-1386-1463.7-3236-922-4922.6c139-425.2,355.7-899.5,449.7-973.1c83.8-65.4,200.3-57.2,276,16.4l59.3,59.3v400.7c0,842.2,165.6,1541.4,533.5,2260.9C2207.6-820.8,3172.5,25.5,4313.2,446.6c208.5,77.7,668.5,200.3,836.1,222.8l96.1,14.3v-838.1v-836.1l51.1-61.3c55.2-67.5,130.8-90,212.6-65.4c59.3,16.3,4231.6,2855.8,4319.5,2939.6c71.5,65.4,92,163.5,49,243.3c-22.5,47-494.7,357.7-2009.5,1326.7c-1087.6,695-2056.5,1312.4-2150.6,1371.7C5507.1,4897,5419.2,4907.2,5325.1,4813.2z"/></g></g>
</svg>
