<?xml version="1.0" encoding="UTF-8" standalone="no"?>
<!-- Created with Inkscape (http://www.inkscape.org/) -->

<svg
   width="20mm"
   height="20mm"
   viewBox="0 0 20 20"
   version="1.1"
   id="svg85208"
   sodipodi:docname="UI_CamGizmo_X_Pressed.svg"
   inkscape:version="1.2.2 (b0a8486, 2022-12-01)"
   xmlns:inkscape="http://www.inkscape.org/namespaces/inkscape"
   xmlns:sodipodi="http://sodipodi.sourceforge.net/DTD/sodipodi-0.dtd"
   xmlns="http://www.w3.org/2000/svg"
   xmlns:svg="http://www.w3.org/2000/svg">
  <sodipodi:namedview
     id="namedview87399"
     pagecolor="#ffffff"
     bordercolor="#666666"
     borderopacity="1.0"
     inkscape:showpageshadow="2"
     inkscape:pageopacity="0.0"
     inkscape:pagecheckerboard="true"
     inkscape:deskcolor="#d1d1d1"
     inkscape:document-units="mm"
     showgrid="false"
     inkscape:zoom="3.3292177"
     inkscape:cx="36.795431"
     inkscape:cy="36.645245"
     inkscape:window-width="1404"
     inkscape:window-height="728"
     inkscape:window-x="0"
     inkscape:window-y="38"
     inkscape:window-maximized="0"
     inkscape:current-layer="svg85208" />
  <defs
     id="defs85205" />
  <g
     id="layer1"
     transform="translate(-73.561836,-127.31904)">
    <path
       style="display:none;fill:#000000;fill-opacity:1;stroke:#000000;stroke-width:0.191478px;stroke-linecap:round;stroke-linejoin:round;stroke-opacity:1"
       d="m 86.384744,138.30007 -7.162122,6.47704 0.02641,-4.15046 -5.039819,-0.0321 0.03019,-4.74336 5.144802,0.0328 0.05537,-4.38629 z"
       id="path16245" />
    <path
       style="display:inline;fill:#000000;fill-opacity:0.992157;stroke:#bb0000;stroke-width:2.82997;stroke-linecap:round;stroke-linejoin:round;stroke-dasharray:none;stroke-opacity:1;paint-order:markers stroke fill"
       id="path71147"
       d="m 91.538277,137.41214 a 7.9628296,7.9628296 0 0 1 -7.900569,7.96259 7.9628296,7.9628296 0 0 1 -8.024117,-7.83807 7.9628296,7.9628296 0 0 1 7.775087,-8.08516 7.9628296,7.9628296 0 0 1 8.145704,7.71163" />
    <path
       style="display:inline;fill:#fd0001;fill-opacity:1;stroke:#000000;stroke-width:0.191478px;stroke-linecap:round;stroke-linejoin:round;stroke-opacity:1"
       d="m 89.643138,137.58482 -7.162121,6.47704 0.02641,-4.15046 -5.039819,-0.0321 0.03019,-4.74336 5.144802,0.0328 0.05537,-4.38628 z"
       id="path71149" />
  </g>
</svg>
