<?xml version="1.0" encoding="UTF-8" standalone="no"?>
<svg
   xmlns:dc="http://purl.org/dc/elements/1.1/"
   xmlns:cc="http://creativecommons.org/ns#"
   xmlns:rdf="http://www.w3.org/1999/02/22-rdf-syntax-ns#"
   xmlns:svg="http://www.w3.org/2000/svg"
   xmlns="http://www.w3.org/2000/svg"
   xmlns:sodipodi="http://sodipodi.sourceforge.net/DTD/sodipodi-0.dtd"
   xmlns:inkscape="http://www.inkscape.org/namespaces/inkscape"
   version="1.1"
   x="0px"
   y="0px"
   viewBox="0 0 1000 1000"
   enable-background="new 0 0 1000 1000"
   xml:space="preserve"
   id="svg2501"
   sodipodi:docname="Icon_ActionRing_RelaxBonds.svg"
   inkscape:version="1.0.1 (c497b03c, 2020-09-10)"><defs
   id="defs2505" /><sodipodi:namedview
   pagecolor="#ffffff"
   bordercolor="#666666"
   borderopacity="1"
   objecttolerance="10"
   gridtolerance="10"
   guidetolerance="10"
   inkscape:pageopacity="0"
   inkscape:pageshadow="2"
   inkscape:window-width="1097"
   inkscape:window-height="667"
   id="namedview2503"
   showgrid="false"
   inkscape:zoom="0.306"
   inkscape:cx="500"
   inkscape:cy="500"
   inkscape:window-x="212"
   inkscape:window-y="85"
   inkscape:window-maximized="0"
   inkscape:current-layer="layer9"
   showguides="false"
   inkscape:document-rotation="0" />
<metadata
   id="metadata2495"> Svg Vector Icons : http://www.onlinewebfonts.com/icon <rdf:RDF><cc:Work
     rdf:about=""><dc:format>image/svg+xml</dc:format><dc:type
       rdf:resource="http://purl.org/dc/dcmitype/StillImage" /><dc:title></dc:title></cc:Work></rdf:RDF></metadata>

<g
   inkscape:groupmode="layer"
   id="layer9"
   inkscape:label="Icon"
   style="display:inline"><path
     id="path1007"
     style="display:inline;fill:#ffffff;fill-opacity:1;stroke-width:16.5783;stroke-linecap:round;stroke-linejoin:round"
     d="m 782.17296,566.40095 a 186.82901,186.82901 0 0 0 -1.15039,0.008 186.82901,186.82901 0 0 0 -185.03125,188.01562 186.82901,186.82901 0 0 0 187.42187,185.63281 186.82901,186.82901 0 0 0 186.23243,-186.82812 l -0.0156,-2.38867 A 186.82901,186.82901 0 0 0 782.17296,566.40095 Z m -96.44141,74.44141 198.3379,62.67773 -74.23047,34.70313 67.54297,73.60352 -47.92969,41.91015 -64.09571,-76.94336 -46.96679,65.23242 z" /><path
     style="display:inline;fill:#ffffff;fill-opacity:1;stroke:none;stroke-width:4.93562px;stroke-linecap:butt;stroke-linejoin:miter;stroke-opacity:1"
     d="m 666.20267,380.4463 c 0,0 -57.37527,99.60881 -167.01874,99.94044 -120.26949,0.36375 -164.8034,-103.80158 -164.8034,-103.80158 0,0 55.65495,67.74204 163.9599,70.93702 108.14799,3.19034 167.86224,-67.07588 167.86224,-67.07588 z"
     id="path2090"
     sodipodi:nodetypes="cscsc" /><path
     style="display:inline;fill:#ffffff;fill-opacity:1;stroke:none;stroke-width:2.85333px;stroke-linecap:butt;stroke-linejoin:miter;stroke-opacity:1"
     d="m 590.85531,474.5207 c 0,0 -31.08883,59.87268 -94.86737,60.82204 -63.40743,0.94385 -95.42211,-61.10193 -95.42211,-61.10193 0,0 30.04727,36.51331 95.30136,39.05732 62.50142,2.43666 94.98812,-38.77743 94.98812,-38.77743 z"
     id="path2092"
     sodipodi:nodetypes="cscsc" /><path
     style="display:inline;fill:#ffffff;fill-opacity:1;stroke:none;stroke-width:4.93562px;stroke-linecap:butt;stroke-linejoin:miter;stroke-opacity:1"
     d="m 207.96369,546.14904 c 0,0 111.22027,-29.04991 188.41621,48.81274 84.67736,85.40858 41.7427,190.24319 41.7427,190.24319 0,0 9.18564,-87.1899 -64.55895,-166.5745 -73.63771,-79.26949 -165.59996,-72.48143 -165.59996,-72.48143 z"
     id="path5087"
     sodipodi:nodetypes="cscsc" /><path
     style="display:inline;fill:#ffffff;fill-opacity:1;stroke:none;stroke-width:2.85333px;stroke-linecap:butt;stroke-linejoin:miter;stroke-opacity:1"
     d="m 336.58366,536.66814 c 0,0 64.46684,-19.88169 109.90981,24.87928 45.17852,44.50046 23.45681,110.85398 23.45681,110.85398 0,0 4.91673,-47.0307 -39.07371,-95.29462 -42.13478,-46.228 -94.29291,-40.43864 -94.29291,-40.43864 z"
     id="path5089"
     sodipodi:nodetypes="cscsc" /><path
     style="display:inline;fill:#ffffff;fill-opacity:1;stroke:none;stroke-width:4.93562px;stroke-linecap:butt;stroke-linejoin:miter;stroke-opacity:1"
     d="m 566.01323,799.66242 c 0,0 -48.63038,-104.15812 14.03463,-194.12978 68.73822,-98.69119 179.59666,-75.36567 179.59666,-75.36567 0,0 -87.41698,6.68827 -152.20141,93.53958 -64.69055,86.72545 -41.42988,175.95587 -41.42988,175.95587 z"
     id="path5091"
     sodipodi:nodetypes="cscsc" /><path
     style="display:inline;fill:#ffffff;fill-opacity:1;stroke:none;stroke-width:2.85333px;stroke-linecap:butt;stroke-linejoin:miter;stroke-opacity:1"
     d="m 524.76812,684.82651 c 0,0 -31.18131,-59.82458 4.65088,-112.5945 35.62372,-52.46272 104.80657,-43.06291 104.80657,-43.06291 0,0 -47.14633,3.64506 -86.68604,55.61789 -37.87176,49.78049 -22.77141,100.03952 -22.77141,100.03952 z"
     id="path5093"
     sodipodi:nodetypes="cscsc" /><path
     id="path6367"
     style="display:inline;fill:#ffffff;fill-opacity:1;stroke-width:16.5783;stroke-linecap:round;stroke-linejoin:round"
     d="M 375.22578,365.46876 A 186.82901,186.82901 0 0 0 376.086,366.23263 186.82901,186.82901 0 0 0 639.39628,350.29116 186.82901,186.82901 0 0 0 624.29857,86.931043 186.82901,186.82901 0 0 0 360.89004,101.18629 l -1.58655,1.78574 a 186.82901,186.82901 0 0 0 15.92229,262.49673 z m 121.48197,9.19791 -105.47375,-179.28108 78.38753,23.87188 -0.95474,-99.89305 63.66217,0.91896 -3.84186,100.0689 78.55028,-17.05879 z" /><path
     id="path6369"
     style="display:inline;fill:#ffffff;fill-opacity:1;stroke-width:16.5783;stroke-linecap:round;stroke-linejoin:round"
     d="M 398.52771,742.42662 A 186.82901,186.82901 0 0 0 398.39769,741.28356 186.82901,186.82901 0 0 0 191.78189,577.2825 186.82901,186.82901 0 0 0 27.119584,783.37184 186.82901,186.82901 0 0 0 232.68227,948.69349 l 2.37348,-0.26937 a 186.82901,186.82901 0 0 0 163.47196,-205.9975 z m -84.26955,-87.9836 -41.24346,203.87594 -42.39578,-70.12183 -66.0082,74.98299 -46.76673,-43.20403 69.69551,-71.9102 -69.85457,-39.76791 z" /></g></svg>
