<?xml version="1.0" encoding="UTF-8" standalone="no"?>
<svg
   version="1.1"
   x="0px"
   y="0px"
   viewBox="0 0 1000 1000"
   enable-background="new 0 0 1000 1000"
   xml:space="preserve"
   id="svg2501"
   sodipodi:docname="icon_ActionRing_RelaxAllBonds_16px.svg"
   inkscape:version="1.2.2 (732a01da63, 2022-12-09)"
   xmlns:inkscape="http://www.inkscape.org/namespaces/inkscape"
   xmlns:sodipodi="http://sodipodi.sourceforge.net/DTD/sodipodi-0.dtd"
   xmlns="http://www.w3.org/2000/svg"
   xmlns:svg="http://www.w3.org/2000/svg"
   xmlns:rdf="http://www.w3.org/1999/02/22-rdf-syntax-ns#"
   xmlns:cc="http://creativecommons.org/ns#"
   xmlns:dc="http://purl.org/dc/elements/1.1/"><defs
   id="defs2505" /><sodipodi:namedview
   pagecolor="#323232"
   bordercolor="#666666"
   borderopacity="1"
   objecttolerance="10"
   gridtolerance="10"
   guidetolerance="10"
   inkscape:pageopacity="0"
   inkscape:pageshadow="2"
   inkscape:window-width="1920"
   inkscape:window-height="1009"
   id="namedview2503"
   showgrid="false"
   inkscape:zoom="0.612"
   inkscape:cx="616.01307"
   inkscape:cy="375.81699"
   inkscape:window-x="-8"
   inkscape:window-y="-8"
   inkscape:window-maximized="1"
   inkscape:current-layer="g252"
   showguides="false"
   inkscape:document-rotation="0"
   inkscape:showpageshadow="2"
   inkscape:pagecheckerboard="0"
   inkscape:deskcolor="#d1d1d1" />
<metadata
   id="metadata2495"> Svg Vector Icons : http://www.onlinewebfonts.com/icon <rdf:RDF><cc:Work
     rdf:about=""><dc:format>image/svg+xml</dc:format><dc:type
       rdf:resource="http://purl.org/dc/dcmitype/StillImage" /></cc:Work></rdf:RDF></metadata>

<g
   inkscape:groupmode="layer"
   id="layer9"
   inkscape:label="Icon"
   style="display:inline"><g
     id="g252"
     transform="matrix(0.69524491,0,0,0.69524491,237.22557,147.17737)"><path
       id="path1007"
       style="display:inline;fill:#ffffff;fill-opacity:1;stroke-width:16.5783;stroke-linecap:round;stroke-linejoin:round"
       d="m 782.17296,566.40095 c -0.38347,0.001 -0.76694,0.004 -1.15039,0.008 -102.94432,0.98852 -185.68986,85.06866 -185.03125,188.01562 0.65862,102.94703 84.47326,185.9616 187.42187,185.63281 102.94941,-0.32874 186.23246,-83.87819 186.23243,-186.82812 l -0.0156,-2.38867 C 968.31972,648.34696 884.67435,566.048 782.17296,566.40095 Z"
       sodipodi:nodetypes="scssccs" /><path
       style="display:inline;fill:#ffffff;fill-opacity:1;stroke:none;stroke-width:2.85333px;stroke-linecap:butt;stroke-linejoin:miter;stroke-opacity:1"
       d="m 590.85531,474.5207 c 0,0 -31.08883,59.87268 -94.86737,60.82204 -63.40743,0.94385 -95.42211,-61.10193 -95.42211,-61.10193 0,0 30.04727,36.51331 95.30136,39.05732 62.50142,2.43666 94.98812,-38.77743 94.98812,-38.77743 z"
       id="path2092"
       sodipodi:nodetypes="cscsc" /><path
       style="display:inline;fill:#ffffff;fill-opacity:1;stroke:none;stroke-width:2.85333px;stroke-linecap:butt;stroke-linejoin:miter;stroke-opacity:1"
       d="m 336.58366,536.66814 c 0,0 64.46684,-19.88169 109.90981,24.87928 45.17852,44.50046 23.45681,110.85398 23.45681,110.85398 0,0 4.91673,-47.0307 -39.07371,-95.29462 -42.13478,-46.228 -94.29291,-40.43864 -94.29291,-40.43864 z"
       id="path5089"
       sodipodi:nodetypes="cscsc" /><path
       style="display:inline;fill:#ffffff;fill-opacity:1;stroke:none;stroke-width:2.85333px;stroke-linecap:butt;stroke-linejoin:miter;stroke-opacity:1"
       d="m 524.76812,684.82651 c 0,0 -31.18131,-59.82458 4.65088,-112.5945 35.62372,-52.46272 104.80657,-43.06291 104.80657,-43.06291 0,0 -47.14633,3.64506 -86.68604,55.61789 -37.87176,49.78049 -22.77141,100.03952 -22.77141,100.03952 z"
       id="path5093"
       sodipodi:nodetypes="cscsc" /><path
       id="path6367"
       style="display:inline;fill:#ffffff;fill-opacity:1;stroke-width:16.5783;stroke-linecap:round;stroke-linejoin:round"
       d="m 375.22578,365.46876 c 0.28596,0.25551 0.5727,0.51013 0.86022,0.76387 77.17142,68.14017 194.92315,61.01118 263.31028,-15.94147 C 707.78344,273.33845 701.03178,155.5644 624.29857,86.931043 547.5648,18.297105 429.76863,24.672045 360.89004,101.18629 l -1.58655,1.78574 c -67.59934,77.05175 -60.49465,194.18059 15.92229,262.49673 z"
       sodipodi:nodetypes="scssccs" /><path
       id="path6369"
       style="display:inline;fill:#ffffff;fill-opacity:1;stroke-width:16.5783;stroke-linecap:round;stroke-linejoin:round"
       d="m 427.29455,742.42662 c -0.0422,-0.38115 -0.0855,-0.76217 -0.13002,-1.14306 C 415.24073,639.02734 322.84263,565.68646 220.54873,577.2825 118.25477,588.87857 44.618161,681.04125 55.886425,783.37184 67.154721,885.70324 159.08226,959.635 261.44911,948.69349 l 2.37348,-0.26937 C 365.59637,936.22816 438.5393,844.30988 427.29455,742.42662 Z"
       sodipodi:nodetypes="scssccs" /></g><rect
     style="fill:none;stroke:#ffffff;stroke-width:33.5331;stroke-dasharray:none;stroke-dashoffset:0;stroke-opacity:1"
     id="rect511"
     width="700.91132"
     height="754.83289"
     x="236.14565"
     y="122.58356" /><g
     aria-label="U"
     id="text2426"
     style="font-size:192px;font-family:HYGothic-Extra;-inkscape-font-specification:HYGothic-Extra;text-align:center;text-anchor:middle;fill:#ffffff;stroke-width:40;stroke-dasharray:240, 40"
     transform="matrix(1.3941982,0,0,1.3941982,-163.02849,-43.070025)"><path
       d="m 229.69363,104.44647 h -30.5625 v 74.66976 c 0,9.25 -2.25,16.125 -6.75,20.625 -4.625,4.875 -11.9375,7.3125 -21.9375,7.3125 -7.875,0 -14.0625,-2.375 -18.5625,-7.125 -5,-5 -7.5,-12.375 -7.5,-22.125 v -73.35726 h -30.75 v 97.125 c 0,7.375 0.9375,13.9375 2.8125,19.6875 1.875,6 4.75,11.25 8.625,15.75 5.625,6.5 13.125,11.25 22.5,14.25 7.25,2.5 15.0625,3.75 23.4375,3.75 18.5,0 32.75,-4.4375 42.75,-13.3125 10.625,-9.375 15.9375,-23.4375 15.9375,-42.1875 z"
       id="path3176"
       sodipodi:nodetypes="ccscscsccscccscsc" /></g></g></svg>
