<?xml version="1.0" encoding="UTF-8" standalone="no"?>
<!-- Svg Vector Icons : http://www.onlinewebfonts.com/icon -->

<svg
   version="1.1"
   x="0px"
   y="0px"
   viewBox="0 0 192 128"
   enable-background="new 0 0 1000 1000"
   xml:space="preserve"
   id="svg4"
   sodipodi:docname="icon_on_grey.svg"
   width="192"
   height="128"
   inkscape:version="1.3.2 (091e20ef0f, 2023-11-25, custom)"
   xmlns:inkscape="http://www.inkscape.org/namespaces/inkscape"
   xmlns:sodipodi="http://sodipodi.sourceforge.net/DTD/sodipodi-0.dtd"
   xmlns="http://www.w3.org/2000/svg"
   xmlns:svg="http://www.w3.org/2000/svg"><defs
   id="defs4" /><sodipodi:namedview
   id="namedview4"
   pagecolor="#ffffff"
   bordercolor="#666666"
   borderopacity="1.0"
   inkscape:showpageshadow="2"
   inkscape:pageopacity="0.0"
   inkscape:pagecheckerboard="0"
   inkscape:deskcolor="#d1d1d1"
   inkscape:zoom="1.748"
   inkscape:cx="217.96339"
   inkscape:cy="135.01144"
   inkscape:window-width="2524"
   inkscape:window-height="1052"
   inkscape:window-x="36"
   inkscape:window-y="0"
   inkscape:window-maximized="1"
   inkscape:current-layer="svg4" />
<metadata
   id="metadata1"> Svg Vector Icons : http://www.onlinewebfonts.com/icon </metadata>
<g
   id="g1"
   transform="translate(0,-32.000001)"><path
     fill="#adff2f"
     stroke="#000000"
     stroke-width="1.93858"
     d="M 179.11652,42.553413 H 12.883481 c -6.5523925,0 -11.88348119,5.311703 -11.88348119,11.883481 v 83.126216 c 0,6.55239 5.31170289,11.88348 11.88348119,11.88348 H 179.11652 c 6.55239,0 11.88348,-5.31171 11.88348,-11.88348 V 54.417508 c -0.0194,-6.552392 -5.33109,-11.864095 -11.88348,-11.864095 z m 2.96602,89.058257 c 0,6.55239 -2.34568,8.89807 -8.89807,8.89807 H 18.815529 c -6.552393,0 -8.8980718,-2.34568 -8.8980718,-8.89807 V 60.368942 c 0,-6.552393 2.3456788,-8.898072 8.8980718,-8.898072 H 173.18447 c 6.55239,0 8.89807,2.345679 8.89807,8.898072 z"
     id="path1"
     style="fill:#808080;stroke:none" /><path
     fill="#adff2f"
     stroke="#000000"
     stroke-width="3.87716"
     d="M 81.140802,57.383532 H 27.713601 c -6.552393,0 -11.883482,5.311703 -11.883482,11.883482 v 53.427196 c 0,6.5524 5.311703,11.88349 11.883482,11.88349 h 53.427201 c 6.552393,0 11.883481,-5.31171 11.883481,-11.88349 V 69.267014 c 0,-6.552393 -5.311703,-11.883482 -11.883481,-11.883482 z"
     id="path2"
     style="fill:#808080;stroke:none" /><path
     fill="#000000"
     stroke="#000000"
     stroke-width="1.93858"
     d="m 134.23845,84.639935 c -1.24069,-1.357005 -2.77217,-2.403837 -4.55566,-3.140496 -1.78349,-0.73666 -3.79961,-1.104989 -6.04836,-1.104989 -2.17121,0 -4.16795,0.368329 -5.99021,1.085603 -1.82226,0.73666 -3.37313,1.783492 -4.59443,3.159882 -1.29885,1.453933 -2.26814,3.179267 -2.94664,5.214774 -0.6785,2.035506 -1.00806,4.323028 -1.00806,6.862565 0,2.597694 0.32956,4.904606 1.02745,6.920726 0.6785,2.01612 1.64779,3.72207 2.90787,5.11784 1.26007,1.39578 2.79155,2.44261 4.59442,3.17927 1.80288,0.73666 3.79962,1.0856 6.0096,1.0856 2.26813,0 4.26487,-0.34894 6.02897,-1.06622 1.76411,-0.71727 3.29558,-1.78349 4.57505,-3.19865 1.24068,-1.357 2.22936,-3.06295 2.90786,-5.09846 0.69789,-2.0355 1.04683,-4.361798 1.04683,-6.940106 0,-2.578309 -0.34894,-4.885216 -1.02744,-6.920723 -0.6785,-2.035506 -1.64779,-3.76084 -2.92725,-5.156616 z m -3.15989,21.518215 c -1.84165,2.19059 -4.32302,3.27619 -7.44413,3.27619 -3.12111,0 -5.60249,-1.0856 -7.46353,-3.27619 -1.86103,-2.17121 -2.77217,-5.33109 -2.77217,-9.440876 0,-4.071013 0.91114,-7.211509 2.7334,-9.421488 1.82226,-2.209978 4.32303,-3.314968 7.5023,-3.314968 3.15988,0 5.64126,1.10499 7.48291,3.314968 1.82226,2.209979 2.73339,5.350475 2.73339,9.421488 0,4.109786 -0.93052,7.269666 -2.77217,9.440876 z"
     id="path3"
     style="fill:#808080;fill-opacity:1;stroke:#808080" /><path
     fill="#000000"
     stroke="#000000"
     stroke-width="1.93858"
     d="M 162.13458,106.64279 148.58392,81.053566 h -6.45546 v 31.346804 h 3.87715 V 84.349148 l 14.86889,28.031832 h 5.15662 v -31.3468 h -3.89654 z"
     id="path4"
     style="fill:#808080;fill-opacity:1;stroke:#808080" /></g>
</svg>
