<?xml version="1.0" encoding="UTF-8" standalone="no"?>
<!-- Svg Vector Icons : http://www.onlinewebfonts.com/icon -->

<svg
   version="1.1"
   x="0px"
   y="0px"
   viewBox="0 0 192 128"
   enable-background="new 0 0 1000 1000"
   xml:space="preserve"
   id="svg5"
   sodipodi:docname="icon_off_grey.svg"
   width="192"
   height="128"
   inkscape:version="1.3.2 (091e20ef0f, 2023-11-25, custom)"
   xmlns:inkscape="http://www.inkscape.org/namespaces/inkscape"
   xmlns:sodipodi="http://sodipodi.sourceforge.net/DTD/sodipodi-0.dtd"
   xmlns="http://www.w3.org/2000/svg"
   xmlns:svg="http://www.w3.org/2000/svg"><defs
   id="defs5" /><sodipodi:namedview
   id="namedview5"
   pagecolor="#ffffff"
   bordercolor="#666666"
   borderopacity="1.0"
   inkscape:showpageshadow="2"
   inkscape:pageopacity="0.0"
   inkscape:pagecheckerboard="0"
   inkscape:deskcolor="#d1d1d1"
   inkscape:zoom="3.496"
   inkscape:cx="53.775744"
   inkscape:cy="108.12357"
   inkscape:window-width="2524"
   inkscape:window-height="1052"
   inkscape:window-x="36"
   inkscape:window-y="0"
   inkscape:window-maximized="1"
   inkscape:current-layer="svg5" />
<metadata
   id="metadata1"> Svg Vector Icons : http://www.onlinewebfonts.com/icon </metadata>
<g
   id="g1"
   transform="translate(0,-32.000001)"><path
     fill="#808080"
     stroke="#000000"
     stroke-width="1.93858"
     d="M 179.11652,42.553413 H 12.883481 c -6.5523925,0 -11.88348119,5.311703 -11.88348119,11.883481 v 83.126216 c 0,6.55239 5.31170289,11.88348 11.88348119,11.88348 H 179.11652 c 6.55239,0 11.88348,-5.31171 11.88348,-11.88348 V 54.417508 c -0.0194,-6.552392 -5.33109,-11.864095 -11.88348,-11.864095 z m 2.96602,89.058257 c 0,6.55239 -2.34568,8.89807 -8.89807,8.89807 H 18.815529 c -6.552393,0 -8.8980718,-2.34568 -8.8980718,-8.89807 V 60.368942 c 0,-6.552393 2.3456788,-8.898072 8.8980718,-8.898072 H 173.18447 c 6.55239,0 8.89807,2.345679 8.89807,8.898072 z"
     id="path1"
     style="fill:#808080;fill-opacity:1;stroke:none" /><path
     fill="#808080"
     stroke="#000000"
     stroke-width="3.87716"
     d="m 164.26701,57.383532 h -53.4272 c -6.55239,0 -11.883479,5.311703 -11.883479,11.883482 v 53.427196 c 0,6.5524 5.311699,11.88349 11.883479,11.88349 h 53.4272 c 6.5524,0 11.88349,-5.31171 11.88349,-11.88349 V 69.267014 c -0.0194,-6.552393 -5.33109,-11.883482 -11.88349,-11.883482 z"
     id="path2"
     style="fill:#808080;fill-opacity:1;stroke:none" /><path
     fill="#000000"
     stroke="#000000"
     stroke-width="1.93858"
     d="M 40.682685,83.903275 C 39.441996,82.546271 37.910519,81.499439 36.127028,80.762779 34.343536,80.02612 32.327415,79.65779 30.078665,79.65779 c -2.171207,0 -4.167942,0.36833 -5.990205,1.085603 -1.822263,0.73666 -3.373125,1.783492 -4.594429,3.159882 -1.298847,1.453933 -2.268136,3.179268 -2.946638,5.214774 -0.678502,2.035507 -1.00806,4.323028 -1.00806,6.862565 0,2.597694 0.329558,4.904606 1.027446,6.920726 0.678502,2.01612 1.647791,3.72207 2.907866,5.11784 1.260076,1.39578 2.791552,2.44261 4.594429,3.17927 1.802878,0.73666 3.799613,1.10499 6.009591,1.10499 2.268136,0 4.264871,-0.34895 6.028977,-1.06622 1.764106,-0.71727 3.295582,-1.78349 4.575043,-3.19865 1.24069,-1.35701 2.229365,-3.06296 2.907867,-5.09846 0.697888,-2.03551 1.046832,-4.361802 1.046832,-6.94011 0,-2.578308 -0.329558,-4.885216 -1.027446,-6.920722 -0.678503,-2.054893 -1.667177,-3.760841 -2.927253,-5.176003 z m -3.159881,21.537595 c -1.841649,2.1906 -4.323029,3.2762 -7.444139,3.2762 -3.12111,0 -5.602489,-1.0856 -7.444138,-3.2762 -1.861035,-2.1712 -2.772166,-5.33109 -2.772166,-9.44087 0,-4.071013 0.911131,-7.211509 2.733394,-9.421488 1.822263,-2.209978 4.323029,-3.314967 7.502296,-3.314967 3.159882,0 5.641261,1.104989 7.48291,3.314967 1.822263,2.209979 2.733395,5.350475 2.733395,9.421488 -0.01939,4.10978 -0.949904,7.25028 -2.791552,9.44087 z"
     id="path3"
     style="fill:#808080;fill-opacity:1;stroke:#808080;stroke-opacity:1" /><path
     fill="#000000"
     stroke="#000000"
     stroke-width="1.93858"
     d="m 48.553311,111.64432 h 4.167942 V 96.562188 H 66.330068 V 92.859504 H 52.701867 V 84.01959 H 68.559433 V 80.316906 H 48.553311 Z"
     id="path4"
     style="fill:#808080;fill-opacity:1;stroke:#808080;stroke-opacity:1" /><path
     fill="#000000"
     stroke="#000000"
     stroke-width="1.93858"
     d="m 73.328334,111.64432 h 4.167942 V 96.562188 H 91.124477 V 92.859504 H 77.496276 V 84.01959 H 93.353841 V 80.316906 H 73.328334 Z"
     id="path5"
     style="fill:#808080;fill-opacity:1;stroke:#808080;stroke-opacity:1" /></g>
</svg>
